/* XPM */
static char *cg_dead[] = {
/* columns rows colors chars-per-pixel */
"64 64 8 1 ",
"  c #141B1B",
". c #D14B34",
"X c #A3754E",
"o c #56864C",
"O c #EF914F",
"+ c #F1C471",
"@ c #FCE2CA",
"# c None",
/* pixels */
"################################################################",
"################################################################",
"################################################################",
"################################################################",
"################################################################",
"################################################################",
"################################################################",
"################################################################",
"################################################################",
"################################################################",
"################################################################",
"################################################################",
"############        ####            ########    ################",
"############        ####            ########    ################",
"############        ####            ########    ################",
"############        ####            ########    ################",
"########    oooooooo    oooooooooooo        @@@@    ############",
"########    oooooooo    oooooooooooo        @@@@    ############",
"########    oooooooo    oooooooooooo        @@@@    ############",
"########    oooooooo    oooooooooooo        @@@@    ############",
"####            oooooooooooooooooooooooooooo@@@@@@@@    ########",
"####            oooooooooooooooooooooooooooo@@@@@@@@    ########",
"####            oooooooooooooooooooooooooooo@@@@@@@@    ########",
"####            oooooooooooooooooooooooooooo@@@@@@@@    ########",
"    oooooooooooooooo++++oooooooooooo++++oooooooo    ############",
"    oooooooooooooooo++++oooooooooooo++++oooooooo    ############",
"    oooooooooooooooo++++oooooooooooo++++oooooooo    ############",
"    oooooooooooooooo++++oooooooooooo++++oooooooo    ############",
"####    oooooooooooooooooooo++++oooooooooooooooooooo    ########",
"####    oooooooooooooooooooo++++oooooooooooooooooooo    ########",
"####    oooooooooooooooooooo++++oooooooooooooooooooo    ########",
"####    oooooooooooooooooooo++++oooooooooooooooooooo    ########",
"    oooooooooooooooooooooooooooooooooooooooooooooooo    ########",
"    oooooooooooooooooooooooooooooooooooooooooooooooo    ########",
"    oooooooooooooooooooooooooooooooooooooooooooooooo    ########",
"    oooooooooooooooooooooooooooooooooooooooooooooooo    ########",
"    oooo    oooooooooooooooooooooooooooooooooooooooooooo    ####",
"    oooo    oooooooooooooooooooooooooooooooooooooooooooo    ####",
"    oooo    oooooooooooooooooooooooooooooooooooooooooooo    ####",
"    oooo    oooooooooooooooooooooooooooooooooooooooooooo    ####",
"        ooooooooooooOOOOOOOOooooooooOOOOOOOOoooooooooooo    ####",
"        ooooooooooooOOOOOOOOooooooooOOOOOOOOoooooooooooo    ####",
"        ooooooooooooOOOOOOOOooooooooOOOOOOOOoooooooooooo    ####",
"        ooooooooooooOOOOOOOOooooooooOOOOOOOOoooooooooooo    ####",
"    ....    ooooOOOO        OOOOoooo        OOOOoooo    ....    ",
"    ....    ooooOOOO        OOOOoooo        OOOOoooo    ....    ",
"    ....    ooooOOOO        OOOOoooo        OOOOoooo    ....    ",
"    ....    ooooOOOO        OOOOoooo        OOOOoooo    ....    ",
"    ....    oooo........OOOOOOOOOOOOOOOO........oooo    ....    ",
"    ....    oooo........OOOOOOOOOOOOOOOO........oooo    ....    ",
"    ....    oooo........OOOOOOOOOOOOOOOO........oooo    ....    ",
"    ....    oooo........OOOOOOOOOOOOOOOO........oooo    ....    ",
"    OOOOOOOO    OOOOOOOO                OOOOOOOO    OOOOOOOO    ",
"    OOOOOOOO    OOOOOOOO                OOOOOOOO    OOOOOOOO    ",
"    OOOOOOOO    OOOOOOOO                OOOOOOOO    OOOOOOOO    ",
"    OOOOOOOO    OOOOOOOO                OOOOOOOO    OOOOOOOO    ",
"    OOOOOOOOXXXXXXXXXXXXXXXXXXXXXXXXXXXXXXXXXXXXXXXXOOOOOOOO    ",
"    OOOOOOOOXXXXXXXXXXXXXXXXXXXXXXXXXXXXXXXXXXXXXXXXOOOOOOOO    ",
"    OOOOOOOOXXXXXXXXXXXXXXXXXXXXXXXXXXXXXXXXXXXXXXXXOOOOOOOO    ",
"    OOOOOOOOXXXXXXXXXXXXXXXXXXXXXXXXXXXXXXXXXXXXXXXXOOOOOOOO    ",
"####XXXXXXXX########################################XXXXXXXX####",
"####XXXXXXXX########################################XXXXXXXX####",
"####XXXXXXXX########################################XXXXXXXX####",
"####XXXXXXXX########################################XXXXXXXX####"
};
