/* XPM */
static char *cg_item[] = {
/* columns rows colors chars-per-pixel */
"64 64 9 1 ",
"  c #141B1B",
". c #4E484A",
"X c #D14B34",
"o c #965340",
"O c #A3754E",
"+ c #56864C",
"@ c #EF914F",
"# c #FCE2CA",
"$ c None",
/* pixels */
"$$$$$$$$$$$$            $$$$$$$$$$$$$$$$$$$$    $$$$$$$$$$$$$$$$",
"$$$$$$$$$$$$            $$$$$$$$$$$$$$$$$$$$    $$$$$$$$$$$$$$$$",
"$$$$$$$$$$$$            $$$$$$$$$$$$$$$$$$$$    $$$$$$$$$$$$$$$$",
"$$$$$$$$$$$$            $$$$$$$$$$$$$$$$$$$$    $$$$$$$$$$$$$$$$",
"$$$$$$$$    ++++++++++++                    ####    $$$$$$$$$$$$",
"$$$$$$$$    ++++++++++++                    ####    $$$$$$$$$$$$",
"$$$$$$$$    ++++++++++++                    ####    $$$$$$$$$$$$",
"$$$$$$$$    ++++++++++++                    ####    $$$$$$$$$$$$",
"$$$$    ++++    ++++++++++++++++++++++++    ########    $$$$$$$$",
"$$$$    ++++    ++++++++++++++++++++++++    ########    $$$$$$$$",
"$$$$    ++++    ++++++++++++++++++++++++    ########    $$$$$$$$",
"$$$$    ++++    ++++++++++++++++++++++++    ########    $$$$$$$$",
"$$$$        ++++++++++++++++++++++++++++++++++++        $$$$$$$$",
"$$$$        ++++++++++++++++++++++++++++++++++++        $$$$$$$$",
"$$$$        ++++++++++++++++++++++++++++++++++++        $$$$$$$$",
"$$$$        ++++++++++++++++++++++++++++++++++++        $$$$$$$$",
"    ++++++++++++++++@@@@    @@@@++++    @@@@++++++++    $$$$$$$$",
"    ++++++++++++++++@@@@    @@@@++++    @@@@++++++++    $$$$$$$$",
"    ++++++++++++++++@@@@    @@@@++++    @@@@++++++++    $$$$$$$$",
"    ++++++++++++++++@@@@    @@@@++++    @@@@++++++++    $$$$$$$$",
"                XXXXXXXX@@@@@@@@@@@@@@@@XXXXXXXX            $$$$",
"                XXXXXXXX@@@@@@@@@@@@@@@@XXXXXXXX            $$$$",
"                XXXXXXXX@@@@@@@@@@@@@@@@XXXXXXXX            $$$$",
"                XXXXXXXX@@@@@@@@@@@@@@@@XXXXXXXX            $$$$",
"    @@@@@@@@    @@@@@@@@@@@@        @@@@@@@@@@@@    @@@@@@@@    ",
"    @@@@@@@@    @@@@@@@@@@@@        @@@@@@@@@@@@    @@@@@@@@    ",
"    @@@@@@@@    @@@@@@@@@@@@        @@@@@@@@@@@@    @@@@@@@@    ",
"    @@@@@@@@    @@@@@@@@@@@@        @@@@@@@@@@@@    @@@@@@@@    ",
"    @@@@@@@@XXXX@@@@@@@@@@@@        @@@@@@@@@@@@XXXX@@@@@@@@    ",
"    @@@@@@@@XXXX@@@@@@@@@@@@        @@@@@@@@@@@@XXXX@@@@@@@@    ",
"    @@@@@@@@XXXX@@@@@@@@@@@@        @@@@@@@@@@@@XXXX@@@@@@@@    ",
"    @@@@@@@@XXXX@@@@@@@@@@@@        @@@@@@@@@@@@XXXX@@@@@@@@    ",
"    XXXXXXXX    @@@@@@@@@@@@@@@@@@@@@@@@@@@@@@@@    XXXXXXXX    ",
"    XXXXXXXX    @@@@@@@@@@@@@@@@@@@@@@@@@@@@@@@@    XXXXXXXX    ",
"    XXXXXXXX    @@@@@@@@@@@@@@@@@@@@@@@@@@@@@@@@    XXXXXXXX    ",
"    XXXXXXXX    @@@@@@@@@@@@@@@@@@@@@@@@@@@@@@@@    XXXXXXXX    ",
"    XXXXXXXX    @@@@@@@@@@@@@@@@@@@@@@@@@@@@@@@@    XXXXXXXX    ",
"    XXXXXXXX    @@@@@@@@@@@@@@@@@@@@@@@@@@@@@@@@    XXXXXXXX    ",
"    XXXXXXXX    @@@@@@@@@@@@@@@@@@@@@@@@@@@@@@@@    XXXXXXXX    ",
"    XXXXXXXX    @@@@@@@@@@@@@@@@@@@@@@@@@@@@@@@@    XXXXXXXX    ",
"$$$$    XXXXXXXX    @@@@@@@@@@@@@@@@@@@@@@@@        XXXX    $$$$",
"$$$$    XXXXXXXX    @@@@@@@@@@@@@@@@@@@@@@@@        XXXX    $$$$",
"$$$$    XXXXXXXX    @@@@@@@@@@@@@@@@@@@@@@@@        XXXX    $$$$",
"$$$$    XXXXXXXX    @@@@@@@@@@@@@@@@@@@@@@@@        XXXX    $$$$",
"$$$$    XXXXXXXX........XXXXXXXXXXXXXXXXooooooooOOOOXXXX    $$$$",
"$$$$    XXXXXXXX........XXXXXXXXXXXXXXXXooooooooOOOOXXXX    $$$$",
"$$$$    XXXXXXXX........XXXXXXXXXXXXXXXXooooooooOOOOXXXX    $$$$",
"$$$$    XXXXXXXX........XXXXXXXXXXXXXXXXooooooooOOOOXXXX    $$$$",
"$$$$$$$$    XXXXOOOOOOOOOOOOOOOOOOOOOOOO........OOOO    $$$$$$$$",
"$$$$$$$$    XXXXOOOOOOOOOOOOOOOOOOOOOOOO........OOOO    $$$$$$$$",
"$$$$$$$$    XXXXOOOOOOOOOOOOOOOOOOOOOOOO........OOOO    $$$$$$$$",
"$$$$$$$$    XXXXOOOOOOOOOOOOOOOOOOOOOOOO........OOOO    $$$$$$$$",
"$$$$$$$$$$$$    OOOO........OOOOOOOOOOOO........    $$$$$$$$$$$$",
"$$$$$$$$$$$$    OOOO........OOOOOOOOOOOO........    $$$$$$$$$$$$",
"$$$$$$$$$$$$    OOOO........OOOOOOOOOOOO........    $$$$$$$$$$$$",
"$$$$$$$$$$$$    OOOO........OOOOOOOOOOOO........    $$$$$$$$$$$$",
"$$$$$$$$$$$$    XXXX........        ooooooooXXXX    $$$$$$$$$$$$",
"$$$$$$$$$$$$    XXXX........        ooooooooXXXX    $$$$$$$$$$$$",
"$$$$$$$$$$$$    XXXX........        ooooooooXXXX    $$$$$$$$$$$$",
"$$$$$$$$$$$$    XXXX........        ooooooooXXXX    $$$$$$$$$$$$",
"$$$$$$$$$$$$    XXXXXXXXXXXX        XXXXXXXXXXXX    $$$$$$$$$$$$",
"$$$$$$$$$$$$    XXXXXXXXXXXX        XXXXXXXXXXXX    $$$$$$$$$$$$",
"$$$$$$$$$$$$    XXXXXXXXXXXX        XXXXXXXXXXXX    $$$$$$$$$$$$",
"$$$$$$$$$$$$    XXXXXXXXXXXX        XXXXXXXXXXXX    $$$$$$$$$$$$"
};
