/* XPM */
static char * cg_walk_right2__xpm[] = {
"64 64 11 1",
" 	c #ADBC3A",
".	c #141B1B",
"+	c #FCE2CA",
"@	c #56864C",
"#	c #F1C471",
"$	c #4E484A",
"%	c #EF914F",
"&	c #D14B34",
"*	c #345A52",
"=	c #A3754E",
"-	c #965340",
"                                                                ",
"                                                                ",
"                                                                ",
"                                                                ",
"                ....        ............                        ",
"                ....        ............                        ",
"                ....        ............                        ",
"                ....        ............                        ",
"            ....++++........@@@@@@@@@@@@........                ",
"            ....++++........@@@@@@@@@@@@........                ",
"            ....++++........@@@@@@@@@@@@........                ",
"            ....++++........@@@@@@@@@@@@........                ",
"        ....++++++++@@@@@@@@....@@@@@@@@....@@@@....            ",
"        ....++++++++@@@@@@@@....@@@@@@@@....@@@@....            ",
"        ....++++++++@@@@@@@@....@@@@@@@@....@@@@....            ",
"        ....++++++++@@@@@@@@....@@@@@@@@....@@@@....            ",
"            ....@@@@@@@@....@@@@@@@@@@@@@@@@####@@@@....        ",
"            ....@@@@@@@@....@@@@@@@@@@@@@@@@####@@@@....        ",
"            ....@@@@@@@@....@@@@@@@@@@@@@@@@####@@@@....        ",
"            ....@@@@@@@@....@@@@@@@@@@@@@@@@####@@@@....        ",
"        ....$$$$@@@@@@@@@@@@....@@@@@@@@@@@@@@@@@@@@....        ",
"        ....$$$$@@@@@@@@@@@@....@@@@@@@@@@@@@@@@@@@@....        ",
"        ....$$$$@@@@@@@@@@@@....@@@@@@@@@@@@@@@@@@@@....        ",
"        ....$$$$@@@@@@@@@@@@....@@@@@@@@@@@@@@@@@@@@....        ",
"    ........@@@@@@@@@@@@....@@@@@@@@@@@@%%%%%%%%@@@@@@@@....    ",
"    ........@@@@@@@@@@@@....@@@@@@@@@@@@%%%%%%%%@@@@@@@@....    ",
"    ........@@@@@@@@@@@@....@@@@@@@@@@@@%%%%%%%%@@@@@@@@....    ",
"    ........@@@@@@@@@@@@....@@@@@@@@@@@@%%%%%%%%@@@@@@@@....    ",
"....@@@@@@@@........@@@@....@@@@@@@@....%%%%....@@@@@@@@....    ",
"....@@@@@@@@........@@@@....@@@@@@@@....%%%%....@@@@@@@@....    ",
"....@@@@@@@@........@@@@....@@@@@@@@....%%%%....@@@@@@@@....    ",
"....@@@@@@@@........@@@@....@@@@@@@@....%%%%....@@@@@@@@....    ",
"....@@@@....&&&&&&&&@@@@@@@@........&&&&&&&&%%%%%%%%....        ",
"....@@@@....&&&&&&&&@@@@@@@@........&&&&&&&&%%%%%%%%....        ",
"....@@@@....&&&&&&&&@@@@@@@@........&&&&&&&&%%%%%%%%....        ",
"....@@@@....&&&&&&&&@@@@@@@@........&&&&&&&&%%%%%%%%....        ",
"....****....&&&&&&&&&&&&@@@@%%%%%%%%%%%%%%%%%%%%&&&&....        ",
"....****....&&&&&&&&&&&&@@@@%%%%%%%%%%%%%%%%%%%%&&&&....        ",
"....****....&&&&&&&&&&&&@@@@%%%%%%%%%%%%%%%%%%%%&&&&....        ",
"....****....&&&&&&&&&&&&@@@@%%%%%%%%%%%%%%%%%%%%&&&&....        ",
"....********........&&&&&&&&%%%%%%%%%%%%%%%%%%%%%%%%....        ",
"....********........&&&&&&&&%%%%%%%%%%%%%%%%%%%%%%%%....        ",
"....********........&&&&&&&&%%%%%%%%%%%%%%%%%%%%%%%%....        ",
"....********........&&&&&&&&%%%%%%%%%%%%%%%%%%%%%%%%....        ",
"    ....********....&&&&========%%%%%%%%%%%%%%%%....            ",
"    ....********....&&&&========%%%%%%%%%%%%%%%%....            ",
"    ....********....&&&&========%%%%%%%%%%%%%%%%....            ",
"    ....********....&&&&========%%%%%%%%%%%%%%%%....            ",
"        ........$$$$====&&&&&&&&========........                ",
"        ........$$$$====&&&&&&&&========........                ",
"        ........$$$$====&&&&&&&&========........                ",
"        ........$$$$====&&&&&&&&========........                ",
"            ....====....%%%%%%%%....$$$$$$$$....                ",
"            ....====....%%%%%%%%....$$$$$$$$....                ",
"            ....====....%%%%%%%%....$$$$$$$$....                ",
"            ....====....%%%%%%%%....$$$$$$$$....                ",
"            ....----....%%%%%%%%....--------....                ",
"            ....----....%%%%%%%%....--------....                ",
"            ....----....%%%%%%%%....--------....                ",
"            ....----....%%%%%%%%....--------....                ",
"                ....&&&&............&&&&....                    ",
"                ....&&&&............&&&&....                    ",
"                ....&&&&............&&&&....                    ",
"                ....&&&&............&&&&....                    "};
