/* XPM */
static char * cg_walk_up1__xpm[] = {
"64 64 11 1",
" 	c #ADBC3A",
".	c #141B1B",
"+	c #FCE2CA",
"@	c #56864C",
"#	c #4E484A",
"$	c #F1C471",
"%	c #345A52",
"&	c #D14B34",
"*	c #EF914F",
"=	c #A3754E",
"-	c #965340",
"                ....++++................    ........            ",
"                ....++++................    ........            ",
"                ....++++................    ........            ",
"                ....++++................    ........            ",
"            ....++++++++....@@@@@@@@@@@@....@@@@@@@@....        ",
"            ....++++++++....@@@@@@@@@@@@....@@@@@@@@....        ",
"            ....++++++++....@@@@@@@@@@@@....@@@@@@@@....        ",
"            ....++++++++....@@@@@@@@@@@@....@@@@@@@@....        ",
"            ........@@@@@@@@@@@@@@@@@@@@@@@@@@@@........        ",
"            ........@@@@@@@@@@@@@@@@@@@@@@@@@@@@........        ",
"            ........@@@@@@@@@@@@@@@@@@@@@@@@@@@@........        ",
"            ........@@@@@@@@@@@@@@@@@@@@@@@@@@@@........        ",
"        ....####@@@@@@@@$$$$@@@@@@@@@@@@$$$$@@@@@@@@@@@@....    ",
"        ....####@@@@@@@@$$$$@@@@@@@@@@@@$$$$@@@@@@@@@@@@....    ",
"        ....####@@@@@@@@$$$$@@@@@@@@@@@@$$$$@@@@@@@@@@@@....    ",
"        ....####@@@@@@@@$$$$@@@@@@@@@@@@$$$$@@@@@@@@@@@@....    ",
"        ....@@@@@@@@@@@@@@@@@@@@$$$$@@@@@@@@@@@@@@@@@@@@@@@@....",
"        ....@@@@@@@@@@@@@@@@@@@@$$$$@@@@@@@@@@@@@@@@@@@@@@@@....",
"        ....@@@@@@@@@@@@@@@@@@@@$$$$@@@@@@@@@@@@@@@@@@@@@@@@....",
"        ....@@@@@@@@@@@@@@@@@@@@$$$$@@@@@@@@@@@@@@@@@@@@@@@@....",
"    ....%%%%@@@@@@@@@@@@@@@@@@@@@@@@@@@@@@@@@@@@@@@@@@@@....    ",
"    ....%%%%@@@@@@@@@@@@@@@@@@@@@@@@@@@@@@@@@@@@@@@@@@@@....    ",
"    ....%%%%@@@@@@@@@@@@@@@@@@@@@@@@@@@@@@@@@@@@@@@@@@@@....    ",
"    ....%%%%@@@@@@@@@@@@@@@@@@@@@@@@@@@@@@@@@@@@@@@@@@@@....    ",
"    ....%%%%%%%%........@@@@........@@@@@@@@@@@@%%%%@@@@@@@@....",
"    ....%%%%%%%%........@@@@........@@@@@@@@@@@@%%%%@@@@@@@@....",
"    ....%%%%%%%%........@@@@........@@@@@@@@@@@@%%%%@@@@@@@@....",
"    ....%%%%%%%%........@@@@........@@@@@@@@@@@@%%%%@@@@@@@@....",
"    ....%%%%....@@@@@@@@@@@@@@@@@@@@....%%%%%%%%%%%%....@@@@....",
"    ....%%%%....@@@@@@@@@@@@@@@@@@@@....%%%%%%%%%%%%....@@@@....",
"    ....%%%%....@@@@@@@@@@@@@@@@@@@@....%%%%%%%%%%%%....@@@@....",
"    ....%%%%....@@@@@@@@@@@@@@@@@@@@....%%%%%%%%%%%%....@@@@....",
"        ....%%%%%%%%@@@@@@@@@@@@%%%%%%%%....%%%%%%%%........    ",
"        ....%%%%%%%%@@@@@@@@@@@@%%%%%%%%....%%%%%%%%........    ",
"        ....%%%%%%%%@@@@@@@@@@@@%%%%%%%%....%%%%%%%%........    ",
"        ....%%%%%%%%@@@@@@@@@@@@%%%%%%%%....%%%%%%%%........    ",
"        ....%%%%%%%%%%%%%%%%%%%%%%%%%%%%....%%%%........        ",
"        ....%%%%%%%%%%%%%%%%%%%%%%%%%%%%....%%%%........        ",
"        ....%%%%%%%%%%%%%%%%%%%%%%%%%%%%....%%%%........        ",
"        ....%%%%%%%%%%%%%%%%%%%%%%%%%%%%....%%%%........        ",
"        ....%%%%%%%%%%%%%%%%%%%%%%%%%%%%............&&&&....    ",
"        ....%%%%%%%%%%%%%%%%%%%%%%%%%%%%............&&&&....    ",
"        ....%%%%%%%%%%%%%%%%%%%%%%%%%%%%............&&&&....    ",
"        ....%%%%%%%%%%%%%%%%%%%%%%%%%%%%............&&&&....    ",
"        ........%%%%%%%%%%%%%%%%%%%%....&&&&&&&&####&&&&....    ",
"        ........%%%%%%%%%%%%%%%%%%%%....&&&&&&&&####&&&&....    ",
"        ........%%%%%%%%%%%%%%%%%%%%....&&&&&&&&####&&&&....    ",
"        ........%%%%%%%%%%%%%%%%%%%%....&&&&&&&&####&&&&....    ",
"    ....********============########============........        ",
"    ....********============########============........        ",
"    ....********============########============........        ",
"    ....********============########============........        ",
"    ....********........------------------------....            ",
"    ....********........------------------------....            ",
"    ....********........------------------------....            ",
"    ....********........------------------------....            ",
"        ........        ........------------&&&&....            ",
"        ........        ........------------&&&&....            ",
"        ........        ........------------&&&&....            ",
"        ........        ........------------&&&&....            ",
"                                ....&&&&&&&&....                ",
"                                ....&&&&&&&&....                ",
"                                ....&&&&&&&&....                ",
"                                ....&&&&&&&&....                "};
