/* XPM */
static char *cow_front1[] = {
/* columns rows colors chars-per-pixel */
"64 64 7 1 ",
"  c #141B1B",
". c #4E484A",
"X c #5F7160",
"o c #F2AD7D",
"O c #D3A2C0",
"+ c #F2EAF1",
"@ c None",
/* pixels */
"@@@@@@@@@@@@@@@@@@@@@@@@@@@@@@@@@@@@@@@@@@@@@@@@@@@@@@@@@@@@@@@@",
"@@@@@@@@@@@@@@@@@@@@@@@@@@@@@@@@@@@@@@@@@@@@@@@@@@@@@@@@@@@@@@@@",
"@@@@@@@@@@@@@@@@@@@@@@@@@@@@@@@@@@@@@@@@@@@@@@@@@@@@@@@@@@@@@@@@",
"@@@@@@@@@@@@@@@@@@@@@@@@@@@@@@@@@@@@@@@@@@@@@@@@@@@@@@@@@@@@@@@@",
"@@@@@@@@@@@@@@@@@@@@                        @@@@@@@@@@@@@@@@@@@@",
"@@@@@@@@@@@@@@@@@@@@                        @@@@@@@@@@@@@@@@@@@@",
"@@@@@@@@@@@@@@@@@@@@                        @@@@@@@@@@@@@@@@@@@@",
"@@@@@@@@@@@@@@@@@@@@                        @@@@@@@@@@@@@@@@@@@@",
"@@@@@@@@@@@@        XXXX++++++++++++++++++++        @@@@@@@@@@@@",
"@@@@@@@@@@@@        XXXX++++++++++++++++++++        @@@@@@@@@@@@",
"@@@@@@@@@@@@        XXXX++++++++++++++++++++        @@@@@@@@@@@@",
"@@@@@@@@@@@@        XXXX++++++++++++++++++++        @@@@@@@@@@@@",
"@@@@        XXXXXXXX    ++++++++++++++++    ++++++++        @@@@",
"@@@@        XXXXXXXX    ++++++++++++++++    ++++++++        @@@@",
"@@@@        XXXXXXXX    ++++++++++++++++    ++++++++        @@@@",
"@@@@        XXXXXXXX    ++++++++++++++++    ++++++++        @@@@",
"    ++++++++        oooo                oooo        XXXXXXXX    ",
"    ++++++++        oooo                oooo        XXXXXXXX    ",
"    ++++++++        oooo                oooo        XXXXXXXX    ",
"    ++++++++        oooo                oooo        XXXXXXXX    ",
"    ++++++++++++++++oooo++++++++++++++++oooo++++XXXXXXXXXXXX    ",
"    ++++++++++++++++oooo++++++++++++++++oooo++++XXXXXXXXXXXX    ",
"    ++++++++++++++++oooo++++++++++++++++oooo++++XXXXXXXXXXXX    ",
"    ++++++++++++++++oooo++++++++++++++++oooo++++XXXXXXXXXXXX    ",
"        ++++OOOO++++++++++++++++++++++++++++++++....XXXX        ",
"        ++++OOOO++++++++++++++++++++++++++++++++....XXXX        ",
"        ++++OOOO++++++++++++++++++++++++++++++++....XXXX        ",
"        ++++OOOO++++++++++++++++++++++++++++++++....XXXX        ",
"    XXXX    ++++++++++++    ++++++++    ++++++++++++    ++++    ",
"    XXXX    ++++++++++++    ++++++++    ++++++++++++    ++++    ",
"    XXXX    ++++++++++++    ++++++++    ++++++++++++    ++++    ",
"    XXXX    ++++++++++++    ++++++++    ++++++++++++    ++++    ",
"    XXXX    ++++++++++++    ++++++++    ++++++++++++    ++++    ",
"    XXXX    ++++++++++++    ++++++++    ++++++++++++    ++++    ",
"    XXXX    ++++++++++++    ++++++++    ++++++++++++    ++++    ",
"    XXXX    ++++++++++++    ++++++++    ++++++++++++    ++++    ",
"    ++++    ++++++++++++++++++++++++++++++++++++++++    ++++    ",
"    ++++    ++++++++++++++++++++++++++++++++++++++++    ++++    ",
"    ++++    ++++++++++++++++++++++++++++++++++++++++    ++++    ",
"    ++++    ++++++++++++++++++++++++++++++++++++++++    ++++    ",
"    ++++OOOO++++++++oooooooooooooooooooooooo++++++++OOOO++++    ",
"    ++++OOOO++++++++oooooooooooooooooooooooo++++++++OOOO++++    ",
"    ++++OOOO++++++++oooooooooooooooooooooooo++++++++OOOO++++    ",
"    ++++OOOO++++++++oooooooooooooooooooooooo++++++++OOOO++++    ",
"@@@@    OOOO    oooooooo    oooooooo    oooooooo    OOOO    @@@@",
"@@@@    OOOO    oooooooo    oooooooo    oooooooo    OOOO    @@@@",
"@@@@    OOOO    oooooooo    oooooooo    oooooooo    OOOO    @@@@",
"@@@@    OOOO    oooooooo    oooooooo    oooooooo    OOOO    @@@@",
"@@@@    OOOO    oooooooooooooooooooooooooooooooo    OOOO    @@@@",
"@@@@    OOOO    oooooooooooooooooooooooooooooooo    OOOO    @@@@",
"@@@@    OOOO    oooooooooooooooooooooooooooooooo    OOOO    @@@@",
"@@@@    OOOO    oooooooooooooooooooooooooooooooo    OOOO    @@@@",
"@@@@@@@@    OOOO                                OOOO    @@@@@@@@",
"@@@@@@@@    OOOO                                OOOO    @@@@@@@@",
"@@@@@@@@    OOOO                                OOOO    @@@@@@@@",
"@@@@@@@@    OOOO                                OOOO    @@@@@@@@",
"@@@@@@@@@@@@    OOOOOOOOOOOOOOOOOOOOOOOOOOOOOOOO    @@@@@@@@@@@@",
"@@@@@@@@@@@@    OOOOOOOOOOOOOOOOOOOOOOOOOOOOOOOO    @@@@@@@@@@@@",
"@@@@@@@@@@@@    OOOOOOOOOOOOOOOOOOOOOOOOOOOOOOOO    @@@@@@@@@@@@",
"@@@@@@@@@@@@    OOOOOOOOOOOOOOOOOOOOOOOOOOOOOOOO    @@@@@@@@@@@@",
"@@@@@@@@@@@@@@@@                                @@@@@@@@@@@@@@@@",
"@@@@@@@@@@@@@@@@                                @@@@@@@@@@@@@@@@",
"@@@@@@@@@@@@@@@@                                @@@@@@@@@@@@@@@@",
"@@@@@@@@@@@@@@@@                                @@@@@@@@@@@@@@@@"
};
