/* XPM */
static char *fire8[] = {
/* columns rows colors chars-per-pixel */
"32 48 4 1 ",
"  c #E46D3A",
". c #FF9554",
"X c #FFE18D",
"o c None",
/* pixels */
"oooooooooooooooooooooooooooooooo",
"oooooooooooooooooooooooooooooooo",
"oooooooooooooooooooooooooooooooo",
"oooooooooooooooooooooooooooooooo",
"oooooooooooooooooooooooooooooooo",
"oooooooooooooooooooooooooooooooo",
"oooooooooooooooooooooooooooooooo",
"oooooooooooooooooooooooooooooooo",
"oooooooooooooooooooooooooooooooo",
"oooooooooooooooooooooooooooooooo",
"oooooooooooooooooooooooooooooooo",
"oooooooooooooooooooooooooooooooo",
"oooooooooooooooooooooooooooooooo",
"oooooooooooooooooooooooooooooooo",
"oooooooooooooooooooooooooooooooo",
"oooooooooooooooooooooooooooooooo",
"oooooooo        oooooooooooooooo",
"oooooooo        oooooooooooooooo",
"oooooooo        oooooooooooooooo",
"oooooooo        oooooooooooooooo",
"oooooooooooo        oooooooooooo",
"oooooooooooo        oooooooooooo",
"oooooooooooo        oooooooooooo",
"oooooooooooo        oooooooooooo",
"oooooooo                oooooooo",
"oooooooo                oooooooo",
"oooooooo                oooooooo",
"oooooooo                oooooooo",
"oooo        ........    oooooooo",
"oooo        ........    oooooooo",
"oooo        ........    oooooooo",
"oooo        ........    oooooooo",
"oooo........XXXX........oooooooo",
"oooo........XXXX........oooooooo",
"oooo........XXXX........oooooooo",
"oooo........XXXX........oooooooo",
"oooo....XXXXXXXXXXXX....oooooooo",
"oooo....XXXXXXXXXXXX....oooooooo",
"oooo....XXXXXXXXXXXX....oooooooo",
"oooo....XXXXXXXXXXXX....oooooooo",
"oooo........XXXX........oooooooo",
"oooo........XXXX........oooooooo",
"oooo........XXXX........oooooooo",
"oooo........XXXX........oooooooo",
"oooooooo............oooooooooooo",
"oooooooo............oooooooooooo",
"oooooooo............oooooooooooo",
"oooooooo............oooooooooooo"
};
