/* XPM */
static char * fire2__xpm[] = {
"64 64 7 1",
" 	c #ADBC3A",
".	c #141B1B",
"+	c #E46D3A",
"@	c #A8A129",
"#	c #965746",
"$	c #FF9554",
"%	c #FFE18D",
"                                                                ",
"                                                                ",
"                                                                ",
"                                                                ",
"                        ............                            ",
"                        ............                            ",
"                        ............                            ",
"                        ............                            ",
"                    ....++++++++++++....                        ",
"                    ....++++++++++++....                        ",
"                    ....++++++++++++....                        ",
"                    ....++++++++++++....                        ",
"                    ....++++++++++++....@@@@................    ",
"                    ....++++++++++++....@@@@................    ",
"                    ....++++++++++++....@@@@................    ",
"                    ....++++++++++++....@@@@................    ",
"................    ....++++++++++++............####++++....    ",
"................    ....++++++++++++............####++++....    ",
"................    ....++++++++++++............####++++....    ",
"................    ....++++++++++++............####++++....    ",
"....++++++++++++........++++++++++++....####++++++++++++        ",
"....++++++++++++........++++++++++++....####++++++++++++        ",
"....++++++++++++........++++++++++++....####++++++++++++        ",
"....++++++++++++........++++++++++++....####++++++++++++        ",
"....++++++++++++++++++++++++++++++++####++++++++++++            ",
"....++++++++++++++++++++++++++++++++####++++++++++++            ",
"....++++++++++++++++++++++++++++++++####++++++++++++            ",
"....++++++++++++++++++++++++++++++++####++++++++++++            ",
"....########++++++++++++++++$$$$$$$$++++++++++++............    ",
"....########++++++++++++++++$$$$$$$$++++++++++++............    ",
"....########++++++++++++++++$$$$$$$$++++++++++++............    ",
"....########++++++++++++++++$$$$$$$$++++++++++++............    ",
"            ........++++$$$$$$$$$$$$$$$$++++####++++++++....    ",
"            ........++++$$$$$$$$$$$$$$$$++++####++++++++....    ",
"            ........++++$$$$$$$$$$$$$$$$++++####++++++++....    ",
"            ........++++$$$$$$$$$$$$$$$$++++####++++++++....    ",
"....++++++++++++++++$$$$$$$$$$$$$$$$$$$$++++++++++++++++....    ",
"....++++++++++++++++$$$$$$$$$$$$$$$$$$$$++++++++++++++++....    ",
"....++++++++++++++++$$$$$$$$$$$$$$$$$$$$++++++++++++++++....    ",
"....++++++++++++++++$$$$$$$$$$$$$$$$$$$$++++++++++++++++....    ",
"....++++++++++++$$$$$$$$%%%%%%%%$$$$$$$$$$$$############....    ",
"....++++++++++++$$$$$$$$%%%%%%%%$$$$$$$$$$$$############....    ",
"....++++++++++++$$$$$$$$%%%%%%%%$$$$$$$$$$$$############....    ",
"....++++++++++++$$$$$$$$%%%%%%%%$$$$$$$$$$$$############....    ",
"....############$$$$%%%%%%%%%%%%%%%%$$$$$$$$++++....            ",
"....############$$$$%%%%%%%%%%%%%%%%$$$$$$$$++++....            ",
"....############$$$$%%%%%%%%%%%%%%%%$$$$$$$$++++....            ",
"....############$$$$%%%%%%%%%%%%%%%%$$$$$$$$++++....            ",
"            ....++++$$$$%%%%%%%%$$$$$$$$++++++++++++....        ",
"            ....++++$$$$%%%%%%%%$$$$$$$$++++++++++++....        ",
"            ....++++$$$$%%%%%%%%$$$$$$$$++++++++++++....        ",
"            ....++++$$$$%%%%%%%%$$$$$$$$++++++++++++....        ",
"            ....++++++++$$$$$$$$$$$$    ++++++++++++++++....    ",
"            ....++++++++$$$$$$$$$$$$    ++++++++++++++++....    ",
"            ....++++++++$$$$$$$$$$$$    ++++++++++++++++....    ",
"            ....++++++++$$$$$$$$$$$$    ++++++++++++++++....    ",
"            ....++++++++####                ++++++++++++....    ",
"            ....++++++++####                ++++++++++++....    ",
"            ....++++++++####                ++++++++++++....    ",
"            ....++++++++####                ++++++++++++....    ",
"                                                                ",
"                                                                ",
"                                                                ",
"                                                                "};
