/* XPM */
static char *firewood[] = {
/* columns rows colors chars-per-pixel */
"64 64 4 1 ",
"  c #141B1B",
". c #E46D3A",
"X c #965746",
"o c None",
/* pixels */
"oooooooooooooooooooooooooooooooooooooooooooooooooooooooooooooooo",
"oooooooooooooooooooooooooooooooooooooooooooooooooooooooooooooooo",
"oooooooooooooooooooooooooooooooooooooooooooooooooooooooooooooooo",
"oooooooooooooooooooooooooooooooooooooooooooooooooooooooooooooooo",
"oooooooooooooooooooooooo            oooooooooooooooooooooooooooo",
"oooooooooooooooooooooooo            oooooooooooooooooooooooooooo",
"oooooooooooooooooooooooo            oooooooooooooooooooooooooooo",
"oooooooooooooooooooooooo            oooooooooooooooooooooooooooo",
"oooooooooooooooooooo    ............    oooooooooooooooooooooooo",
"oooooooooooooooooooo    ............    oooooooooooooooooooooooo",
"oooooooooooooooooooo    ............    oooooooooooooooooooooooo",
"oooooooooooooooooooo    ............    oooooooooooooooooooooooo",
"oooooooooooooooooooo    ............    oooo                oooo",
"oooooooooooooooooooo    ............    oooo                oooo",
"oooooooooooooooooooo    ............    oooo                oooo",
"oooooooooooooooooooo    ............    oooo                oooo",
"                oooo    ............            XXXX....    oooo",
"                oooo    ............            XXXX....    oooo",
"                oooo    ............            XXXX....    oooo",
"                oooo    ............            XXXX....    oooo",
"    ............        XXXX........    XXXX............oooooooo",
"    ............        XXXX........    XXXX............oooooooo",
"    ............        XXXX........    XXXX............oooooooo",
"    ............        XXXX........    XXXX............oooooooo",
"    ........................XXXXXXXXXXXX............oooooooooooo",
"    ........................XXXXXXXXXXXX............oooooooooooo",
"    ........................XXXXXXXXXXXX............oooooooooooo",
"    ........................XXXXXXXXXXXX............oooooooooooo",
"    XXXXXXXX................XXXXXXXX............            oooo",
"    XXXXXXXX................XXXXXXXX............            oooo",
"    XXXXXXXX................XXXXXXXX............            oooo",
"    XXXXXXXX................XXXXXXXX............            oooo",
"oooooooooooo        XXXXXXXXXXXX............XXXX........    oooo",
"oooooooooooo        XXXXXXXXXXXX............XXXX........    oooo",
"oooooooooooo        XXXXXXXXXXXX............XXXX........    oooo",
"oooooooooooo        XXXXXXXXXXXX............XXXX........    oooo",
"    ....................XXXX............XXXX............    oooo",
"    ....................XXXX............XXXX............    oooo",
"    ....................XXXX............XXXX............    oooo",
"    ....................XXXX............XXXX............    oooo",
"    ................    ............XXXXXXXXXXXXXXXXXXXX    oooo",
"    ................    ............XXXXXXXXXXXXXXXXXXXX    oooo",
"    ................    ............XXXXXXXXXXXXXXXXXXXX    oooo",
"    ................    ............XXXXXXXXXXXXXXXXXXXX    oooo",
"    XXXXXXXXXXXX    ............XXXX............    oooooooooooo",
"    XXXXXXXXXXXX    ............XXXX............    oooooooooooo",
"    XXXXXXXXXXXX    ............XXXX............    oooooooooooo",
"    XXXXXXXXXXXX    ............XXXX............    oooooooooooo",
"oooooooooooo    ............XXXX    ................    oooooooo",
"oooooooooooo    ............XXXX    ................    oooooooo",
"oooooooooooo    ............XXXX    ................    oooooooo",
"oooooooooooo    ............XXXX    ................    oooooooo",
"oooooooooooo    ............XXXXoooooooo................    oooo",
"oooooooooooo    ............XXXXoooooooo................    oooo",
"oooooooooooo    ............XXXXoooooooo................    oooo",
"oooooooooooo    ............XXXXoooooooo................    oooo",
"oooooooooooo    ........XXXXoooooooooooooooo............    oooo",
"oooooooooooo    ........XXXXoooooooooooooooo............    oooo",
"oooooooooooo    ........XXXXoooooooooooooooo............    oooo",
"oooooooooooo    ........XXXXoooooooooooooooo............    oooo",
"oooooooooooooooooooooooooooooooooooooooooooooooooooooooooooooooo",
"oooooooooooooooooooooooooooooooooooooooooooooooooooooooooooooooo",
"oooooooooooooooooooooooooooooooooooooooooooooooooooooooooooooooo",
"oooooooooooooooooooooooooooooooooooooooooooooooooooooooooooooooo"
};
