/* XPM */
static char *fire9[] = {
/* columns rows colors chars-per-pixel */
"32 48 4 1 ",
"  c #E46D3A",
". c #FF9554",
"X c #FFE18D",
"o c None",
/* pixels */
"oooooooooooooooooooooooooooooooo",
"oooooooooooooooooooooooooooooooo",
"oooooooooooooooooooooooooooooooo",
"oooooooooooooooooooooooooooooooo",
"oooooooooooooooooooooooooooooooo",
"oooooooooooooooooooooooooooooooo",
"oooooooooooooooooooooooooooooooo",
"oooooooooooooooooooooooooooooooo",
"oooooooooooooooooooooooooooooooo",
"oooooooooooooooooooooooooooooooo",
"oooooooooooooooooooooooooooooooo",
"oooooooooooooooooooooooooooooooo",
"oooooooooooooooooooooooooooooooo",
"oooooooooooooooooooooooooooooooo",
"oooooooooooooooooooooooooooooooo",
"oooooooooooooooooooooooooooooooo",
"oooooooooooooooooooooooooooooooo",
"oooooooooooooooooooooooooooooooo",
"oooooooooooooooooooooooooooooooo",
"oooooooooooooooooooooooooooooooo",
"oooooooo            oooooooooooo",
"oooooooo            oooooooooooo",
"oooooooo            oooooooooooo",
"oooooooo            oooooooooooo",
"oooooooooooo            oooooooo",
"oooooooooooo            oooooooo",
"oooooooooooo            oooooooo",
"oooooooooooo            oooooooo",
"oooooooo    ........    oooooooo",
"oooooooo    ........    oooooooo",
"oooooooo    ........    oooooooo",
"oooooooo    ........    oooooooo",
"oooo    ................oooooooo",
"oooo    ................oooooooo",
"oooo    ................oooooooo",
"oooo    ................oooooooo",
"oooo........XXXX........oooooooo",
"oooo........XXXX........oooooooo",
"oooo........XXXX........oooooooo",
"oooo........XXXX........oooooooo",
"oooooooo............oooooooooooo",
"oooooooo............oooooooooooo",
"oooooooo............oooooooooooo",
"oooooooo............oooooooooooo",
"oooooooooooooooooooooooooooooooo",
"oooooooooooooooooooooooooooooooo",
"oooooooooooooooooooooooooooooooo",
"oooooooooooooooooooooooooooooooo"
};
