/* XPM */
static char *fire1[] = {
/* columns rows colors chars-per-pixel */
"32 48 3 1 ",
"  c #FF9554",
". c #FFE18D",
"X c None",
/* pixels */
"XXXXXXXXXXXXXXXXXXXXXXXXXXXXXXXX",
"XXXXXXXXXXXXXXXXXXXXXXXXXXXXXXXX",
"XXXXXXXXXXXXXXXXXXXXXXXXXXXXXXXX",
"XXXXXXXXXXXXXXXXXXXXXXXXXXXXXXXX",
"XXXXXXXXXXXXXXXXXXXXXXXXXXXXXXXX",
"XXXXXXXXXXXXXXXXXXXXXXXXXXXXXXXX",
"XXXXXXXXXXXXXXXXXXXXXXXXXXXXXXXX",
"XXXXXXXXXXXXXXXXXXXXXXXXXXXXXXXX",
"XXXXXXXXXXXXXXXXXXXXXXXXXXXXXXXX",
"XXXXXXXXXXXXXXXXXXXXXXXXXXXXXXXX",
"XXXXXXXXXXXXXXXXXXXXXXXXXXXXXXXX",
"XXXXXXXXXXXXXXXXXXXXXXXXXXXXXXXX",
"XXXXXXXXXXXX    XXXXXXXXXXXXXXXX",
"XXXXXXXXXXXX    XXXXXXXXXXXXXXXX",
"XXXXXXXXXXXX    XXXXXXXXXXXXXXXX",
"XXXXXXXXXXXX    XXXXXXXXXXXXXXXX",
"XXXXXXXX    ....    XXXXXXXXXXXX",
"XXXXXXXX    ....    XXXXXXXXXXXX",
"XXXXXXXX    ....    XXXXXXXXXXXX",
"XXXXXXXX    ....    XXXXXXXXXXXX",
"XXXX    ............    XXXXXXXX",
"XXXX    ............    XXXXXXXX",
"XXXX    ............    XXXXXXXX",
"XXXX    ............    XXXXXXXX",
"XXXX    ............    XXXXXXXX",
"XXXX    ............    XXXXXXXX",
"XXXX    ............    XXXXXXXX",
"XXXX    ............    XXXXXXXX",
"    ....................    XXXX",
"    ....................    XXXX",
"    ....................    XXXX",
"    ....................    XXXX",
"    ....................    XXXX",
"    ....................    XXXX",
"    ....................    XXXX",
"    ....................    XXXX",
"        ............        XXXX",
"        ............        XXXX",
"        ............        XXXX",
"        ............        XXXX",
"XXXX                    XXXXXXXX",
"XXXX                    XXXXXXXX",
"XXXX                    XXXXXXXX",
"XXXX                    XXXXXXXX",
"XXXXXXXX            XXXXXXXXXXXX",
"XXXXXXXX            XXXXXXXXXXXX",
"XXXXXXXX            XXXXXXXXXXXX",
"XXXXXXXX            XXXXXXXXXXXX"
};
