/* XPM */
static char *fire7[] = {
/* columns rows colors chars-per-pixel */
"32 48 4 1 ",
"  c #E46D3A",
". c #FF9554",
"X c #FFE18D",
"o c None",
/* pixels */
"oooooooooooooooooooooooooooooooo",
"oooooooooooooooooooooooooooooooo",
"oooooooooooooooooooooooooooooooo",
"oooooooooooooooooooooooooooooooo",
"oooooooooooooooooooooooooooooooo",
"oooooooooooooooooooooooooooooooo",
"oooooooooooooooooooooooooooooooo",
"oooooooooooooooooooooooooooooooo",
"oooooooooooooooooooooooooooooooo",
"oooooooooooooooooooooooooooooooo",
"oooooooooooooooooooooooooooooooo",
"oooooooooooooooooooooooooooooooo",
"oooooooo            oooooooooooo",
"oooooooo            oooooooooooo",
"oooooooo            oooooooooooo",
"oooooooo            oooooooooooo",
"oooooooooooo            oooooooo",
"oooooooooooo            oooooooo",
"oooooooooooo            oooooooo",
"oooooooooooo            oooooooo",
"oooo                    oooooooo",
"oooo                    oooooooo",
"oooo                    oooooooo",
"oooo                    oooooooo",
"            ........    oooooooo",
"            ........    oooooooo",
"            ........    oooooooo",
"            ........    oooooooo",
"    ................    oooooooo",
"    ................    oooooooo",
"    ................    oooooooo",
"    ................    oooooooo",
"........XXXXXXXX........oooooooo",
"........XXXXXXXX........oooooooo",
"........XXXXXXXX........oooooooo",
"........XXXXXXXX........oooooooo",
"....XXXXXXXXXXXXXXXX....oooooooo",
"....XXXXXXXXXXXXXXXX....oooooooo",
"....XXXXXXXXXXXXXXXX....oooooooo",
"....XXXXXXXXXXXXXXXX....oooooooo",
"oooo....XXXXXXXX........oooooooo",
"oooo....XXXXXXXX........oooooooo",
"oooo....XXXXXXXX........oooooooo",
"oooo....XXXXXXXX........oooooooo",
"oooooooo............oooooooooooo",
"oooooooo............oooooooooooo",
"oooooooo............oooooooooooo",
"oooooooo............oooooooooooo"
};
