/* XPM */
static char *food0[] = {
/* columns rows colors chars-per-pixel */
"64 64 9 1 ",
"  c #664137",
". c #7D7263",
"X c #8D4D3C",
"o c #D26649",
"O c #A9967D",
"+ c #D48C79",
"@ c #FCA76F",
"# c #FFEF96",
"$ c None",
/* pixels */
"$$$$$$$$$$$$$$$$$$$$$$$$$$$$$$$$$$$$$$$$$$$$$$$$$$$$$$$$$$$$$$$$",
"$$$$$$$$$$$$$$$$$$$$$$$$$$$$$$$$$$$$$$$$$$$$$$$$$$$$$$$$$$$$$$$$",
"$$$$$$$$$$$$$$$$$$$$$$$$$$$$$$$$$$$$$$$$$$$$$$$$$$$$$$$$$$$$$$$$",
"$$$$$$$$$$$$$$$$$$$$$$$$$$$$$$$$$$$$$$$$$$$$$$$$$$$$$$$$$$$$$$$$",
"$$$$OOOOOOOO....$$$$                $$$$$$$$$$$$$$$$$$$$$$$$$$$$",
"$$$$OOOOOOOO....$$$$                $$$$$$$$$$$$$$$$$$$$$$$$$$$$",
"$$$$OOOOOOOO....$$$$                $$$$$$$$$$$$$$$$$$$$$$$$$$$$",
"$$$$OOOOOOOO....$$$$                $$$$$$$$$$$$$$$$$$$$$$$$$$$$",
"$$$$OOOO####        oooooooooooooooo    $$$$$$$$$$$$$$$$$$$$$$$$",
"$$$$OOOO####        oooooooooooooooo    $$$$$$$$$$$$$$$$$$$$$$$$",
"$$$$OOOO####        oooooooooooooooo    $$$$$$$$$$$$$$$$$$$$$$$$",
"$$$$OOOO####        oooooooooooooooo    $$$$$$$$$$$$$$$$$$$$$$$$",
"$$$$....    @@@@@@@@++++++++++++ooooXXXX    $$$$$$$$$$$$$$$$$$$$",
"$$$$....    @@@@@@@@++++++++++++ooooXXXX    $$$$$$$$$$$$$$$$$$$$",
"$$$$....    @@@@@@@@++++++++++++ooooXXXX    $$$$$$$$$$$$$$$$$$$$",
"$$$$....    @@@@@@@@++++++++++++ooooXXXX    $$$$$$$$$$$$$$$$$$$$",
"$$$$$$$$    ++++@@@@++++++++ooooooooXXXX    $$$$$$$$$$$$$$$$$$$$",
"$$$$$$$$    ++++@@@@++++++++ooooooooXXXX    $$$$$$$$$$$$$$$$$$$$",
"$$$$$$$$    ++++@@@@++++++++ooooooooXXXX    $$$$$$$$$$$$$$$$$$$$",
"$$$$$$$$    ++++@@@@++++++++ooooooooXXXX    $$$$$$$$$$$$$$$$$$$$",
"$$$$    oooo++++@@@@@@@@++++ooooooooooooXXXX    $$$$$$$$$$$$$$$$",
"$$$$    oooo++++@@@@@@@@++++ooooooooooooXXXX    $$$$$$$$$$$$$$$$",
"$$$$    oooo++++@@@@@@@@++++ooooooooooooXXXX    $$$$$$$$$$$$$$$$",
"$$$$    oooo++++@@@@@@@@++++ooooooooooooXXXX    $$$$$$$$$$$$$$$$",
"$$$$    oooooooo++++@@@@++++++++ooooooooooooXXXX        $$$$$$$$",
"$$$$    oooooooo++++@@@@++++++++ooooooooooooXXXX        $$$$$$$$",
"$$$$    oooooooo++++@@@@++++++++ooooooooooooXXXX        $$$$$$$$",
"$$$$    oooooooo++++@@@@++++++++ooooooooooooXXXX        $$$$$$$$",
"$$$$    XXXXoooo++++++++++++++++oooooooo++++oooooooooooo    $$$$",
"$$$$    XXXXoooo++++++++++++++++oooooooo++++oooooooooooo    $$$$",
"$$$$    XXXXoooo++++++++++++++++oooooooo++++oooooooooooo    $$$$",
"$$$$    XXXXoooo++++++++++++++++oooooooo++++oooooooooooo    $$$$",
"$$$$$$$$    XXXXXXXXoooo++++++++@@@@@@@@@@@@++++oooooooo    $$$$",
"$$$$$$$$    XXXXXXXXoooo++++++++@@@@@@@@@@@@++++oooooooo    $$$$",
"$$$$$$$$    XXXXXXXXoooo++++++++@@@@@@@@@@@@++++oooooooo    $$$$",
"$$$$$$$$    XXXXXXXXoooo++++++++@@@@@@@@@@@@++++oooooooo    $$$$",
"$$$$$$$$$$$$        oooooooo++++++++@@@@@@@@++++++++oooo    $$$$",
"$$$$$$$$$$$$        oooooooo++++++++@@@@@@@@++++++++oooo    $$$$",
"$$$$$$$$$$$$        oooooooo++++++++@@@@@@@@++++++++oooo    $$$$",
"$$$$$$$$$$$$        oooooooo++++++++@@@@@@@@++++++++oooo    $$$$",
"$$$$$$$$$$$$$$$$$$$$    XXXXoooooooo++++oooooooo        $$$$$$$$",
"$$$$$$$$$$$$$$$$$$$$    XXXXoooooooo++++oooooooo        $$$$$$$$",
"$$$$$$$$$$$$$$$$$$$$    XXXXoooooooo++++oooooooo        $$$$$$$$",
"$$$$$$$$$$$$$$$$$$$$    XXXXoooooooo++++oooooooo        $$$$$$$$",
"$$$$$$$$$$$$$$$$$$$$$$$$    XXXXoooooooooooo    ####OOOO....$$$$",
"$$$$$$$$$$$$$$$$$$$$$$$$    XXXXoooooooooooo    ####OOOO....$$$$",
"$$$$$$$$$$$$$$$$$$$$$$$$    XXXXoooooooooooo    ####OOOO....$$$$",
"$$$$$$$$$$$$$$$$$$$$$$$$    XXXXoooooooooooo    ####OOOO....$$$$",
"$$$$$$$$$$$$$$$$$$$$$$$$    XXXXXXXXXXXXXXXX    ########OOOO$$$$",
"$$$$$$$$$$$$$$$$$$$$$$$$    XXXXXXXXXXXXXXXX    ########OOOO$$$$",
"$$$$$$$$$$$$$$$$$$$$$$$$    XXXXXXXXXXXXXXXX    ########OOOO$$$$",
"$$$$$$$$$$$$$$$$$$$$$$$$    XXXXXXXXXXXXXXXX    ########OOOO$$$$",
"$$$$$$$$$$$$$$$$$$$$$$$$$$$$                ....OOOO####OOOO$$$$",
"$$$$$$$$$$$$$$$$$$$$$$$$$$$$                ....OOOO####OOOO$$$$",
"$$$$$$$$$$$$$$$$$$$$$$$$$$$$                ....OOOO####OOOO$$$$",
"$$$$$$$$$$$$$$$$$$$$$$$$$$$$                ....OOOO####OOOO$$$$",
"$$$$$$$$$$$$$$$$$$$$$$$$$$$$$$$$$$$$$$$$$$$$$$$$....OOOO....$$$$",
"$$$$$$$$$$$$$$$$$$$$$$$$$$$$$$$$$$$$$$$$$$$$$$$$....OOOO....$$$$",
"$$$$$$$$$$$$$$$$$$$$$$$$$$$$$$$$$$$$$$$$$$$$$$$$....OOOO....$$$$",
"$$$$$$$$$$$$$$$$$$$$$$$$$$$$$$$$$$$$$$$$$$$$$$$$....OOOO....$$$$",
"$$$$$$$$$$$$$$$$$$$$$$$$$$$$$$$$$$$$$$$$$$$$$$$$$$$$$$$$$$$$$$$$",
"$$$$$$$$$$$$$$$$$$$$$$$$$$$$$$$$$$$$$$$$$$$$$$$$$$$$$$$$$$$$$$$$",
"$$$$$$$$$$$$$$$$$$$$$$$$$$$$$$$$$$$$$$$$$$$$$$$$$$$$$$$$$$$$$$$$",
"$$$$$$$$$$$$$$$$$$$$$$$$$$$$$$$$$$$$$$$$$$$$$$$$$$$$$$$$$$$$$$$$"
};
