/* XPM */
static char *snake_right1[] = {
/* columns rows colors chars-per-pixel */
"64 64 7 1 ",
"  c #141B1B",
". c #E46D3A",
"X c #E0394C",
"o c #8D977F",
"O c #FFAD5D",
"+ c #FCE2CA",
"@ c None",
/* pixels */
"@@@@@@@@@@@@@@@@@@@@@@@@@@@@@@@@@@@@@@@@@@@@@@@@@@@@@@@@@@@@@@@@",
"@@@@@@@@@@@@@@@@@@@@@@@@@@@@@@@@@@@@@@@@@@@@@@@@@@@@@@@@@@@@@@@@",
"@@@@@@@@@@@@@@@@@@@@@@@@@@@@@@@@@@@@@@@@@@@@@@@@@@@@@@@@@@@@@@@@",
"@@@@@@@@@@@@@@@@@@@@@@@@@@@@@@@@@@@@@@@@@@@@@@@@@@@@@@@@@@@@@@@@",
"@@@@@@@@@@@@@@@@@@@@                        @@@@@@@@@@@@@@@@@@@@",
"@@@@@@@@@@@@@@@@@@@@                        @@@@@@@@@@@@@@@@@@@@",
"@@@@@@@@@@@@@@@@@@@@                        @@@@@@@@@@@@@@@@@@@@",
"@@@@@@@@@@@@@@@@@@@@                        @@@@@@@@@@@@@@@@@@@@",
"@@@@@@@@@@@@@@@@    ++++++++++++++++++++++++    @@@@@@@@@@@@@@@@",
"@@@@@@@@@@@@@@@@    ++++++++++++++++++++++++    @@@@@@@@@@@@@@@@",
"@@@@@@@@@@@@@@@@    ++++++++++++++++++++++++    @@@@@@@@@@@@@@@@",
"@@@@@@@@@@@@@@@@    ++++++++++++++++++++++++    @@@@@@@@@@@@@@@@",
"@@@@@@@@@@@@    oooo++++oooooooooooooooooooooooo    @@@@@@@@@@@@",
"@@@@@@@@@@@@    oooo++++oooooooooooooooooooooooo    @@@@@@@@@@@@",
"@@@@@@@@@@@@    oooo++++oooooooooooooooooooooooo    @@@@@@@@@@@@",
"@@@@@@@@@@@@    oooo++++oooooooooooooooooooooooo    @@@@@@@@@@@@",
"@@@@@@@@@@@@    oooo                        oooo    @@@@@@@@@@@@",
"@@@@@@@@@@@@    oooo                        oooo    @@@@@@@@@@@@",
"@@@@@@@@@@@@    oooo                        oooo    @@@@@@@@@@@@",
"@@@@@@@@@@@@    oooo                        oooo    @@@@@@@@@@@@",
"@@@@@@@@    XXXX            XXXXXXXXXXXXXXXXXXXX        @@@@@@@@",
"@@@@@@@@    XXXX            XXXXXXXXXXXXXXXXXXXX        @@@@@@@@",
"@@@@@@@@    XXXX            XXXXXXXXXXXXXXXXXXXX        @@@@@@@@",
"@@@@@@@@    XXXX            XXXXXXXXXXXXXXXXXXXX        @@@@@@@@",
"@@@@@@@@    XXXX    ++++++++    XXXXXXXXXXXXXXXXXXXXXXXX    @@@@",
"@@@@@@@@    XXXX    ++++++++    XXXXXXXXXXXXXXXXXXXXXXXX    @@@@",
"@@@@@@@@    XXXX    ++++++++    XXXXXXXXXXXXXXXXXXXXXXXX    @@@@",
"@@@@@@@@    XXXX    ++++++++    XXXXXXXXXXXXXXXXXXXXXXXX    @@@@",
"@@@@@@@@    XXXX    ++++++++++++    XXXXXXXXXXXXXXXXXXXX    @@@@",
"@@@@@@@@    XXXX    ++++++++++++    XXXXXXXXXXXXXXXXXXXX    @@@@",
"@@@@@@@@    XXXX    ++++++++++++    XXXXXXXXXXXXXXXXXXXX    @@@@",
"@@@@@@@@    XXXX    ++++++++++++    XXXXXXXXXXXXXXXXXXXX    @@@@",
"@@@@@@@@    XXXX    ++++++++++++    XXXXXXXXXXXXXXXXXXXX    @@@@",
"@@@@@@@@    XXXX    ++++++++++++    XXXXXXXXXXXXXXXXXXXX    @@@@",
"@@@@@@@@    XXXX    ++++++++++++    XXXXXXXXXXXXXXXXXXXX    @@@@",
"@@@@@@@@    XXXX    ++++++++++++    XXXXXXXXXXXXXXXXXXXX    @@@@",
"@@@@@@@@    XXXXXXXX            XXXXXXXXXXXXXXXXXXXXXXXX    @@@@",
"@@@@@@@@    XXXXXXXX            XXXXXXXXXXXXXXXXXXXXXXXX    @@@@",
"@@@@@@@@    XXXXXXXX            XXXXXXXXXXXXXXXXXXXXXXXX    @@@@",
"@@@@@@@@    XXXXXXXX            XXXXXXXXXXXXXXXXXXXXXXXX    @@@@",
"@@@@@@@@        XXXXXXXXXXXXXXXXXXXXXXXX                    @@@@",
"@@@@@@@@        XXXXXXXXXXXXXXXXXXXXXXXX                    @@@@",
"@@@@@@@@        XXXXXXXXXXXXXXXXXXXXXXXX                    @@@@",
"@@@@@@@@        XXXXXXXXXXXXXXXXXXXXXXXX                    @@@@",
"@@@@@@@@            XXXXXXXXXXXXXXXXOOOOOOOOOOOOOOOO    @@@@@@@@",
"@@@@@@@@            XXXXXXXXXXXXXXXXOOOOOOOOOOOOOOOO    @@@@@@@@",
"@@@@@@@@            XXXXXXXXXXXXXXXXOOOOOOOOOOOOOOOO    @@@@@@@@",
"@@@@@@@@            XXXXXXXXXXXXXXXXOOOOOOOOOOOOOOOO    @@@@@@@@",
"@@@@    XXXX        XXXXXXXX............            @@@@@@@@@@@@",
"@@@@    XXXX        XXXXXXXX............            @@@@@@@@@@@@",
"@@@@    XXXX        XXXXXXXX............            @@@@@@@@@@@@",
"@@@@    XXXX        XXXXXXXX............            @@@@@@@@@@@@",
"@@@@    XXXXXXXXXXXXXXXXOOOO....................    @@@@@@@@@@@@",
"@@@@    XXXXXXXXXXXXXXXXOOOO....................    @@@@@@@@@@@@",
"@@@@    XXXXXXXXXXXXXXXXOOOO....................    @@@@@@@@@@@@",
"@@@@    XXXXXXXXXXXXXXXXOOOO....................    @@@@@@@@@@@@",
"@@@@    XXXXOOOOOOOOOOOO........................    @@@@@@@@@@@@",
"@@@@    XXXXOOOOOOOOOOOO........................    @@@@@@@@@@@@",
"@@@@    XXXXOOOOOOOOOOOO........................    @@@@@@@@@@@@",
"@@@@    XXXXOOOOOOOOOOOO........................    @@@@@@@@@@@@",
"@@@@@@@@    ................................    @@@@@@@@@@@@@@@@",
"@@@@@@@@    ................................    @@@@@@@@@@@@@@@@",
"@@@@@@@@    ................................    @@@@@@@@@@@@@@@@",
"@@@@@@@@    ................................    @@@@@@@@@@@@@@@@"
};
