/* XPM */
static char * snake_right1__xpm[] = {
"64 64 7 1",
" 	c #ADBC3A",
".	c #141B1B",
"+	c #FCE2CA",
"@	c #8D977F",
"#	c #E0394C",
"$	c #FFAD5D",
"%	c #E46D3A",
"                                                                ",
"                                                                ",
"                                                                ",
"                                                                ",
"                    ........................                    ",
"                    ........................                    ",
"                    ........................                    ",
"                    ........................                    ",
"                ....++++++++++++++++++++++++....                ",
"                ....++++++++++++++++++++++++....                ",
"                ....++++++++++++++++++++++++....                ",
"                ....++++++++++++++++++++++++....                ",
"            ....@@@@++++@@@@@@@@@@@@@@@@@@@@@@@@....            ",
"            ....@@@@++++@@@@@@@@@@@@@@@@@@@@@@@@....            ",
"            ....@@@@++++@@@@@@@@@@@@@@@@@@@@@@@@....            ",
"            ....@@@@++++@@@@@@@@@@@@@@@@@@@@@@@@....            ",
"            ....@@@@........................@@@@....            ",
"            ....@@@@........................@@@@....            ",
"            ....@@@@........................@@@@....            ",
"            ....@@@@........................@@@@....            ",
"        ....####............####################........        ",
"        ....####............####################........        ",
"        ....####............####################........        ",
"        ....####............####################........        ",
"        ....####....++++++++....########################....    ",
"        ....####....++++++++....########################....    ",
"        ....####....++++++++....########################....    ",
"        ....####....++++++++....########################....    ",
"        ....####....++++++++++++....####################....    ",
"        ....####....++++++++++++....####################....    ",
"        ....####....++++++++++++....####################....    ",
"        ....####....++++++++++++....####################....    ",
"        ....####....++++++++++++....####################....    ",
"        ....####....++++++++++++....####################....    ",
"        ....####....++++++++++++....####################....    ",
"        ....####....++++++++++++....####################....    ",
"        ....########............########################....    ",
"        ....########............########################....    ",
"        ....########............########################....    ",
"        ....########............########################....    ",
"        ........########################....................    ",
"        ........########################....................    ",
"        ........########################....................    ",
"        ........########################....................    ",
"        ............################$$$$$$$$$$$$$$$$....        ",
"        ............################$$$$$$$$$$$$$$$$....        ",
"        ............################$$$$$$$$$$$$$$$$....        ",
"        ............################$$$$$$$$$$$$$$$$....        ",
"    ....####........########%%%%%%%%%%%%............            ",
"    ....####........########%%%%%%%%%%%%............            ",
"    ....####........########%%%%%%%%%%%%............            ",
"    ....####........########%%%%%%%%%%%%............            ",
"    ....################$$$$%%%%%%%%%%%%%%%%%%%%....            ",
"    ....################$$$$%%%%%%%%%%%%%%%%%%%%....            ",
"    ....################$$$$%%%%%%%%%%%%%%%%%%%%....            ",
"    ....################$$$$%%%%%%%%%%%%%%%%%%%%....            ",
"    ....####$$$$$$$$$$$$%%%%%%%%%%%%%%%%%%%%%%%%....            ",
"    ....####$$$$$$$$$$$$%%%%%%%%%%%%%%%%%%%%%%%%....            ",
"    ....####$$$$$$$$$$$$%%%%%%%%%%%%%%%%%%%%%%%%....            ",
"    ....####$$$$$$$$$$$$%%%%%%%%%%%%%%%%%%%%%%%%....            ",
"        ....%%%%%%%%%%%%%%%%%%%%%%%%%%%%%%%%....                ",
"        ....%%%%%%%%%%%%%%%%%%%%%%%%%%%%%%%%....                ",
"        ....%%%%%%%%%%%%%%%%%%%%%%%%%%%%%%%%....                ",
"        ....%%%%%%%%%%%%%%%%%%%%%%%%%%%%%%%%....                "};
