/* XPM */
static char *tile012a[] = {
/* columns rows colors chars-per-pixel */
"64 64 6 1 ",
"  c #141B1B",
". c #E46D3A",
"X c #965340",
"o c #FFAD5D",
"O c #EECF9B",
"+ c None",
/* pixels */
"++++++++++++++++                                ++++++++++++++++",
"++++++++++++++++                                ++++++++++++++++",
"++++++++++++++++                                ++++++++++++++++",
"++++++++++++++++                                ++++++++++++++++",
"++++++++++++    ....OOOOOOOOoooo....oooooooo....    ++++++++++++",
"++++++++++++    ....OOOOOOOOoooo....oooooooo....    ++++++++++++",
"++++++++++++    ....OOOOOOOOoooo....oooooooo....    ++++++++++++",
"++++++++++++    ....OOOOOOOOoooo....oooooooo....    ++++++++++++",
"++++++++    ........OOOOOOOOoooo....oooooooo........    ++++++++",
"++++++++    ........OOOOOOOOoooo....oooooooo........    ++++++++",
"++++++++    ........OOOOOOOOoooo....oooooooo........    ++++++++",
"++++++++    ........OOOOOOOOoooo....oooooooo........    ++++++++",
"++++    ....oooo....oooooooooooo....oooooooo............    ++++",
"++++    ....oooo....oooooooooooo....oooooooo............    ++++",
"++++    ....oooo....oooooooooooo....oooooooo............    ++++",
"++++    ....oooo....oooooooooooo....oooooooo............    ++++",
"    ....oooooooo....oooooooooooo....oooooooo................    ",
"    ....oooooooo....oooooooooooo....oooooooo................    ",
"    ....oooooooo....oooooooooooo....oooooooo................    ",
"    ....oooooooo....oooooooooooo....oooooooo................    ",
"    ....oooooooo....oooooooooooo....oooooooo................    ",
"    ....oooooooo....oooooooooooo....oooooooo................    ",
"    ....oooooooo....oooooooooooo....oooooooo................    ",
"    ....oooooooo....oooooooooooo....oooooooo................    ",
"    ....oooooooo....oooooooooooo....oooooooo................    ",
"    ....oooooooo....oooooooooooo....oooooooo................    ",
"    ....oooooooo....oooooooooooo....oooooooo................    ",
"    ....oooooooo....oooooooooooo....oooooooo................    ",
"    ....oooooooo....oooooooooooo....oooooooo................    ",
"    ....oooooooo....oooooooooooo....oooooooo................    ",
"    ....oooooooo....oooooooooooo....oooooooo................    ",
"    ....oooooooo....oooooooooooo....oooooooo................    ",
"    ....oooooooo............................................    ",
"    ....oooooooo............................................    ",
"    ....oooooooo............................................    ",
"    ....oooooooo............................................    ",
"    ....oooo....XXXXXXXXXXXXXXXXXXXXXXXXXXXXXXXX............    ",
"    ....oooo....XXXXXXXXXXXXXXXXXXXXXXXXXXXXXXXX............    ",
"    ....oooo....XXXXXXXXXXXXXXXXXXXXXXXXXXXXXXXX............    ",
"    ....oooo....XXXXXXXXXXXXXXXXXXXXXXXXXXXXXXXX............    ",
"    ........XXXXXXXX........................XXXXXXXX........    ",
"    ........XXXXXXXX........................XXXXXXXX........    ",
"    ........XXXXXXXX........................XXXXXXXX........    ",
"    ........XXXXXXXX........................XXXXXXXX........    ",
"++++        XXXX........                ........XXXX        ++++",
"++++        XXXX........                ........XXXX        ++++",
"++++        XXXX........                ........XXXX        ++++",
"++++        XXXX........                ........XXXX        ++++",
"++++++++    ........                        ....XXXX    ++++++++",
"++++++++    ........                        ....XXXX    ++++++++",
"++++++++    ........                        ....XXXX    ++++++++",
"++++++++    ........                        ....XXXX    ++++++++",
"++++++++    ........                        ....XXXX    ++++++++",
"++++++++    ........                        ....XXXX    ++++++++",
"++++++++    ........                        ....XXXX    ++++++++",
"++++++++    ........                        ....XXXX    ++++++++",
"++++++++    ........    XXXXXXXXXXXXXXXX    ....XXXX    ++++++++",
"++++++++    ........    XXXXXXXXXXXXXXXX    ....XXXX    ++++++++",
"++++++++    ........    XXXXXXXXXXXXXXXX    ....XXXX    ++++++++",
"++++++++    ........    XXXXXXXXXXXXXXXX    ....XXXX    ++++++++",
"++++++++++++++++++++++++++++++++++++++++++++++++++++++++++++++++",
"++++++++++++++++++++++++++++++++++++++++++++++++++++++++++++++++",
"++++++++++++++++++++++++++++++++++++++++++++++++++++++++++++++++",
"++++++++++++++++++++++++++++++++++++++++++++++++++++++++++++++++"
};
