/* XPM */
static char *smoke0[] = {
/* columns rows colors chars-per-pixel */
"32 32 3 1 ",
"  c #ABC2BC",
". c #F2EAF1",
"X c None",
/* pixels */
"XXXXXXXXXXXXXXXXXXXXXXXXXXXXXXXX",
"XXXXXXXXXXXXXXXXXXXXXXXXXXXXXXXX",
"XXXXXXXXXXXXXXXXXXXXXXXXXXXXXXXX",
"XXXXXXXXXXXXXXXXXXXXXXXXXXXXXXXX",
"XXXXXXXXXXXXXXXXXXXXXXXXXXXXXXXX",
"XXXXXXXXXXXXXXXXXXXXXXXXXXXXXXXX",
"XXXXXXXXXXXXXXXXXXXXXXXXXXXXXXXX",
"XXXXXXXXXXXXXXXXXXXXXXXXXXXXXXXX",
"XXXXXXXXXXXXXXXXXXXXXXXXXXXXXXXX",
"XXXXXXXXXXXXXXXXXXXXXXXXXXXXXXXX",
"XXXXXXXXXXXXXXXXXXXXXXXXXXXXXXXX",
"XXXXXXXXXXXXXXXXXXXXXXXXXXXXXXXX",
"XXXXXXXXXXXXXXXXXXXXXXXXXXXXXXXX",
"XXXXXXXXXXXXXXXXXXXXXXXXXXXXXXXX",
"XXXXXXXXXXXXXXXXXXXXXXXXXXXXXXXX",
"XXXXXXXXXXXXXXX...XXXXXXXXXXXXXX",
"XXXXXXXXXXXXX.......XXXXXXXXXXXX",
"XXXXXXXXXXXX.........XXXXXXXXXXX",
"XXXXXXXXXXX.......... XXXXXXXXXX",
"XXXXXXXXXXX.........  XXXXXXXXXX",
"XXXXXXXXXXX.........  XXXXXXXXXX",
"XXXXXXXXXXX........   XXXXXXXXXX",
"XXXXXXXXXXX.......    XXXXXXXXXX",
"XXXXXXXXXXXX         XXXXXXXXXXX",
"XXXXXXXXXXXXX       XXXXXXXXXXXX",
"XXXXXXXXXXXXXX     XXXXXXXXXXXXX",
"XXXXXXXXXXXXXXXXXXXXXXXXXXXXXXXX",
"XXXXXXXXXXXXXXXXXXXXXXXXXXXXXXXX",
"XXXXXXXXXXXXXXXXXXXXXXXXXXXXXXXX",
"XXXXXXXXXXXXXXXXXXXXXXXXXXXXXXXX",
"XXXXXXXXXXXXXXXXXXXXXXXXXXXXXXXX",
"XXXXXXXXXXXXXXXXXXXXXXXXXXXXXXXX"
};
