/* XPM */
static char *smoke3[] = {
/* columns rows colors chars-per-pixel */
"32 32 3 1 ",
"  c #8D977F",
". c #ABC2BC",
"X c None",
/* pixels */
"XXXXXXXXXXXXXXXXXXXXXXXXXXXXXXXX",
"XXXXXXXXXXXXXXXXXXXXXXXXXXXXXXXX",
"XXXXXXXXXXXXXXXXXXXXXXXXXXXXXXXX",
"XXXXXXXXXXXXXXXXXXXXXXXXXXXXXXXX",
"XXXXXXXXXXXXXXXXXX       XXXXXXX",
"XXXXXXXXXXX..  XX .....    XXXXX",
"XXXXXXXXXX....   .......    XXXX",
"XXXXXXXXXX....  ........    XXXX",
"XXXXXXXXXX ..   ........     XXX",
"XXXXXX          ........     XXX",
"XXXX ...        ........     XXX",
"XXX .....     X  ......      XXX",
"XXX .....     X   ....      XXXX",
"XXX .....    ..             XXXX",
"XXX  ...    ....           XXXXX",
"XXXX        ....        XXXXXXXX",
"XXXXX      X ..   XXX     XXXXXX",
"XXXXXXXXXXXXX     XX...    XXXXX",
"XXXXXXXX....     XX.....    XXXX",
"XXXXXXX......  XXX......    XXXX",
"XXXXXX.......   XX......     XXX",
"XXXXXX.......   XX......     XXX",
"XXXXXX......    XX ....      XXX",
"XXXXXX......    XX          XXXX",
"XXXXXX ....     XXX        XXXXX",
"XXXXXXX        XXXXX     XXXXXXX",
"XXXXXXXX     XXXXXXXXXXXXXXXXXXX",
"XXXXXXXXXXXXXXXXXXXXXXXXXXXXXXXX",
"XXXXXXXXXXXXXXXXXXXXXXXXXXXXXXXX",
"XXXXXXXXXXXXXXXXXXXXXXXXXXXXXXXX",
"XXXXXXXXXXXXXXXXXXXXXXXXXXXXXXXX",
"XXXXXXXXXXXXXXXXXXXXXXXXXXXXXXXX"
};
