/* XPM */
static char *smoke2[] = {
/* columns rows colors chars-per-pixel */
"32 32 4 1 ",
"  c #8D977F",
". c #ABC2BC",
"X c #F2EAF1",
"o c None",
/* pixels */
"oooooooooooooooooooooooooooooooo",
"oooooooooooooooooooooooooooooooo",
"oooooooooooooooooooooooooooooooo",
"oooooooooooooooooooooooooooooooo",
"oooooooooooooooooooooooooooooooo",
"oooooooooooooooooooooooooooooooo",
"oooooooooooooooooooooooooooooooo",
"oooooooooooooooooooooooooooooooo",
"ooooooooo.....o......ooooooooooo",
"oooooooo........XXX...oooooooooo",
"ooooooo.XXX....XXXX... ooooooooo",
"ooooooo.XXX....XXXX..  ooooooooo",
"ooooooo.XX......XX..   ooooooooo",
"ooooooo...... ..... ....oooooooo",
"ooooooo.....   ..........ooooooo",
"ooooooXXX.       ........ oooooo",
"ooooo.XXX...     ........ oooooo",
"ooooo.XXX...      ....... oooooo",
"ooooo.......  ... ....... oooooo",
"ooooo.......XXXX... ....  oooooo",
"ooooo..... XXXXXX..       oooooo",
"ooooo...   XXXXXX..      ooooooo",
"oooooo    .XXXXX...     oooooooo",
"oooooooooo..XX..... oooooooooooo",
"oooooooooo........  oooooooooooo",
"ooooooooooo ....   ooooooooooooo",
"oooooooooooo       ooooooooooooo",
"ooooooooooooo     oooooooooooooo",
"oooooooooooooooooooooooooooooooo",
"oooooooooooooooooooooooooooooooo",
"oooooooooooooooooooooooooooooooo",
"oooooooooooooooooooooooooooooooo"
};
