/* XPM */
static char *fire11[] = {
/* columns rows colors chars-per-pixel */
"8 12 2 1 ",
"  c #E46D3A",
". c None",
/* pixels */
"........",
"........",
"........",
"........",
"........",
"........",
"........",
".... ...",
"...   ..",
"...   ..",
".... ...",
"........"
};
