/* XPM */
static char *nb_faceset[] = {
/* columns rows colors chars-per-pixel */
"38 38 8 1 ",
"  c #141B1B",
". c #3B3643",
"X c #4E484A",
"o c #5F7160",
"O c #E46D3A",
"+ c #6F805B",
"@ c #FFAD5D",
"# c #F2EAF1",
/* pixels */
"                                      ",
"                        @@            ",
"                       OO@@ OO        ",
"                       OOO@OOO @@@O   ",
"              ...XXXXXX  OOOO @@@OO   ",
"            ...XXXXXooooo  OOO@@OO    ",
"           ..XXXXoooooooooX OOOOOO    ",
"         ...XXXooooooooooooX OOOO@@@  ",
"        ...XXXooooooooooooooX OO@@@@  ",
"        ..XXXooooooooo+++ooooX O@@@@  ",
"       ...XXXooooo+oo++#++oooX O@@@   ",
"      ...XXXooooooooo+###+ooooX OOO   ",
"      ...XXXooooooooo++#++ooooX OO    ",
"     ...XXXXoooooooooo+++oooooXX OO   ",
"     ...XXXXooooooooooooooooooXX OO   ",
"     ...XXXXXoooooooooooooooooXX      ",
"     ...XXXXXoooooooooooooooooXX      ",
"    ....XXXXXXoooooooooooooooXXX.     ",
"    ....XXXXXXXXoooooooooooooXXX.     ",
"    ....XX      oooo      ooXXXX.     ",
"    ....X                  XXXXX.     ",
"    ....X   ###      ###   XXXXX.     ",
"    ....X   ###      ###   XXXXX.     ",
"     ...XX                XXXXX..     ",
"     ....XX     oooo     oXXXXX.      ",
"      ...XXXoooooooooooooXXXXXX.      ",
"      ....XXXXoooooooooXXXXXXX.       ",
"       ....XXXXXXXXXXXXXXXXXX.        ",
"        ....XXXXXXXXXXXXXXXX.         ",
"         ....XXXXXXXXXXXXXXX          ",
"          ....XXXXXXXXXXXX.   ...     ",
"     ...   ......XXXXXXXX.  .......   ",
"   .......   ......XXXX.   .......... ",
"  .........    ....................XXX",
" ............     ........XX.....XXXoo",
"......................XXXXXXX...XXoooo",
"..................XXXXXXXXXX...XXXoooo",
"................XXXXXXXXXXX....XXooooo"
};
