/* XPM */
static char *nb_walk_down0[] = {
/* columns rows colors chars-per-pixel */
"16 16 8 1 ",
"  c #141B1B",
". c #4E484A",
"X c #5F7160",
"o c #E46D3A",
"O c #6F805B",
"+ c #FFAD5D",
"@ c #F2EAF1",
"# c None",
/* pixels */
"########### # ##",
"########## + + #",
"####        o++ ",
"### XXXXXXXX o #",
"## XXOOXOXXXXo+ ",
"# .XXOOXXXXXX  #",
"# .XXXXXXXXXX. #",
"# ..X      X.. #",
"# ... @  @ ... #",
"# ...  XX  ... #",
"# ...XXXXXX... #",
"## .......... ##",
"##  ........  ##",
"# ..X.XXXX.X.. #",
"# XX...  ...XX #",
"##  XXX  XXX  ##"
};
