/* XPM */
static char *cg_walk_down3[] = {
/* columns rows colors chars-per-pixel */
"16 16 10 1 ",
"  c #141B1B",
". c #4E484A",
"X c #D14B34",
"o c #965340",
"O c #A3754E",
"+ c #56864C",
"@ c #EF914F",
"# c #F1C471",
"$ c #FCE2CA",
"% c None",
/* pixels */
"%%%%%%%%%% %%%%%",
"%%%  %    $ %%%%",
"%% ++ +++ $$ %%%",
"%%  +++++++  %%%",
"% +++#+++#++. %%",
" ++++++#+++++ %%",
"% ++++++++++++ %",
" ++++@@++@@+++ %",
" + +@@ @+ @@+X %",
"%  +XX@@@@XX+ %%",
"%%  @@@XX@@@ X %",
"%%%  @@@@@@  X %",
"%%% XX..XXooX %%",
"%%% XXXOOOOO %%%",
"%%%% @@.  oX %%%",
"%%%% @@ XXX %%%%"
};
