/* XPM */
static char *nature_tile203[] = {
/* columns rows colors chars-per-pixel */
"64 64 5 1 ",
"  c #141B1B",
". c #4A7F4B",
"X c #74A334",
"o c #ADBC3A",
"O c None",
/* pixels */
"OOOO                OOOOOOOOOOOOOOOO                OOOOOOOOOOOO",
"OOOO                OOOOOOOOOOOOOOOO                OOOOOOOOOOOO",
"OOOO                OOOOOOOOOOOOOOOO                OOOOOOOOOOOO",
"OOOO                OOOOOOOOOOOOOOOO                OOOOOOOOOOOO",
"    XXXXXXXXXXXXXXXX    OOOOOOOO    XXXXXXXXXXXXXXXX    OOOOOOOO",
"    XXXXXXXXXXXXXXXX    OOOOOOOO    XXXXXXXXXXXXXXXX    OOOOOOOO",
"    XXXXXXXXXXXXXXXX    OOOOOOOO    XXXXXXXXXXXXXXXX    OOOOOOOO",
"    XXXXXXXXXXXXXXXX    OOOOOOOO    XXXXXXXXXXXXXXXX    OOOOOOOO",
"OOOO    XXXXXXXXXXXX    OOOO    XXXXXXXXXXXXXXXXXXXXXXXX    OOOO",
"OOOO    XXXXXXXXXXXX    OOOO    XXXXXXXXXXXXXXXXXXXXXXXX    OOOO",
"OOOO    XXXXXXXXXXXX    OOOO    XXXXXXXXXXXXXXXXXXXXXXXX    OOOO",
"OOOO    XXXXXXXXXXXX    OOOO    XXXXXXXXXXXXXXXXXXXXXXXX    OOOO",
"OOOOOOOO    XXXXXXXXXXXX    XXXXXXXXXXXXXXXX....        OOOOOOOO",
"OOOOOOOO    XXXXXXXXXXXX    XXXXXXXXXXXXXXXX....        OOOOOOOO",
"OOOOOOOO    XXXXXXXXXXXX    XXXXXXXXXXXXXXXX....        OOOOOOOO",
"OOOOOOOO    XXXXXXXXXXXX    XXXXXXXXXXXXXXXX....        OOOOOOOO",
"OOOOOOOOOOOO    XXXXXXXX....XXXX....XXXX............    OOOOOOOO",
"OOOOOOOOOOOO    XXXXXXXX....XXXX....XXXX............    OOOOOOOO",
"OOOOOOOOOOOO    XXXXXXXX....XXXX....XXXX............    OOOOOOOO",
"OOOOOOOOOOOO    XXXXXXXX....XXXX....XXXX............    OOOOOOOO",
"OOOOOOOO    oooo....XXXX........XXXX........ooooooooXXXX    OOOO",
"OOOOOOOO    oooo....XXXX........XXXX........ooooooooXXXX    OOOO",
"OOOOOOOO    oooo....XXXX........XXXX........ooooooooXXXX    OOOO",
"OOOOOOOO    oooo....XXXX........XXXX........ooooooooXXXX    OOOO",
"OOOO    oooooooooooo........XXXXXXXX....ooooooooooooXXXXXXXX    ",
"OOOO    oooooooooooo........XXXXXXXX....ooooooooooooXXXXXXXX    ",
"OOOO    oooooooooooo........XXXXXXXX....ooooooooooooXXXXXXXX    ",
"OOOO    oooooooooooo........XXXXXXXX....ooooooooooooXXXXXXXX    ",
"    oooooooooooooooooooo....XXXX....ooooooooooooooooXXXXXXXX    ",
"    oooooooooooooooooooo....XXXX....ooooooooooooooooXXXXXXXX    ",
"    oooooooooooooooooooo....XXXX....ooooooooooooooooXXXXXXXX    ",
"    oooooooooooooooooooo....XXXX....ooooooooooooooooXXXXXXXX    ",
"    ooooooooooooooooXXXXoooo....ooooooooooooooooXXXXXXXXXXXX    ",
"    ooooooooooooooooXXXXoooo....ooooooooooooooooXXXXXXXXXXXX    ",
"    ooooooooooooooooXXXXoooo....ooooooooooooooooXXXXXXXXXXXX    ",
"    ooooooooooooooooXXXXoooo....ooooooooooooooooXXXXXXXXXXXX    ",
"    ooooooooooooooooooooXXXXXXXXooooXXXXooooooooXXXXXXXXXXXX    ",
"    ooooooooooooooooooooXXXXXXXXooooXXXXooooooooXXXXXXXXXXXX    ",
"    ooooooooooooooooooooXXXXXXXXooooXXXXooooooooXXXXXXXXXXXX    ",
"    ooooooooooooooooooooXXXXXXXXooooXXXXooooooooXXXXXXXXXXXX    ",
"    ooooooooooooXXXXooooooooXXXXXXXXooooooooXXXXXXXXXXXXXXXX    ",
"    ooooooooooooXXXXooooooooXXXXXXXXooooooooXXXXXXXXXXXXXXXX    ",
"    ooooooooooooXXXXooooooooXXXXXXXXooooooooXXXXXXXXXXXXXXXX    ",
"    ooooooooooooXXXXooooooooXXXXXXXXooooooooXXXXXXXXXXXXXXXX    ",
"    oooooooo    XXXXXXXXooooXXXXooooooooXXXXXXXX....    XXXX    ",
"    oooooooo    XXXXXXXXooooXXXXooooooooXXXXXXXX....    XXXX    ",
"    oooooooo    XXXXXXXXooooXXXXooooooooXXXXXXXX....    XXXX    ",
"    oooooooo    XXXXXXXXooooXXXXooooooooXXXXXXXX....    XXXX    ",
"    oooo        ....XXXXXXXX....ooooXXXXXXXX....    OOOO    OOOO",
"    oooo        ....XXXXXXXX....ooooXXXXXXXX....    OOOO    OOOO",
"    oooo        ....XXXXXXXX....ooooXXXXXXXX....    OOOO    OOOO",
"    oooo        ....XXXXXXXX....ooooXXXXXXXX....    OOOO    OOOO",
"OOOO    OOOO        ....XXXX....XXXX........        OOOOOOOOOOOO",
"OOOO    OOOO        ....XXXX....XXXX........        OOOOOOOOOOOO",
"OOOO    OOOO        ....XXXX....XXXX........        OOOOOOOOOOOO",
"OOOO    OOOO        ....XXXX....XXXX........        OOOOOOOOOOOO",
"OOOOOOOOOOOO    XXXX................XXXXXXXX....    OOOOOOOOOOOO",
"OOOOOOOOOOOO    XXXX................XXXXXXXX....    OOOOOOOOOOOO",
"OOOOOOOOOOOO    XXXX................XXXXXXXX....    OOOOOOOOOOOO",
"OOOOOOOOOOOO    XXXX................XXXXXXXX....    OOOOOOOOOOOO",
"OOOOOOOOOOOO    XXXXXXXXooooXXXXooooXXXXXXXXXXXX    OOOOOOOOOOOO",
"OOOOOOOOOOOO    XXXXXXXXooooXXXXooooXXXXXXXXXXXX    OOOOOOOOOOOO",
"OOOOOOOOOOOO    XXXXXXXXooooXXXXooooXXXXXXXXXXXX    OOOOOOOOOOOO",
"OOOOOOOOOOOO    XXXXXXXXooooXXXXooooXXXXXXXXXXXX    OOOOOOOOOOOO"
};
