/* XPM */
static char *fire1[] = {
/* columns rows colors chars-per-pixel */
"8 12 3 1 ",
"  c #FF9554",
". c #FFE18D",
"X c None",
/* pixels */
"XXXXXXXX",
"XXXXXXXX",
"XXXXXXXX",
"XXX XXXX",
"XX . XXX",
"X ... XX",
"X ... XX",
" ..... X",
" ..... X",
"  ...  X",
"X     XX",
"XX   XXX"
};
