/* XPM */
static char *nb_item[] = {
/* columns rows colors chars-per-pixel */
"16 16 6 1 ",
"  c #141B1B",
". c #4E484A",
"X c #5F7160",
"o c #E46D3A",
"O c #F2EAF1",
"+ c None",
/* pixels */
"++++++++++++++++",
"++++        +  +",
"+++ XXXXXXXX o +",
"+   .      ..   ",
" XX.. O  O ..XX ",
" XX..  XX  ..XX ",
" XX..XXXXXX..XX ",
" XX...XXXX...XX ",
"+ X.X......X.X +",
"+ ..XX.XX.XX.. +",
"++ ..X.XX.X.. ++",
"++ .......... ++",
"+++ ........ +++",
"+++ .X....X. +++",
"+++ XXX  XXX +++",
"+++ XXX  XXX +++"
};
