/* XPM */
static char *thunder6[] = {
/* columns rows colors chars-per-pixel */
"20 28 4 1 ",
"  c #FFAD5D",
". c #FFE18D",
"X c white",
"o c None",
/* pixels */
"oooooooooooooooooooo",
"oooooooooooooooooooo",
"oooooooooooooooooooo",
"oooooooooooooooooooo",
"oooooooooooooooooooo",
"oooooooooooooooooooo",
"oooooooooooooooooooo",
"oooooooooooooooooooo",
"oooooooooooooooooooo",
"oooooooooooooooooooo",
"oooooooooooooooooooo",
"oooooooooooooooooooo",
"oooooooooooooooooooo",
"oooooooooooooooooooo",
"oooooooo....oooooooo",
"ooooooo.XXXX.ooooooo",
"oooooo.XXX..oooooooo",
"oooooo.XX.oooooooooo",
"ooooooo.XX.ooooooooo",
"oooooooo.XX.oooooooo",
"ooooooooo..ooooooooo",
"ooooooooo oooooooooo",
"oooooooo . ooooooooo",
"ooooooooo . oooooooo",
"oooooooooo . ooooooo",
"ooooooooooo . oooooo",
"oooooooooooo . ooooo",
"ooooooooooooo oooooo"
};
