/* XPM */
static char *thunder5[] = {
/* columns rows colors chars-per-pixel */
"20 28 4 1 ",
"  c #FFAD5D",
". c #FFE18D",
"X c white",
"o c None",
/* pixels */
"oooooooooooooooooooo",
"oooooooooooooooooooo",
"oooooooooooooooooooo",
"oooooooooooooooooooo",
"oooooooooooooooooooo",
"oooooooooooooooooooo",
"oooooooooooooooooooo",
"oooooooooooooooooooo",
"ooooooo..ooooooooooo",
"oooooo.XX..ooooooooo",
"ooooooo.XXX.oooooooo",
"oooooooo.XXX..oooooo",
"ooooooooo.XXXX.ooooo",
"oooooooooo.XXXX.oooo",
"ooooooooooo.XXX.oooo",
"oooooooooo.XXX.ooooo",
"ooooooooo.....oooooo",
"oooooooo.XX.oooooooo",
"ooooooo.XX.ooooooooo",
"oooooo.X..oooooooooo",
"ooooo.X.oooooooooooo",
"oooooo .  oooooooooo",
"ooooooo .. ooooooooo",
"oooooooo  . oooooooo",
"oooooooooo . ooooooo",
"ooooooooooo . oooooo",
"oooooooooooo ooooooo",
"oooooooooooooooooooo"
};
