/* XPM */
static char *fontO[] = {
/* columns rows colors chars-per-pixel */
"8 8 2 1 ",
"  c #0B001E",
". c None",
/* pixels */
"........",
"..    ..",
".  ..  .",
".  ..  .",
".  ..  .",
".  ..  .",
"..    ..",
"........"
};
