/* XPM */
static char *smoke5[] = {
/* columns rows colors chars-per-pixel */
"32 32 3 1 ",
"  c #4E484A",
". c #5F7160",
"X c None",
/* pixels */
"XXXXXXXXXXXXXXXXXXXXXXXXXXXXXXXX",
"XXXXXXXXXXXXXXXXXXXXXXXXXXXXXXXX",
"XXXXXXXXXXXXXXXXXXXX       XXXXX",
"XXXXXXXXXXX    XXXX         XXXX",
"XXXXXXXXXX  ... XX ......    XXX",
"XXXXXXXXX  .....XXXXXXX...    XX",
"XXXXXXXXX ....XXXXXXXXXXX..   XX",
"XXX    X  ...XXXXXXXXXXXXX.   XX",
"XX  ...X  ..XXXXXXXXXXXXXXX.  XX",
"XX  ...XX ..XXXXXXXXXXXXXXX.  XX",
"X   ..XXXX ....XXXXXXXXXXXX.  XX",
"X  ..XXXXX..... XXXXXXXXXX..  XX",
"X  ..XXXXX..... XXXXXXXXXX.. XXX",
"X  ..XXXXX..... XXXXXXXXX.. XXXX",
"X  ..XXXXX....  XXXXXXXXXXXXXXXX",
"X  ..XXXXXX    XXXXXXXXXXXXXXXXX",
"X  ..XXXXXXXXXXXXXX..XXXXXXXXXXX",
"XX  XXXXXXXXXXXXXX... XXXXXXXXXX",
"XXX  X XXXXXXXXXXX... XXXXX. XXX",
"XXXX  XXXXXXXXXXXXX  XXXXXXX. XX",
"XXX  XXXXXX...XXXXXXXXXXXXXX. XX",
"XX  .XXXXX.....XXXXXXXXXXXX.. XX",
"XX  .XXXXX.....XXXXXXXXXXXX.  XX",
"XX  .XXXXX.....XXXXXXXXXXXX.  XX",
"XX   .XXXX.....XXX.XXXXXXX..  XX",
"XX   ..XXXX...XXXX.XXXXX...   XX",
"XXX   ..XXXXXXXXXX ......    XXX",
"XXXX   ....XXXXXXXX         XXXX",
"XXXXXXXXXXXXXXXXXXXXX      XXXXX",
"XXXXXXXXXXXXXXXXXXXXXXXXXXXXXXXX",
"XXXXXXXXXXXXXXXXXXXXXXXXXXXXXXXX",
"XXXXXXXXXXXXXXXXXXXXXXXXXXXXXXXX"
};
