/* XPM */
static char *smoke1[] = {
/* columns rows colors chars-per-pixel */
"32 32 4 1 ",
"  c #8D977F",
". c #ABC2BC",
"X c #F2EAF1",
"o c None",
/* pixels */
"oooooooooooooooooooooooooooooooo",
"oooooooooooooooooooooooooooooooo",
"oooooooooooooooooooooooooooooooo",
"oooooooooooooooooooooooooooooooo",
"oooooooooooooooooooooooooooooooo",
"oooooooooooooooooooooooooooooooo",
"oooooooooooooooooooooooooooooooo",
"oooooooooooooooooooooooooooooooo",
"oooooooooooooooooooooooooooooooo",
"oooooooooooooooooooooooooooooooo",
"ooooooooooXXXXoXXXXXoooooooooooo",
"oooooooooXXXXXXXXXXXX.oooooooooo",
"ooooooooXXXXXXXXXXXXX.oooooooooo",
"ooooooooXXXXXXXXXXXX...ooooooooo",
"ooooooooXXXXXXX.XX.....ooooooooo",
"oooooooooXXXX. .XXXXXXXooooooooo",
"ooooooooXXXXX   .XXXXXXooooooooo",
"oooooooXXXXXX   .XXXXXX.oooooooo",
"oooooooXXXXX......XXXXX.oooooooo",
"oooooooXXXX..XXX..XXXX..oooooooo",
"ooooooo.....XXXXX. ....ooooooooo",
"oooooooo....XXXX..  ...ooooooooo",
"ooooooooooo..X.... ooooooooooooo",
"ooooooooooo....... ooooooooooooo",
"oooooooooooo......oooooooooooooo",
"ooooooooooooo....ooooooooooooooo",
"oooooooooooooooooooooooooooooooo",
"oooooooooooooooooooooooooooooooo",
"oooooooooooooooooooooooooooooooo",
"oooooooooooooooooooooooooooooooo",
"oooooooooooooooooooooooooooooooo",
"oooooooooooooooooooooooooooooooo"
};
