/* XPM */
static char *coin3[] = {
/* columns rows colors chars-per-pixel */
"10 10 5 1 ",
"  c #141B1B",
". c #E46D3A",
"X c #FFAD5D",
"o c #F2EAF1",
"O c None",
/* pixels */
"OOO   OOOO",
"OO Xo. OOO",
"O X..o. OO",
" X....X. O",
" X....X. O",
" X....X. O",
" X....X. O",
"O X..X. OO",
"OO XX. OOO",
"OOO   OOOO"
};
