/* XPM */
static char *f_green1[] = {
/* columns rows colors chars-per-pixel */
"16 16 6 1 ",
"  c #141B1B",
". c #543C52",
"X c #8F3E56",
"o c #74A334",
"O c #ADBC3A",
"+ c None",
/* pixels */
"++++++++++++++++",
"++++++++++++++++",
"++++++++++++++++",
"+++++++++++   ++",
"+++    ++  oo ++",
"+++ XX   oooo ++",
"++ oOoooOOooo ++",
"+++ .. oOOooo ++",
"+++ XX oOOooo ++",
"++ oOooooooo  ++",
"+++ ..      ++++",
"+++ XX +++++++++",
"+++ XX +++++++++",
"+++ XX +++++++++",
"+++ XX +++++++++",
"++++++++++++++++"
};
