/* XPM */
static char *f_green3[] = {
/* columns rows colors chars-per-pixel */
"16 16 6 1 ",
"  c #141B1B",
". c #543C52",
"X c #8F3E56",
"o c #74A334",
"O c #ADBC3A",
"+ c None",
/* pixels */
"++++++++++++++++",
"+++++++++++   ++",
"+++++++++  oo ++",
"++++++++ oooo ++",
"+++     OOooo ++",
"+++ XX oOOooo ++",
"++ oOoooOOooo ++",
"+++ .. oooo   ++",
"+++ XX oo  +++++",
"++ oOoo  +++++++",
"+++ .. +++++++++",
"+++ XX +++++++++",
"+++ XX +++++++++",
"+++ XX +++++++++",
"+++ XX +++++++++",
"++++++++++++++++"
};
