/* XPM */
static char *f_yellow0[] = {
/* columns rows colors chars-per-pixel */
"16 16 6 1 ",
"  c #141B1B",
". c #543C52",
"X c #E46D3A",
"o c #8F3E56",
"O c #FFAD5D",
"+ c None",
/* pixels */
"++++++++++++++++",
"+++++++++++   ++",
"++++++++++ XX ++",
"+++++++++ XXX ++",
"+++      OXXX ++",
"+++ oo XOOXXX ++",
"++ XOXXXOOXXX ++",
"+++ .. XXXXX  ++",
"+++ oo XXXX ++++",
"++ XOXX    +++++",
"+++ .. +++++++++",
"+++ oo +++++++++",
"+++ oo +++++++++",
"+++ oo +++++++++",
"+++ oo +++++++++",
"++++++++++++++++"
};
