/* XPM */
static char *nature_tile267[] = {
/* columns rows colors chars-per-pixel */
"16 16 7 1 ",
"  c #141B1B",
". c #246B3C",
"X c #E0394C",
"o c #E67C44",
"O c #4A8526",
"+ c #91AE45",
"@ c None",
/* pixels */
"@@@@@@@@@@@@@@@@",
"@@@@@@@@@    @@@",
"@@@   @@ oooo @@",
"@@ ooo  XXXooo @",
"@ ooooo XXXooo @",
"@ ooooo XXXooo @",
"@ oooooo Xoooo @",
"@ XooooooooooX @",
"@@ XXoooooooX @@",
"@@@  XXXXXXX @@@",
"@@@@@  ..   @@@@",
"@@@@    .. @@@@@",
"@@@@ ...++ @@@@@",
"@@@@@   ++ @@@@@",
"@@@@@@ OO @@@@@@",
"@@@@@@@@@@@@@@@@"
};
