/* XPM */
static char *nature_tile221[] = {
/* columns rows colors chars-per-pixel */
"16 16 6 1 ",
"  c #141B1B",
". c #A16240",
"X c #E67C44",
"o c #74A334",
"O c #ADBC3A",
"+ c None",
/* pixels */
"++++++++++++++++",
"++  ++++++++++++",
"+ OO  ++++++++++",
"+ OOO. +++++++++",
"++   X +++++++++",
"++++ XX ++++++++",
"++++ XXX  ++++++",
"+++++  XXX    ++",
"+++++++ XXoooo +",
"+++++++ .X ooo +",
"++   + ...    ++",
"+ OOo ... ++++++",
"+ OOoo.. +++++++",
"++    .. +++++++",
"+++++ .. +++++++",
"++++ .... ++++++"
};
