/* XPM */
static char *nature_tile241[] = {
/* columns rows colors chars-per-pixel */
"16 16 4 1 ",
"  c #141B1B",
". c #74A334",
"X c #ADBC3A",
"o c None",
/* pixels */
"oooooooooooooooo",
"ooooo      ooooo",
"ooo  XXXXXX  ooo",
"oo XXXXXXXXXX oo",
"o XXXXXXXXXXXX o",
"o X.XXXXXXXX.X o",
" X.XXXXXXXXXX.X ",
" X.XX.XXXX.XX.X ",
" ..X.XXXXXX.X.. ",
" X...XX..XX...X ",
" .XX........XX. ",
"o.XX.XX..XX.XX.o",
"oo..XXX..XXX..oo",
"ooo.XXX..XXX.ooo",
"ooooo......ooooo",
"oooooooooooooooo"
};
