/* XPM */
static char *nature_tile266[] = {
/* columns rows colors chars-per-pixel */
"16 16 5 1 ",
"  c #141B1B",
". c #277144",
"X c #74A334",
"o c #ADBC3A",
"O c None",
/* pixels */
"OOOOOOOOOOOOOOOO",
"OOOOOOOOOOOOOOOO",
"OOOOOOOOOOOOOOOO",
"OOOOOOOOO    OOO",
"OOOOOOOO Xooo OO",
"OOO     Xooooo O",
"OO oooo. ooooo O",
"O oooooX..XXX  O",
"O oooooXXoooooX ",
"O ooooXXXoooooX ",
"OO XXX  .oooooX ",
"OOO   O . XXXX O",
"OOOOOOO .     OO",
"OOOOOO .. OOOOOO",
"OOOOOOOOOOOOOOOO",
"OOOOOOOOOOOOOOOO"
};
