/* XPM */
static char *nature_tile273[] = {
/* columns rows colors chars-per-pixel */
"16 16 4 1 ",
"  c #546626",
". c #74A334",
"X c #ADBC3A",
"o c None",
/* pixels */
"oooooooo  oooooo",
"ooo  oo . oooooo",
"oo XX  ..    ooo",
"ooo XXX.. XXX oo",
"o    XXX.XXX    ",
" ... XX.XXX..XX ",
"o ......XX.XXX o",
"oo .XX....XXXX o",
"oo XXXX..XXXX oo",
"o ..XXXX..X...  ",
" XXX.XXXX..XXXX ",
"o.XXX.XXX.XXXX.o",
"oo.XX.XX.XXXX.oo",
"ooooX.XX.XXXoooo",
"ooooooX.Xooooooo",
"oooooooooooooooo"
};
