/* XPM */
static char *element_tile094[] = {
/* columns rows colors chars-per-pixel */
"16 16 3 1 ",
"  c #F1C471",
". c #FFE18D",
"X c white",
/* pixels */
"                ",
"                ",
"                ",
"                ",
"      ..        ",
"                ",
"       ..       ",
"                ",
"   .. .         ",
"      .         ",
"           ..   ",
"                ",
"          ..    ",
"                ",
"                ",
"                "
};
