/* XPM */
static char *interior_tile368[] = {
/* columns rows colors chars-per-pixel */
"16 16 5 1 ",
"  c #4E484A",
". c #3B3643",
"X c #695953",
"o c #816855",
"O c white",
/* pixels */
"             ...",
" Xoooo   XXXX ..",
"XXXoooo XXXXX  .",
"XXXXooo XXXXXXX ",
" XXXXo   XXXXX  ",
"                ",
"XXX   oXooo   XX",
"XXXX ooooooo XXX",
"XXXX ooooXXX XXX",
"XXX   ooooX   XX",
"                ",
"  XXXXX         ",
" XXXXXXX        ",
" XXXXXXX     ...",
"  XXXXX      ...",
"             ..."
};
