/* XPM */
static char *interior_tile303[] = {
/* columns rows colors chars-per-pixel */
"16 16 5 1 ",
"  c #4E484A",
". c #816855",
"X c #695953",
"o c #3B3643",
"O c white",
/* pixels */
"                ",
" .....   XXXXX  ",
"....... XXXXXX. ",
"....... XXXXX.. ",
" .....   XXX..  ",
"                ",
"XXX   XXXXX   XX",
"XXXX XXXXXXX XXX",
"XXXX XXXXXXX XXX",
"XXX   XXXXX   XX",
"                ",
"  XXXXX   XXXXX ",
" XXXXXXX XXXXXXX",
"o  XXXXX XXXXXXX",
"oo XXXX   XXXXX ",
"ooo             "
};
