/* XPM */
static char * cg_dead__xpm[] = {
"64 64 9 1",
" 	c #ADBC3A",
".	c #141B1B",
"+	c #A8A129",
"@	c #56864C",
"#	c #FCE2CA",
"$	c #F1C471",
"%	c #EF914F",
"&	c #D14B34",
"*	c #A3754E",
"                                                                ",
"                                                                ",
"                                                                ",
"                                                                ",
"                                                                ",
"                                                                ",
"                                                                ",
"                                                                ",
"                                                                ",
"                                                                ",
"                                                                ",
"                                                                ",
"            ........    ............    ++++....                ",
"            ........    ............    ++++....                ",
"            ........    ............    ++++....                ",
"            ........    ............    ++++....                ",
"        ....@@@@@@@@....@@@@@@@@@@@@........####....            ",
"        ....@@@@@@@@....@@@@@@@@@@@@........####....            ",
"        ....@@@@@@@@....@@@@@@@@@@@@........####....            ",
"        ....@@@@@@@@....@@@@@@@@@@@@........####....            ",
"    ............@@@@@@@@@@@@@@@@@@@@@@@@@@@@########....        ",
"    ............@@@@@@@@@@@@@@@@@@@@@@@@@@@@########....        ",
"    ............@@@@@@@@@@@@@@@@@@@@@@@@@@@@########....        ",
"    ............@@@@@@@@@@@@@@@@@@@@@@@@@@@@########....        ",
"....@@@@@@@@@@@@@@@@$$$$@@@@@@@@@@@@$$$$@@@@@@@@....            ",
"....@@@@@@@@@@@@@@@@$$$$@@@@@@@@@@@@$$$$@@@@@@@@....            ",
"....@@@@@@@@@@@@@@@@$$$$@@@@@@@@@@@@$$$$@@@@@@@@....            ",
"....@@@@@@@@@@@@@@@@$$$$@@@@@@@@@@@@$$$$@@@@@@@@....            ",
"    ....@@@@@@@@@@@@@@@@@@@@$$$$@@@@@@@@@@@@@@@@@@@@....        ",
"    ....@@@@@@@@@@@@@@@@@@@@$$$$@@@@@@@@@@@@@@@@@@@@....        ",
"    ....@@@@@@@@@@@@@@@@@@@@$$$$@@@@@@@@@@@@@@@@@@@@....        ",
"    ....@@@@@@@@@@@@@@@@@@@@$$$$@@@@@@@@@@@@@@@@@@@@....        ",
"....@@@@@@@@@@@@@@@@@@@@@@@@@@@@@@@@@@@@@@@@@@@@@@@@....        ",
"....@@@@@@@@@@@@@@@@@@@@@@@@@@@@@@@@@@@@@@@@@@@@@@@@....        ",
"....@@@@@@@@@@@@@@@@@@@@@@@@@@@@@@@@@@@@@@@@@@@@@@@@....        ",
"....@@@@@@@@@@@@@@@@@@@@@@@@@@@@@@@@@@@@@@@@@@@@@@@@....        ",
"....@@@@....@@@@@@@@@@@@@@@@@@@@@@@@@@@@@@@@@@@@@@@@@@@@....    ",
"....@@@@....@@@@@@@@@@@@@@@@@@@@@@@@@@@@@@@@@@@@@@@@@@@@....    ",
"....@@@@....@@@@@@@@@@@@@@@@@@@@@@@@@@@@@@@@@@@@@@@@@@@@....    ",
"....@@@@....@@@@@@@@@@@@@@@@@@@@@@@@@@@@@@@@@@@@@@@@@@@@....    ",
"........@@@@@@@@@@@@%%%%%%%%@@@@@@@@%%%%%%%%@@@@@@@@@@@@....    ",
"........@@@@@@@@@@@@%%%%%%%%@@@@@@@@%%%%%%%%@@@@@@@@@@@@....    ",
"........@@@@@@@@@@@@%%%%%%%%@@@@@@@@%%%%%%%%@@@@@@@@@@@@....    ",
"........@@@@@@@@@@@@%%%%%%%%@@@@@@@@%%%%%%%%@@@@@@@@@@@@....    ",
"....&&&&....@@@@%%%%........%%%%@@@@........%%%%@@@@....&&&&....",
"....&&&&....@@@@%%%%........%%%%@@@@........%%%%@@@@....&&&&....",
"....&&&&....@@@@%%%%........%%%%@@@@........%%%%@@@@....&&&&....",
"....&&&&....@@@@%%%%........%%%%@@@@........%%%%@@@@....&&&&....",
"....&&&&....@@@@&&&&&&&&%%%%%%%%%%%%%%%%&&&&&&&&@@@@....&&&&....",
"....&&&&....@@@@&&&&&&&&%%%%%%%%%%%%%%%%&&&&&&&&@@@@....&&&&....",
"....&&&&....@@@@&&&&&&&&%%%%%%%%%%%%%%%%&&&&&&&&@@@@....&&&&....",
"....&&&&....@@@@&&&&&&&&%%%%%%%%%%%%%%%%&&&&&&&&@@@@....&&&&....",
"....%%%%%%%%....%%%%%%%%................%%%%%%%%....%%%%%%%%....",
"....%%%%%%%%....%%%%%%%%................%%%%%%%%....%%%%%%%%....",
"....%%%%%%%%....%%%%%%%%................%%%%%%%%....%%%%%%%%....",
"....%%%%%%%%....%%%%%%%%................%%%%%%%%....%%%%%%%%....",
"....%%%%%%%%****************************************%%%%%%%%....",
"....%%%%%%%%****************************************%%%%%%%%....",
"....%%%%%%%%****************************************%%%%%%%%....",
"....%%%%%%%%****************************************%%%%%%%%....",
"    ********                                        ********    ",
"    ********                                        ********    ",
"    ********                                        ********    ",
"    ********                                        ********    "};
