/* XPM */
static char * cg_item__xpm[] = {
"64 64 9 1",
" 	c #ADBC3A",
".	c #141B1B",
"+	c #56864C",
"@	c #FCE2CA",
"#	c #EF914F",
"$	c #D14B34",
"%	c #4E484A",
"&	c #965340",
"*	c #A3754E",
"            ............                    ....                ",
"            ............                    ....                ",
"            ............                    ....                ",
"            ............                    ....                ",
"        ....++++++++++++....................@@@@....            ",
"        ....++++++++++++....................@@@@....            ",
"        ....++++++++++++....................@@@@....            ",
"        ....++++++++++++....................@@@@....            ",
"    ....++++....++++++++++++++++++++++++....@@@@@@@@....        ",
"    ....++++....++++++++++++++++++++++++....@@@@@@@@....        ",
"    ....++++....++++++++++++++++++++++++....@@@@@@@@....        ",
"    ....++++....++++++++++++++++++++++++....@@@@@@@@....        ",
"    ........++++++++++++++++++++++++++++++++++++........        ",
"    ........++++++++++++++++++++++++++++++++++++........        ",
"    ........++++++++++++++++++++++++++++++++++++........        ",
"    ........++++++++++++++++++++++++++++++++++++........        ",
"....++++++++++++++++####....####++++....####++++++++....        ",
"....++++++++++++++++####....####++++....####++++++++....        ",
"....++++++++++++++++####....####++++....####++++++++....        ",
"....++++++++++++++++####....####++++....####++++++++....        ",
"................$$$$$$$$################$$$$$$$$............    ",
"................$$$$$$$$################$$$$$$$$............    ",
"................$$$$$$$$################$$$$$$$$............    ",
"................$$$$$$$$################$$$$$$$$............    ",
"....########....############........############....########....",
"....########....############........############....########....",
"....########....############........############....########....",
"....########....############........############....########....",
"....########$$$$############........############$$$$########....",
"....########$$$$############........############$$$$########....",
"....########$$$$############........############$$$$########....",
"....########$$$$############........############$$$$########....",
"....$$$$$$$$....################################....$$$$$$$$....",
"....$$$$$$$$....################################....$$$$$$$$....",
"....$$$$$$$$....################################....$$$$$$$$....",
"....$$$$$$$$....################################....$$$$$$$$....",
"....$$$$$$$$....################################....$$$$$$$$....",
"....$$$$$$$$....################################....$$$$$$$$....",
"....$$$$$$$$....################################....$$$$$$$$....",
"....$$$$$$$$....################################....$$$$$$$$....",
"    ....$$$$$$$$....########################........$$$$....    ",
"    ....$$$$$$$$....########################........$$$$....    ",
"    ....$$$$$$$$....########################........$$$$....    ",
"    ....$$$$$$$$....########################........$$$$....    ",
"    ....$$$$$$$$%%%%%%%%$$$$$$$$$$$$$$$$&&&&&&&&****$$$$....    ",
"    ....$$$$$$$$%%%%%%%%$$$$$$$$$$$$$$$$&&&&&&&&****$$$$....    ",
"    ....$$$$$$$$%%%%%%%%$$$$$$$$$$$$$$$$&&&&&&&&****$$$$....    ",
"    ....$$$$$$$$%%%%%%%%$$$$$$$$$$$$$$$$&&&&&&&&****$$$$....    ",
"        ....$$$$************************%%%%%%%%****....        ",
"        ....$$$$************************%%%%%%%%****....        ",
"        ....$$$$************************%%%%%%%%****....        ",
"        ....$$$$************************%%%%%%%%****....        ",
"            ....****%%%%%%%%************%%%%%%%%....            ",
"            ....****%%%%%%%%************%%%%%%%%....            ",
"            ....****%%%%%%%%************%%%%%%%%....            ",
"            ....****%%%%%%%%************%%%%%%%%....            ",
"            ....$$$$%%%%%%%%........&&&&&&&&$$$$....            ",
"            ....$$$$%%%%%%%%........&&&&&&&&$$$$....            ",
"            ....$$$$%%%%%%%%........&&&&&&&&$$$$....            ",
"            ....$$$$%%%%%%%%........&&&&&&&&$$$$....            ",
"            ....$$$$$$$$$$$$........$$$$$$$$$$$$....            ",
"            ....$$$$$$$$$$$$........$$$$$$$$$$$$....            ",
"            ....$$$$$$$$$$$$........$$$$$$$$$$$$....            ",
"            ....$$$$$$$$$$$$........$$$$$$$$$$$$....            "};
