/* XPM */
static char * fire0__xpm[] = {
"64 64 7 1",
" 	c #ADBC3A",
".	c #141B1B",
"+	c #E46D3A",
"@	c #FF9554",
"#	c #FFE18D",
"$	c #A8A129",
"%	c #965746",
"                                                                ",
"                                                                ",
"                                                                ",
"                                                                ",
"                        ............                            ",
"                        ............                            ",
"                        ............                            ",
"                        ............                            ",
"                    ....++++@@@@++++....                        ",
"                    ....++++@@@@++++....                        ",
"                    ....++++@@@@++++....                        ",
"                    ....++++@@@@++++....                        ",
"                    ....@@@@####@@@@....$$$$................    ",
"                    ....@@@@####@@@@....$$$$................    ",
"                    ....@@@@####@@@@....$$$$................    ",
"                    ....@@@@####@@@@....$$$$................    ",
"................    ....@@@@####@@@@............%%%%++++....    ",
"................    ....@@@@####@@@@............%%%%++++....    ",
"................    ....@@@@####@@@@............%%%%++++....    ",
"................    ....@@@@####@@@@............%%%%++++....    ",
"....++++++++++++....@@@@############@@@@%%%%++++++++++++        ",
"....++++++++++++....@@@@############@@@@%%%%++++++++++++        ",
"....++++++++++++....@@@@############@@@@%%%%++++++++++++        ",
"....++++++++++++....@@@@############@@@@%%%%++++++++++++        ",
"....++++++++++++++++@@@@############@@@@++++++++++++            ",
"....++++++++++++++++@@@@############@@@@++++++++++++            ",
"....++++++++++++++++@@@@############@@@@++++++++++++            ",
"....++++++++++++++++@@@@############@@@@++++++++++++            ",
"....%%%%%%%%++++++++@@@@############@@@@++++++++............    ",
"....%%%%%%%%++++++++@@@@############@@@@++++++++............    ",
"....%%%%%%%%++++++++@@@@############@@@@++++++++............    ",
"....%%%%%%%%++++++++@@@@############@@@@++++++++............    ",
"            ........@@@@############@@@@++++%%%%++++++++....    ",
"            ........@@@@############@@@@++++%%%%++++++++....    ",
"            ........@@@@############@@@@++++%%%%++++++++....    ",
"            ........@@@@############@@@@++++%%%%++++++++....    ",
"....++++++++++++++++@@@@############@@@@%%%%++++++++++++....    ",
"....++++++++++++++++@@@@############@@@@%%%%++++++++++++....    ",
"....++++++++++++++++@@@@############@@@@%%%%++++++++++++....    ",
"....++++++++++++++++@@@@############@@@@%%%%++++++++++++....    ",
"....++++++++++++++++@@@@############@@@@%%%%%%%%%%%%%%%%....    ",
"....++++++++++++++++@@@@############@@@@%%%%%%%%%%%%%%%%....    ",
"....++++++++++++++++@@@@############@@@@%%%%%%%%%%%%%%%%....    ",
"....++++++++++++++++@@@@############@@@@%%%%%%%%%%%%%%%%....    ",
"....%%%%%%%%%%%%....@@@@############@@@@++++++++....            ",
"....%%%%%%%%%%%%....@@@@############@@@@++++++++....            ",
"....%%%%%%%%%%%%....@@@@############@@@@++++++++....            ",
"....%%%%%%%%%%%%....@@@@############@@@@++++++++....            ",
"            ....++++++++@@@@####@@@@++++++++++++++++....        ",
"            ....++++++++@@@@####@@@@++++++++++++++++....        ",
"            ....++++++++@@@@####@@@@++++++++++++++++....        ",
"            ....++++++++@@@@####@@@@++++++++++++++++....        ",
"            ....++++++++++++@@@@        ++++++++++++++++....    ",
"            ....++++++++++++@@@@        ++++++++++++++++....    ",
"            ....++++++++++++@@@@        ++++++++++++++++....    ",
"            ....++++++++++++@@@@        ++++++++++++++++....    ",
"            ....++++++++%%%%                ++++++++++++....    ",
"            ....++++++++%%%%                ++++++++++++....    ",
"            ....++++++++%%%%                ++++++++++++....    ",
"            ....++++++++%%%%                ++++++++++++....    ",
"                                                                ",
"                                                                ",
"                                                                ",
"                                                                "};
