/* XPM */
static char * fire11__xpm[] = {
"64 64 5 1",
" 	c #ADBC3A",
".	c #141B1B",
"+	c #E46D3A",
"@	c #A8A129",
"#	c #965746",
"                                                                ",
"                                                                ",
"                                                                ",
"                                                                ",
"                        ............                            ",
"                        ............                            ",
"                        ............                            ",
"                        ............                            ",
"                    ....++++++++++++....                        ",
"                    ....++++++++++++....                        ",
"                    ....++++++++++++....                        ",
"                    ....++++++++++++....                        ",
"                    ....++++++++++++....@@@@................    ",
"                    ....++++++++++++....@@@@................    ",
"                    ....++++++++++++....@@@@................    ",
"                    ....++++++++++++....@@@@................    ",
"................    ....++++++++++++............####++++....    ",
"................    ....++++++++++++............####++++....    ",
"................    ....++++++++++++............####++++....    ",
"................    ....++++++++++++............####++++....    ",
"....++++++++++++........####++++++++....####++++++++++++        ",
"....++++++++++++........####++++++++....####++++++++++++        ",
"....++++++++++++........####++++++++....####++++++++++++        ",
"....++++++++++++........####++++++++....####++++++++++++        ",
"....++++++++++++++++++++++++############++++++++++++            ",
"....++++++++++++++++++++++++############++++++++++++            ",
"....++++++++++++++++++++++++############++++++++++++            ",
"....++++++++++++++++++++++++############++++++++++++            ",
"....########++++++++++++++++########++++++++++++............    ",
"....########++++++++++++++++########++++++++++++............    ",
"....########++++++++++++++++########++++++++++++............    ",
"....########++++++++++++++++########++++++++++++............    ",
"            ........############++++++++++++####++++++++....    ",
"            ........############++++++++++++####++++++++....    ",
"            ........############++++++++++++####++++++++....    ",
"            ........############++++++++++++####++++++++....    ",
"....++++++++++++++++++++####++++++++++++####++++++++++++....    ",
"....++++++++++++++++++++####++++++++++++####++++++++++++....    ",
"....++++++++++++++++++++####++++++++++++####++++++++++++....    ",
"....++++++++++++++++++++####++++++++++++####++++++++++++....    ",
"....++++++++++++++++....++++++++++++++++################....    ",
"....++++++++++++++++....++++++++++++++++################....    ",
"....++++++++++++++++....++++++++++++++++################....    ",
"....++++++++++++++++....++++++++++++++++################....    ",
"....############....++++++++++++++++++++++++++++....            ",
"....############....++++++++++++++++++++++++++++....            ",
"....############....++++++++++++++++++++++++++++....            ",
"....############....++++++++++++++++++++++++++++....            ",
"            ....++++++++++++####++++++++++++++++++++....        ",
"            ....++++++++++++####++++++++++++++++++++....        ",
"            ....++++++++++++####++++++++++++++++++++....        ",
"            ....++++++++++++####++++++++++++++++++++....        ",
"            ....++++++++++++####        ++++++++++++++++....    ",
"            ....++++++++++++####        ++++++++++++++++....    ",
"            ....++++++++++++####        ++++++++++++++++....    ",
"            ....++++++++++++####        ++++++++++++++++....    ",
"            ....++++++++####                ++++++++++++....    ",
"            ....++++++++####                ++++++++++++....    ",
"            ....++++++++####                ++++++++++++....    ",
"            ....++++++++####                ++++++++++++....    ",
"                                                                ",
"                                                                ",
"                                                                ",
"                                                                "};
