/* XPM */
static char *floor_tile268[] = {
/* columns rows colors chars-per-pixel */
"64 64 2 1 ",
"  c #ADBC3A",
". c #A8A129",
/* pixels */
"                                                                ",
"                                                                ",
"                                                                ",
"                                                                ",
"                                                                ",
"                                                                ",
"                                                                ",
"                                                                ",
"                                                                ",
"                                                                ",
"                                                                ",
"                                                                ",
"                                        ....                    ",
"                                        ....                    ",
"                                        ....                    ",
"                                        ....                    ",
"                                        ....    ....            ",
"                                        ....    ....            ",
"                                        ....    ....            ",
"                                        ....    ....            ",
"                                                ....            ",
"                                                ....            ",
"                                                ....            ",
"                                                ....            ",
"                                                                ",
"                                                                ",
"                                                                ",
"                                                                ",
"                                                                ",
"                                                                ",
"                                                                ",
"                                                                ",
"                                                                ",
"                                                                ",
"                                                                ",
"                                                                ",
"                    ....                                        ",
"                    ....                                        ",
"                    ....                                        ",
"                    ....                                        ",
"            ....    ....    ....                                ",
"            ....    ....    ....                                ",
"            ....    ....    ....                                ",
"            ....    ....    ....                                ",
"            ....            ....                                ",
"            ....            ....                                ",
"            ....            ....                                ",
"            ....            ....                                ",
"                                                                ",
"                                                                ",
"                                                                ",
"                                                                ",
"                                                                ",
"                                                                ",
"                                                                ",
"                                                                ",
"                                                                ",
"                                                                ",
"                                                                ",
"                                                                ",
"                                                                ",
"                                                                ",
"                                                                ",
"                                                                "
};
