/* XPM */
static char * house_xpm[] = {
"64 64 6 1",
" 	c #ADBC3A",
".	c #141B1B",
"+	c #E46D3A",
"@	c #EECF9B",
"#	c #FFAD5D",
"$	c #965340",
"                ................................                ",
"                ................................                ",
"                ................................                ",
"                ................................                ",
"            ....++++@@@@@@@@####++++########++++....            ",
"            ....++++@@@@@@@@####++++########++++....            ",
"            ....++++@@@@@@@@####++++########++++....            ",
"            ....++++@@@@@@@@####++++########++++....            ",
"        ....++++++++@@@@@@@@####++++########++++++++....        ",
"        ....++++++++@@@@@@@@####++++########++++++++....        ",
"        ....++++++++@@@@@@@@####++++########++++++++....        ",
"        ....++++++++@@@@@@@@####++++########++++++++....        ",
"    ....++++####++++############++++########++++++++++++....    ",
"    ....++++####++++############++++########++++++++++++....    ",
"    ....++++####++++############++++########++++++++++++....    ",
"    ....++++####++++############++++########++++++++++++....    ",
"....++++########++++############++++########++++++++++++++++....",
"....++++########++++############++++########++++++++++++++++....",
"....++++########++++############++++########++++++++++++++++....",
"....++++########++++############++++########++++++++++++++++....",
"....++++########++++############++++########++++++++++++++++....",
"....++++########++++############++++########++++++++++++++++....",
"....++++########++++############++++########++++++++++++++++....",
"....++++########++++############++++########++++++++++++++++....",
"....++++########++++############++++########++++++++++++++++....",
"....++++########++++############++++########++++++++++++++++....",
"....++++########++++############++++########++++++++++++++++....",
"....++++########++++############++++########++++++++++++++++....",
"....++++########++++############++++########++++++++++++++++....",
"....++++########++++############++++########++++++++++++++++....",
"....++++########++++############++++########++++++++++++++++....",
"....++++########++++############++++########++++++++++++++++....",
"....++++########++++++++++++++++++++++++++++++++++++++++++++....",
"....++++########++++++++++++++++++++++++++++++++++++++++++++....",
"....++++########++++++++++++++++++++++++++++++++++++++++++++....",
"....++++########++++++++++++++++++++++++++++++++++++++++++++....",
"....++++####++++$$$$$$$$$$$$$$$$$$$$$$$$$$$$$$$$++++++++++++....",
"....++++####++++$$$$$$$$$$$$$$$$$$$$$$$$$$$$$$$$++++++++++++....",
"....++++####++++$$$$$$$$$$$$$$$$$$$$$$$$$$$$$$$$++++++++++++....",
"....++++####++++$$$$$$$$$$$$$$$$$$$$$$$$$$$$$$$$++++++++++++....",
"....++++++++$$$$$$$$++++++++++++++++++++++++$$$$$$$$++++++++....",
"....++++++++$$$$$$$$++++++++++++++++++++++++$$$$$$$$++++++++....",
"....++++++++$$$$$$$$++++++++++++++++++++++++$$$$$$$$++++++++....",
"....++++++++$$$$$$$$++++++++++++++++++++++++$$$$$$$$++++++++....",
"    ........$$$$++++++++................++++++++$$$$........    ",
"    ........$$$$++++++++................++++++++$$$$........    ",
"    ........$$$$++++++++................++++++++$$$$........    ",
"    ........$$$$++++++++................++++++++$$$$........    ",
"        ....++++++++........................++++$$$$....        ",
"        ....++++++++........................++++$$$$....        ",
"        ....++++++++........................++++$$$$....        ",
"        ....++++++++........................++++$$$$....        ",
"        ....++++++++........................++++$$$$....        ",
"        ....++++++++........................++++$$$$....        ",
"        ....++++++++........................++++$$$$....        ",
"        ....++++++++........................++++$$$$....        ",
"        ....++++++++....$$$$$$$$$$$$$$$$....++++$$$$....        ",
"        ....++++++++....$$$$$$$$$$$$$$$$....++++$$$$....        ",
"        ....++++++++....$$$$$$$$$$$$$$$$....++++$$$$....        ",
"        ....++++++++....$$$$$$$$$$$$$$$$....++++$$$$....        ",
"                                                                ",
"                                                                ",
"                                                                ",
"                                                                "};
