/* XPM */
static char * snake_right3__xpm[] = {
"64 64 8 1",
" 	c #ADBC3A",
".	c #141B1B",
"+	c #FCE2CA",
"@	c #8D977F",
"#	c #E0394C",
"$	c #A8A129",
"%	c #FFAD5D",
"&	c #E46D3A",
"                        ........................                ",
"                        ........................                ",
"                        ........................                ",
"                        ........................                ",
"                    ....++++++++++++++++++++++++....            ",
"                    ....++++++++++++++++++++++++....            ",
"                    ....++++++++++++++++++++++++....            ",
"                    ....++++++++++++++++++++++++....            ",
"                ....@@@@++++@@@@@@@@@@@@@@@@@@@@@@@@....        ",
"                ....@@@@++++@@@@@@@@@@@@@@@@@@@@@@@@....        ",
"                ....@@@@++++@@@@@@@@@@@@@@@@@@@@@@@@....        ",
"                ....@@@@++++@@@@@@@@@@@@@@@@@@@@@@@@....        ",
"                ....@@@@........................@@@@....        ",
"                ....@@@@........................@@@@....        ",
"                ....@@@@........................@@@@....        ",
"                ....@@@@........................@@@@....        ",
"            ....####............####################........    ",
"            ....####............####################........    ",
"            ....####............####################........    ",
"            ....####............####################........    ",
"            ....####....++++++++....########################....",
"            ....####....++++++++....########################....",
"            ....####....++++++++....########################....",
"            ....####....++++++++....########################....",
"            ....####....++++++++++++....####################....",
"            ....####....++++++++++++....####################....",
"            ....####....++++++++++++....####################....",
"            ....####....++++++++++++....####################....",
"            ....####....++++++++++++....####################....",
"            ....####....++++++++++++....####################....",
"            ....####....++++++++++++....####################....",
"            ....####....++++++++++++....####################....",
"            ....########............########################....",
"            ....########............########################....",
"            ....########............########################....",
"            ....########............########################....",
"            ....############################....................",
"            ....############################....................",
"            ....############################....................",
"            ....############################....................",
"            $$$$....####################%%%%%%%%%%%%%%%%....    ",
"            $$$$....####################%%%%%%%%%%%%%%%%....    ",
"            $$$$....####################%%%%%%%%%%%%%%%%....    ",
"            $$$$....####################%%%%%%%%%%%%%%%%....    ",
"        ....$$$$    ....############&&&&&&&&&&&&........        ",
"        ....$$$$    ....############&&&&&&&&&&&&........        ",
"        ....$$$$    ....############&&&&&&&&&&&&........        ",
"        ....$$$$    ....############&&&&&&&&&&&&........        ",
"    ....####............########&&&&&&&&&&&&........            ",
"    ....####............########&&&&&&&&&&&&........            ",
"    ....####............########&&&&&&&&&&&&........            ",
"    ....####............########&&&&&&&&&&&&........            ",
"    ....####################%%%%&&&&&&&&&&&&&&&&&&&&....        ",
"    ....####################%%%%&&&&&&&&&&&&&&&&&&&&....        ",
"    ....####################%%%%&&&&&&&&&&&&&&&&&&&&....        ",
"    ....####################%%%%&&&&&&&&&&&&&&&&&&&&....        ",
"    ....########%%%%%%%%%%%%&&&&&&&&&&&&&&&&&&&&&&&&....        ",
"    ....########%%%%%%%%%%%%&&&&&&&&&&&&&&&&&&&&&&&&....        ",
"    ....########%%%%%%%%%%%%&&&&&&&&&&&&&&&&&&&&&&&&....        ",
"    ....########%%%%%%%%%%%%&&&&&&&&&&&&&&&&&&&&&&&&....        ",
"        ........&&&&&&&&&&&&&&&&&&&&&&&&&&&&&&&&....            ",
"        ........&&&&&&&&&&&&&&&&&&&&&&&&&&&&&&&&....            ",
"        ........&&&&&&&&&&&&&&&&&&&&&&&&&&&&&&&&....            ",
"        ........&&&&&&&&&&&&&&&&&&&&&&&&&&&&&&&&....            "};
