/* XPM */
static char *cow_faceset[] = {
/* columns rows colors chars-per-pixel */
"38 38 7 1 ",
"  c #141B1B",
". c #F2AD7D",
"X c #5F7160",
"o c #F2EAF1",
"O c #D3A2C0",
"+ c #D78B4A",
"@ c white",
/* pixels */
"                                      ",
"                                      ",
"                                      ",
"            .          .              ",
"           ...        ...             ",
"           ...        ...      XXXX   ",
" oooo      ....      ....    XXXXXXX  ",
"ooooooo    ....      ....   XXX  XXXX ",
"oooooooo   ooooooooooooooo XXX    XX  ",
" oOOOoooooooooooooooooooooooX    XX   ",
" ooOOOOOoooooooooooooooooooooO  XX    ",
"  ooOOOooooooooooooooooooooooooXX     ",
"   oOOoooooooooooooooooooooooooO   XXX",
"    OooooooooooooooooooooooooooOOXXXXX",
"    ooooooooo  ooooo  ooooooooooOXXXXX",
"   oooooooooo  ooooo  ooooooooooOOXXXX",
"   oooooooooo  ooooo  ooooooooooOOXXXX",
"  ooooooooooo  ooooo  ooooooooooOOXXXX",
"  oooooooOOOo  ooooo  oOOOooooooOOXXXX",
"  ooooooOOOOOoooooooooOOOOOoooooOOXXXX",
"  oooooooOOOoooooooooooOOOoooooOOOXXXX",
"  oooooooooooooooooooooooooooooOOOXXXX",
"  oooooooo.............ooooooooOOXXXXX",
"   ooo.....................oooOOOXXXXX",
"   o..........................OOOXXXXX",
"   .....+++.........+++.......+OXXXXXX",
"   ....+++++.......+++++......++OXXXXX",
"   ....+++++.......+++++......++OOXXXX",
"    ....+++.........+++......++OOOOXXX",
"    .........................++OOOOOXX",
"    ........................++OOOOOOOO",
"     .......................++OOOOOOOO",
"     ......................++OOOOOOOOO",
"      ....++++++++++++....++OOOOOOOOOO",
"       ...................XOOOOOOOOOXX",
"          .............XXXOOOOOOOXXXXX",
"                 XXXXXXOOOOOOOOOXXXXXX",
"            OOOOOOOOOOOOOOOOOOOXXXXXXX"
};
