/* XPM */
static char *interior_tile284[] = {
/* columns rows colors chars-per-pixel */
"16 16 5 1 ",
"  c #4E484A",
". c #3B3643",
"X c #816855",
"o c #695953",
"O c white",
/* pixels */
"             ...",
" XXXXX   oooo ..",
"XXXXXXX ooooo  .",
"XXXXXXX ooooooo ",
" XXXXX   ooooo  ",
"                ",
"ooo   ooXXX   oo",
"oooo oooXXXX ooo",
"oooo ooooooo ooo",
"ooo   ooooo   oo",
"                ",
"  ooooo   ooooo ",
" ooooooo ooooooo",
".  ooooo ooooooo",
".. oooo   ooooo ",
"...             "
};
