/* XPM */
static char *interior_tile298[] = {
/* columns rows colors chars-per-pixel */
"16 16 4 1 ",
"  c #4E484A",
". c #695953",
"X c #816855",
"o c white",
/* pixels */
"                ",
" .....   XXXXX  ",
"....... XXXXXXX ",
"....... XXXXXXX ",
" .....   XXXXX  ",
"                ",
"...   .....   ..",
".... ....... ...",
".... ....... ...",
"...   .....   ..",
"                ",
"  XXXXX   ..... ",
" XXXXXXX .......",
" XXXXXXX .......",
"  XXXXX   ..... ",
"                "
};
