/* XPM */
static char *smoke4[] = {
/* columns rows colors chars-per-pixel */
"32 32 3 1 ",
"  c #5F7160",
". c #8D977F",
"X c None",
/* pixels */
"XXXXXXXXXXXXXXXXXXXXXXXXXXXXXXXX",
"XXXXXXXXXXXXXXXXXXXXXXXXXXXXXXXX",
"XXXXXXXXXXXXXXXXXXXXXXXXXXXXXXXX",
"XXXXXXXXXXXXXXXXXXXX      XXXXXX",
"XXXXXXXXXXX    XXXX        XXXXX",
"XXXXXXXXXX  ... XX .....    XXXX",
"XXXXXXXXX  .....XX.XX....    XXX",
"XXXXXXXXX ......XXXXX.....   XXX",
"XXXX    X ...... XXXXX....   XXX",
"XXX  ...X ...... XXXXXX.X..  XXX",
"XX   ...XX .... XXX.XXX.X..  XXX",
"XX  ......XX....XXXX..XXX..  XXX",
"XX  .....XX..... XXXXXXXX.. XXXX",
"XX  .....XX..... XXXXXXX.. XXXXX",
"XX  .....XX..... XXXXXXXXXXXXXXX",
"XX  .....XX....  X...XXXXXXXXXXX",
"XX  ..XXXXXX    X.... XXXXXXXXXX",
"XXX  XXXXXXXXXXXX.... XXXXXXXXXX",
"XXXX  X  XXXXXXXX ..  XXXX. XXXX",
"XXXXX  ..XXXXXXXXX   XXX.XX. XXX",
"XXXX  ..XXX...XXXXXXXXXX..X. XXX",
"XXX  ...XX.... XXXXXXXXX.... XXX",
"XXX  ...XX.... XXXXXXXX....  XXX",
"XXX   ..XX...  XXX.X.......  XXX",
"XXX   ...XX   XXXX.XX.....   XXX",
"XXXX   ..XXXXXXXXX .....    XXXX",
"XXXXX   ...XXXXXXXX        XXXXX",
"XXXXXXXXXXXXXXXXXXXXX     XXXXXX",
"XXXXXXXXXXXXXXXXXXXXXXXXXXXXXXXX",
"XXXXXXXXXXXXXXXXXXXXXXXXXXXXXXXX",
"XXXXXXXXXXXXXXXXXXXXXXXXXXXXXXXX",
"XXXXXXXXXXXXXXXXXXXXXXXXXXXXXXXX"
};
