/* XPM */
static char *smoke[] = {
/* columns rows colors chars-per-pixel */
"192 32 6 1 ",
"  c #4E484A",
". c #5F7160",
"X c #8D977F",
"o c #ABC2BC",
"O c #F2EAF1",
"+ c None",
/* pixels */
"++++++++++++++++++++++++++++++++++++++++++++++++++++++++++++++++++++++++++++++++++++++++++++++++++++++++++++++++++++++++++++++++++++++++++++++++++++++++++++++++++++++++++++++++++++++++++++++++",
"++++++++++++++++++++++++++++++++++++++++++++++++++++++++++++++++++++++++++++++++++++++++++++++++++++++++++++++++++++++++++++++++++++++++++++++++++++++++++++++++++++++++++++++++++++++++++++++++",
"++++++++++++++++++++++++++++++++++++++++++++++++++++++++++++++++++++++++++++++++++++++++++++++++++++++++++++++++++++++++++++++++++++++++++++++++++++++++++++++++++++++++++++++++++++       +++++",
"++++++++++++++++++++++++++++++++++++++++++++++++++++++++++++++++++++++++++++++++++++++++++++++++++++++++++++++++++++++++++++++++++++++++++++++++++++......+++++++++++++++++    ++++         ++++",
"++++++++++++++++++++++++++++++++++++++++++++++++++++++++++++++++++++++++++++++++++++++++++++++++++++++++++++++++++XXXXXXX++++++++++++++++++....++++........+++++++++++++++  ... ++ ......    +++",
"+++++++++++++++++++++++++++++++++++++++++++++++++++++++++++++++++++++++++++++++++++++++++++++++++++++++++++ooXX++XoooooXXXX+++++++++++++++..XXX.++.XXXXX....+++++++++++++  .....+++++++...    ++",
"++++++++++++++++++++++++++++++++++++++++++++++++++++++++++++++++++++++++++++++++++++++++++++++++++++++++++ooooXXXoooooooXXXX+++++++++++++..XXXXX++X++XXXX....++++++++++++ ....+++++++++++..   ++",
"++++++++++++++++++++++++++++++++++++++++++++++++++++++++++++++++++++++++++++++++++++++++++++++++++++++++++ooooXXooooooooXXXX+++++++++++++.XXXXXX+++++XXXXX...++++++    +  ...+++++++++++++.   ++",
"+++++++++++++++++++++++++++++++++++++++++++++++++++++++++++++++++++++++++ooooo+oooooo+++++++++++++++++++++XooXXXooooooooXXXXX+++++++....+.XXXXXX.+++++XXXX...+++++  ...+  ..+++++++++++++++.  ++",
"++++++++++++++++++++++++++++++++++++++++++++++++++++++++++++++++++++++++ooooooooOOOooo++++++++++++++++XXXXXXXXXXooooooooXXXXX++++++..XXX+.XXXXXX.++++++X+XX..+++++  ...++ ..+++++++++++++++.  ++",
"++++++++++++++++++++++++++++++++++++++++++OOOO+OOOOO+++++++++++++++++++oOOOooooOOOOoooX+++++++++++++XoooXXXXXXXXooooooooXXXXX+++++...XXX++.XXXX.+++X+++X+XX..++++   ..++++ ....++++++++++++.  ++",
"+++++++++++++++++++++++++++++++++++++++++OOOOOOOOOOOOo+++++++++++++++++oOOOooooOOOOooXX++++++++++++XoooooXXXXX+XXooooooXXXXXX+++++..XXXXXX++XXXX++++XX+++XX..++++  ..+++++..... ++++++++++..  ++",
"++++++++++++++++++++++++++++++++++++++++OOOOOOOOOOOOOo+++++++++++++++++oOOooooooOOooXXX++++++++++++XoooooXXXXX+XXXooooXXXXXX++++++..XXXXX++XXXXX.++++++++XX.+++++  ..+++++..... ++++++++++.. +++",
"++++++++++++++++++++++++++++++++++++++++OOOOOOOOOOOOooo++++++++++++++++ooooooXoooooXoooo+++++++++++XoooooXXXXooXXXXXXXXXXXXX++++++..XXXXX++XXXXX.+++++++XX.++++++  ..+++++..... +++++++++.. ++++",
"++++++++++++++++++++++++++++++++++++++++OOOOOOOoOOooooo++++++++++++++++oooooXXXoooooooooo++++++++++XXoooXXXXooooXXXXXXXXXXX+++++++..XXXXX++XXXXX.++++++++++++++++  ..+++++....  ++++++++++++++++",
"+++++++++++++++OOO+++++++++++++++++++++++OOOOoXoOOOOOOO+++++++++++++++OOOoXXXXXXXooooooooX++++++++++XXXXXXXXooooXXXXXXXX++++++++++..XXXXX++XXXX..+XXX++++++++++++  ..++++++    +++++++++++++++++",
"+++++++++++++OOOOOOO++++++++++++++++++++OOOOOXXXoOOOOOO++++++++++++++oOOOoooXXXXXooooooooX+++++++++++XXXXXX+XooXXX+++XXXXX++++++++..XX++++++....+XXXX.+++++++++++  ..++++++++++++++..+++++++++++",
"++++++++++++OOOOOOOOO++++++++++++++++++OOOOOOXXXoOOOOOOo+++++++++++++oOOOoooXXXXXXoooooooX+++++++++++++++++++XXXXX++oooXXXX++++++++..++++++++++++XXXX.++++++++++++  ++++++++++++++... ++++++++++",
"+++++++++++OOOOOOOOOOo+++++++++++++++++OOOOOooooooOOOOOo+++++++++++++oooooooXXoooXoooooooX++++++++++++++ooooXXXXX++oooooXXXX++++++++..+..++++++++.XX..++++X.+++++++  + +++++++++++... +++++. +++",
"+++++++++++OOOOOOOOOoo+++++++++++++++++OOOOooOOOooOOOOoo+++++++++++++oooooooOOOOoooXooooXX+++++++++++++ooooooXX+++ooooooXXXX+++++++++..XX+++++++++...+++X++X.+++++++  +++++++++++++  +++++++. ++",
"+++++++++++OOOOOOOOOoo+++++++++++++++++oooooOOOOOoXoooo++++++++++++++oooooXOOOOOOooXXXXXXX++++++++++++oooooooXXX++ooooooXXXXX+++++++..XX+++XXX++++++++++XX+X.++++++  ++++++...++++++++++++++. ++",
"+++++++++++OOOOOOOOooo++++++++++++++++++ooooOOOOooXXooo++++++++++++++oooXXXOOOOOOooXXXXXX+++++++++++++oooooooXXX++ooooooXXXXX++++++..XXX++XXXX.+++++++++XXXX.+++++  .+++++.....++++++++++++.. ++",
"+++++++++++OOOOOOOoooo+++++++++++++++++++++ooOooooX+++++++++++++++++++XXXXoOOOOOoooXXXXX++++++++++++++ooooooXXXX++XooooXXXXXX++++++..XXX++XXXX.++++++++XXXX..+++++  .+++++.....++++++++++++.  ++",
"++++++++++++ooooooooo++++++++++++++++++++++oooooooX+++++++++++++++++++++++ooOOoooooX++++++++++++++++++ooooooXXXX++XXXXXXXXXX+++++++...XX++XXX..+++X+XXXXXXX..+++++  .+++++.....++++++++++++.  ++",
"+++++++++++++ooooooo++++++++++++++++++++++++oooooo++++++++++++++++++++++++ooooooooXX++++++++++++++++++XooooXXXXX+++XXXXXXXX++++++++...XXX++...++++X++XXXXX...+++++   .++++.....+++.+++++++..  ++",
"++++++++++++++ooooo++++++++++++++++++++++++++oooo++++++++++++++++++++++++++XooooXXX++++++++++++++++++++XXXXXXXX+++++XXXXX+++++++++++...XX+++++++++.XXXXX....++++++   ..++++...++++.+++++...   ++",
"++++++++++++++++++++++++++++++++++++++++++++++++++++++++++++++++++++++++++++XXXXXXX+++++++++++++++++++++XXXXX++++++++++++++++++++++++...XXX++++++++........++++++++   ..++++++++++ ......    +++",
"+++++++++++++++++++++++++++++++++++++++++++++++++++++++++++++++++++++++++++++XXXXX+++++++++++++++++++++++++++++++++++++++++++++++++++++++++++++++++++.....++++++++++   ....++++++++         ++++",
"+++++++++++++++++++++++++++++++++++++++++++++++++++++++++++++++++++++++++++++++++++++++++++++++++++++++++++++++++++++++++++++++++++++++++++++++++++++++++++++++++++++++++++++++++++++      +++++",
"++++++++++++++++++++++++++++++++++++++++++++++++++++++++++++++++++++++++++++++++++++++++++++++++++++++++++++++++++++++++++++++++++++++++++++++++++++++++++++++++++++++++++++++++++++++++++++++++",
"++++++++++++++++++++++++++++++++++++++++++++++++++++++++++++++++++++++++++++++++++++++++++++++++++++++++++++++++++++++++++++++++++++++++++++++++++++++++++++++++++++++++++++++++++++++++++++++++",
"++++++++++++++++++++++++++++++++++++++++++++++++++++++++++++++++++++++++++++++++++++++++++++++++++++++++++++++++++++++++++++++++++++++++++++++++++++++++++++++++++++++++++++++++++++++++++++++++"
};
