/* XPM */
static char *cg_dead[] = {
/* columns rows colors chars-per-pixel */
"16 16 8 1 ",
"  c #141B1B",
". c #D14B34",
"X c #A3754E",
"o c #56864C",
"O c #EF914F",
"+ c #F1C471",
"@ c #FCE2CA",
"# c None",
/* pixels */
"################",
"################",
"################",
"###  #   ## ####",
"## oo ooo  @ ###",
"#   ooooooo@@ ##",
" oooo+ooo+oo ###",
"# ooooo+ooooo ##",
" oooooooooooo ##",
" o ooooooooooo #",
"  oooOOooOOooo #",
" . oO  Oo  Oo . ",
" . o..OOOO..o . ",
" OO OO    OO OO ",
" OOXXXXXXXXXXOO ",
"#XX##########XX#"
};
