/* XPM */
static char *cg_item[] = {
/* columns rows colors chars-per-pixel */
"16 16 9 1 ",
"  c #141B1B",
". c #4E484A",
"X c #D14B34",
"o c #965340",
"O c #A3754E",
"+ c #56864C",
"@ c #EF914F",
"# c #FCE2CA",
"$ c None",
/* pixels */
"$$$   $$$$$ $$$$",
"$$ +++     # $$$",
"$ + ++++++ ## $$",
"$  +++++++++  $$",
" ++++@ @+ @++ $$",
"    XX@@@@XX   $",
" @@ @@@  @@@ @@ ",
" @@X@@@  @@@X@@ ",
" XX @@@@@@@@ XX ",
" XX @@@@@@@@ XX ",
"$ XX @@@@@@  X $",
"$ XX..XXXXooOX $",
"$$ XOOOOOO..O $$",
"$$$ O..OOO.. $$$",
"$$$ X..  ooX $$$",
"$$$ XXX  XXX $$$"
};
