/* XPM */
static char *cg_walk_down0[] = {
/* columns rows colors chars-per-pixel */
"16 16 11 1 ",
"  c #141B1B",
". c #345A52",
"X c #4E484A",
"o c #D14B34",
"O c #965340",
"+ c #A3754E",
"@ c #56864C",
"# c #EF914F",
"$ c #F1C471",
"% c #FCE2CA",
"& c None",
/* pixels */
"&&&&&&&&&& &&&&&",
"&&&  &    % &&&&",
"&& @@ @@@ %% &&&",
"&&  @@@@@@@  &&&",
"& @@@$@@@$@@X &&",
" @@@@@@$@@@@@ &&",
"& @@@@@@@@@@@@ &",
" @@@@##@@##@@@ &",
" @ @## #@ ##@o &",
"&  @oo####oo@ &&",
"&&& ###oo### . &",
"&&&  ######  . &",
"&& ooXXooOOoo &&",
"& ##++++++++## &",
"& ##OXX  OXX## &",
"&&  ooo  ooo  &&"
};
