/* XPM */
static char *fire6[] = {
/* columns rows colors chars-per-pixel */
"8 12 4 1 ",
"  c #E46D3A",
". c #FF9554",
"X c #FFE18D",
"o c None",
/* pixels */
"oooooooo",
"oooooooo",
"o   oooo",
"oo   ooo",
"oo    oo",
"o  .  oo",
"  ... oo",
" ..X. oo",
"..XXX.oo",
".XXXX.oo",
"o.XX..oo",
"oo...ooo"
};
