/* XPM */
static char *fire10[] = {
/* columns rows colors chars-per-pixel */
"8 12 3 1 ",
"  c #E46D3A",
". c #FF9554",
"X c None",
/* pixels */
"XXXXXXXX",
"XXXXXXXX",
"XXXXXXXX",
"XXXXXXXX",
"XXXXXXXX",
"XXXXXXXX",
"XX   XXX",
"XXX   XX",
"XX .. XX",
"XX .. XX",
"XXX  XXX",
"XXXXXXXX"
};
