/* XPM */
static char *fire8[] = {
/* columns rows colors chars-per-pixel */
"8 12 4 1 ",
"  c #E46D3A",
". c #FF9554",
"X c #FFE18D",
"o c None",
/* pixels */
"oooooooo",
"oooooooo",
"oooooooo",
"oooooooo",
"oo  oooo",
"ooo  ooo",
"oo    oo",
"o  .. oo",
"o..X..oo",
"o.XXX.oo",
"o..X..oo",
"oo...ooo"
};
