/* XPM */
static char *fire0[] = {
/* columns rows colors chars-per-pixel */
"8 12 3 1 ",
"  c #FF9554",
". c #FFE18D",
"X c None",
/* pixels */
"XXX XXXX",
"XX . XXX",
"XX . XXX",
"X ... XX",
"X ... XX",
"X ... XX",
"X ... XX",
"X ... XX",
"X ... XX",
"X ... XX",
"XX . XXX",
"XXX XXXX"
};
