/* XPM */
static char *fire3[] = {
/* columns rows colors chars-per-pixel */
"8 12 4 1 ",
"  c #E46D3A",
". c #FF9554",
"X c #FFE18D",
"o c None",
/* pixels */
"oooooooo",
"oooooooo",
"oooooooo",
"oo   ooo",
"o   oooo",
" ..  ooo",
" .... oo",
"..XX..oo",
".XXXX..o",
".XXXX..o",
"o.XX..oo",
"oo...ooo"
};
