/* XPM */
static char *fire7[] = {
/* columns rows colors chars-per-pixel */
"8 12 4 1 ",
"  c #E46D3A",
". c #FF9554",
"X c #FFE18D",
"o c None",
/* pixels */
"oooooooo",
"oooooooo",
"oooooooo",
"oo   ooo",
"ooo   oo",
"o     oo",
"   .. oo",
" .... oo",
"..XX..oo",
".XXXX.oo",
"o.XX..oo",
"oo...ooo"
};
