/* XPM */
static char *desert_tile189[] = {
/* columns rows colors chars-per-pixel */
"16 16 10 1 ",
"  c #141B1B",
". c #546626",
"X c #4A7F4B",
"o c #965746",
"O c #BD7959",
"+ c #74A334",
"@ c #ADBC3A",
"# c #C69469",
"$ c #D2B37D",
"% c None",
/* pixels */
"%%%%%%%%%%%%%%%%",
"%.....%%%%%XXXX%",
"%.XXXX.%%%X++++X",
"%.XXXoX % oo++X%",
"%%.XXXoX OO++ %%",
"%%%. XoX O   $$%",
"%%%$$ oo   $$$$$",
"%$$$$  oOO    $%",
"%%$$+@@OOOO+++ %",
"%%%+@@O@@OO +++ ",
"%%%+@O@@  OO ++ ",
"%%+@@@@ $ ##   %",
"%%+@@@ $ ### $$$",
"%% @@ $$#### $$%",
"%%%  %%%%$##%%%%",
"%%%%%%%%%%%%%%%%"
};
