/* XPM */
static char *nature_tile248[] = {
/* columns rows colors chars-per-pixel */
"16 16 4 1 ",
"  c #141B1B",
". c #74A334",
"X c #ADBC3A",
"o c None",
/* pixels */
"ooooooooo  ooooo",
"oooooooo XX oooo",
"ooo  oo XXXX ooo",
"oo XX o XXXX ooo",
"oo XXX  XXXX   o",
"oo XXXX XXX XXX ",
"oo XXXXX.XX.XXX ",
"ooo XXXX.X.XXXX ",
"oo   .XX...XXX o",
"o XXXX.......  o",
"o XXXXX....XXXX ",
"o XXXX....XXXXX ",
"oo  ...XXX.XXX o",
"oooo..XXXX    oo",
"ooooooXXXooooooo",
"oooooooooooooooo"
};
