/* XPM */
static char *nature_tile244[] = {
/* columns rows colors chars-per-pixel */
"16 16 4 1 ",
"  c #141B1B",
". c #74A334",
"X c #ADBC3A",
"o c None",
/* pixels */
"oooo  oo  oooooo",
"oooo X o . o  oo",
"oooo X   .  X oo",
"oooo XX .. XX oo",
"ooo XXX ..XXX oo",
"ooo XXX .XXX.. o",
"oo XXX.XXXXX.. o",
"oo XX..XXX.  XX ",
"oo X...X...X XX ",
"o  ...XX..XX.XX ",
"o X ..X..XXX.XX ",
"o XX .X.XXX.XXX ",
"ooXXX..XXXX.XXXo",
"oooXX.XXXX..XXoo",
"ooooooXXXX.Xoooo",
"oooooooooooooooo"
};
