/* XPM */
static char *nature_tile243[] = {
/* columns rows colors chars-per-pixel */
"16 16 4 1 ",
"  c #141B1B",
". c #74A334",
"X c #ADBC3A",
"o c None",
/* pixels */
"oooooooooooooooo",
"oooooooooooooooo",
"ooo  o  ooo  ooo",
"oo X o . o X o  ",
"o .X  ..  .X  . ",
"o .XX ...X.. .. ",
"   XX..XX..X... ",
" .. ...XX.XX... ",
" ...XX.XX.XXX. o",
"o X.XX..XXXXX.X ",
"o.XXXXXXXXXXXXX.",
"o.XXXXXXXXXXXXX.",
"oXXXXXXXXXXXXXXo",
"ooXXXXXXXXXXXXoo",
"ooooXXXXXXXXoooo",
"oooooooooooooooo"
};
