/* XPM */
static char *desert_tile188[] = {
/* columns rows colors chars-per-pixel */
"16 16 4 1 ",
"  c #965746",
". c #BD7959",
"X c #C69469",
"o c None",
/* pixels */
"oooooo   ooooooo",
"oo  o  .. o   oo",
"o ..    ..   ooo",
"oo ..          o",
"o  .    ..    . ",
" .. .. ..    .. ",
"o .  .    X .. o",
"o    ..  XX .  o",
"o  XX . XX...X o",
" XX.XX. X...XX o",
"o X..X..X.XXX..o",
"o....XX.X.X.. .o",
"oo. ..XX..X.. oo",
"oooo..... . oooo",
"oooooo. . oooooo",
"oooooooooooooooo"
};
