/* XPM */
static char *nature_tile249[] = {
/* columns rows colors chars-per-pixel */
"16 16 4 1 ",
"  c #141B1B",
". c #74A334",
"X c #ADBC3A",
"o c None",
/* pixels */
"oooooooooooooooo",
"oooooooo   ooooo",
"      o XX ooooo",
" XXXX. XX.      ",
"o  XXX XX .XXXX ",
"ooo ...XX.XXX  o",
"ooo XXX.X.XX ooo",
"    .XXX.XXX ooo",
" XXX..XXX.XX    ",
"o XXX..XX.X XXX ",
"oo XX..XXX.XXX o",
"o   ....XX.XX oo",
"o XXXXX..... ooo",
"oo  XXXX.... ooo",
"oooo XXXoooooooo",
"oooooooooooooooo"
};
