/* XPM */
static char *nature_tile240[] = {
/* columns rows colors chars-per-pixel */
"16 16 4 1 ",
"  c #141B1B",
". c #74A334",
"X c #ADBC3A",
"o c None",
/* pixels */
"oooooooooooooooo",
"oooooooooooooooo",
"oooooooooooooooo",
"ooooo    ooooooo",
"ooooo XXX o    o",
"ooo  .XXX. XXX o",
"oo XXX.XXXXXXX o",
"o XXXX.XXXXXX  o",
"o XXXXXXXXXX.. o",
"oo ..XXXXXXXXX  ",
"o XXXXXXXXXXXXX ",
"o XXXXXXXXX.XXX ",
"o XX..XXXXXX.XX ",
"o   .XXX.XXXX.  ",
"ooo .XXX..XXX oo",
"oooo  ....    oo"
};
