/* XPM */
static char *nature_tile270[] = {
/* columns rows colors chars-per-pixel */
"16 16 10 1 ",
"  c #141B1B",
". c #4A7F4B",
"X c #717A6F",
"o c #74A334",
"O c #ADBC3A",
"+ c #F1AE41",
"@ c #FFE166",
"# c #A6B8A1",
"$ c #F2EAF1",
"% c None",
/* pixels */
"%%%%%%%%%%%%%%%%",
"%%%%%%%%%%%%%%%%",
"%%%          %%%",
"%% $$$$oo$$$$ %%",
"% $$$$@@@@$$$$ %",
"% $$$@@@@@+$$$ %",
"% OO#@@@@@+#OO %",
" OOO$#++++#$OOO ",
" Oo$$$#XX#$$$oO ",
"  $$$$$##$$$$$  ",
"  $$$$$OO$$$$$  ",
" OO$$$$OO$$$$OO ",
" OOoo.oOOo.ooOO ",
" oo   oOOo   oo ",
"    %% oo %%    ",
"%%%%%%%  %%%%%%%"
};
