/* XPM */
static char *nature_tile272[] = {
/* columns rows colors chars-per-pixel */
"16 16 4 1 ",
"  c #546626",
". c #74A334",
"X c #ADBC3A",
"o c None",
/* pixels */
"oooooooooooooooo",
"ooooooo   oooooo",
"oooooo XXX ooooo",
"o   o XXXX    oo",
" XXX .XXX XXXX o",
" XXXX.XX.XXXXX o",
"o XXX.....XXX  o",
"oo XX.XXXX.X.XX ",
"o .X.XXXXX..XXX ",
" XX..XXX...XXX o",
" XXX.XX....XXX o",
"o XX.XX.XX.XXX.o",
"o.XX.X..XXX.XX.o",
"oo.......XX...oo",
"oooo........oooo",
"oooooooooooooooo"
};
