/* XPM */
static char *nature_tile250[] = {
/* columns rows colors chars-per-pixel */
"16 16 4 1 ",
"  c #141B1B",
". c #74A334",
"X c #ADBC3A",
"o c None",
/* pixels */
"oooo  oooo  oooo",
"ooo .. o  ..  oo",
"    ... XX..XX o",
" XXX...XXX.XXX o",
" XXXX.XXX..XX.X ",
"o XXX.XXX.XXX.X ",
"o XXX.XXX.XXXXX ",
" ..XX.XXXXXXXX..",
" XX.XXXXXXXXX.X.",
" XXXXXXXXXXXXXX.",
"o XXXXXXXXXXXXX.",
"ooXXXXXXXX.XXX.o",
"oooXXXXXX.XXXXoo",
"ooooXXXXX.XXXooo",
"oooooooooooooooo",
"oooooooooooooooo"
};
