/* XPM */
static char *nature_tile264[] = {
/* columns rows colors chars-per-pixel */
"16 16 8 1 ",
"  c #141B1B",
". c #17331F",
"X c #4A7F4B",
"o c #A16240",
"O c #74A334",
"+ c #F1AE41",
"@ c #FFE166",
"# c None",
/* pixels */
"########    ####",
"####     @@   ##",
"#### @@+@@@+@@ #",
"#### @@+ooo+@@ #",
"####  @ooooo+   ",
"###   +ooooo@@@ ",
"### @@@+ooo+@@ #",
"#### @@++@@++ ##",
"###     @@@+ ###",
"## OOO ..     ##",
"# OOXXXXXXXOOO #",
"#  OOOXX OOOO ##",
"###   XX     ###",
"###### X #######",
"###ooo X ooo####",
"################"
};
