/* XPM */
static char *nature_tile246[] = {
/* columns rows colors chars-per-pixel */
"16 16 4 1 ",
"  c #141B1B",
". c #74A334",
"X c #ADBC3A",
"o c None",
/* pixels */
"oooooooooooooooo",
"oooooooooooooooo",
"oooooooooooooooo",
"oooooooo    oooo",
"oooo    XXXX ooo",
"ooo XXXX XXXX oo",
"oo XX......XX oo",
"o XX.XXX.XX.XX o",
"o X.XXX...XX.X o",
"o X.XX.....X.X o",
"o X.X........X o",
"ooX..........Xoo",
"ooo..........ooo",
"ooooo......ooooo",
"oooooooooooooooo",
"oooooooooooooooo"
};
