/* XPM */
static char *nature_tile268[] = {
/* columns rows colors chars-per-pixel */
"16 16 5 1 ",
"  c #141B1B",
". c #153128",
"X c #4A7F4B",
"o c #74A334",
"O c None",
/* pixels */
"OOOOOOOOOOOOOOOO",
"OOOOOOOOOOOOOOOO",
"OOOOOO    OOOOOO",
"OOO   XXXX   OOO",
"OO ooo.XX.oo  OO",
"O XXXXoXXoXXXX O",
"O oooXX..XXooo O",
" oooooX..Xooooo ",
" oXXXXXXXXXXXXo ",
"   oooXooXooo   ",
"  ooooXooXoooo  ",
" oooo.XooX.oooo ",
" ooXX.XooX.XXoo ",
" XX   XooX   XX ",
"    OO XX OO    ",
"OOOOOOO  OOOOOOO"
};
