/* XPM */
static char *nature_tile265[] = {
/* columns rows colors chars-per-pixel */
"16 16 8 1 ",
"  c #141B1B",
". c #4A7F4B",
"X c #954625",
"o c #D4683B",
"O c #74A334",
"+ c #F1AE41",
"@ c #FFE166",
"# c None",
/* pixels */
"########   #####",
"###   # @@@ ####",
"## @@+  @@@   ##",
"## @@++ ++ @@@ #",
"## +++oooo+@@@ #",
"##   oooooX++  #",
"# @@+oooooX+@@@ ",
"# @@+XoooX+ @@@ ",
"# @  +XXX+++ @@ ",
"## @@+.@@.+@@  #",
"## @@@.@@.@@@ ##",
"### .. .....  ##",
"## OO...OO.OO ##",
"## OOO  OO OO ##",
"###   # OO   ###",
"###### OO ######"
};
