/* XPM */
static char *nature_tile196[] = {
/* columns rows colors chars-per-pixel */
"16 16 6 1 ",
"  c #141B1B",
". c #A16240",
"X c #E67C44",
"o c #FFAD5D",
"O c #EECF9B",
"+ c None",
/* pixels */
"++++++++++++++++",
"++++++    ++++++",
"++++  OOOO  ++++",
"+++ OOooooOO +++",
"++ OOOOOOOoOO ++",
"++ OOOooOOoOO ++",
"++ OOoOOOOoOO ++",
"++ OOOooooOOO ++",
"++ XOOOOOOOOX ++",
"++ XXOOOOOOXX ++",
"++ .XXXXXXX.X ++",
"  ..XXXXX.....  ",
"....XXXXX.......",
"+++XXXXX......++",
"++XXX...+++..+++",
"+XX..+++++++.+++"
};
