/* XPM */
static char *cg_walk_down3[] = {
/* columns rows colors chars-per-pixel */
"64 64 10 1 ",
"  c #141B1B",
". c #4E484A",
"X c #D14B34",
"o c #965340",
"O c #A3754E",
"+ c #56864C",
"@ c #EF914F",
"# c #F1C471",
"$ c #FCE2CA",
"% c None",
/* pixels */
"%%%%%%%%%%%%%%%%%%%%%%%%%%%%%%%%%%%%%%%%    %%%%%%%%%%%%%%%%%%%%",
"%%%%%%%%%%%%%%%%%%%%%%%%%%%%%%%%%%%%%%%%    %%%%%%%%%%%%%%%%%%%%",
"%%%%%%%%%%%%%%%%%%%%%%%%%%%%%%%%%%%%%%%%    %%%%%%%%%%%%%%%%%%%%",
"%%%%%%%%%%%%%%%%%%%%%%%%%%%%%%%%%%%%%%%%    %%%%%%%%%%%%%%%%%%%%",
"%%%%%%%%%%%%        %%%%                $$$$    %%%%%%%%%%%%%%%%",
"%%%%%%%%%%%%        %%%%                $$$$    %%%%%%%%%%%%%%%%",
"%%%%%%%%%%%%        %%%%                $$$$    %%%%%%%%%%%%%%%%",
"%%%%%%%%%%%%        %%%%                $$$$    %%%%%%%%%%%%%%%%",
"%%%%%%%%    ++++++++    ++++++++++++    $$$$$$$$    %%%%%%%%%%%%",
"%%%%%%%%    ++++++++    ++++++++++++    $$$$$$$$    %%%%%%%%%%%%",
"%%%%%%%%    ++++++++    ++++++++++++    $$$$$$$$    %%%%%%%%%%%%",
"%%%%%%%%    ++++++++    ++++++++++++    $$$$$$$$    %%%%%%%%%%%%",
"%%%%%%%%        ++++++++++++++++++++++++++++        %%%%%%%%%%%%",
"%%%%%%%%        ++++++++++++++++++++++++++++        %%%%%%%%%%%%",
"%%%%%%%%        ++++++++++++++++++++++++++++        %%%%%%%%%%%%",
"%%%%%%%%        ++++++++++++++++++++++++++++        %%%%%%%%%%%%",
"%%%%    ++++++++++++####++++++++++++####++++++++....    %%%%%%%%",
"%%%%    ++++++++++++####++++++++++++####++++++++....    %%%%%%%%",
"%%%%    ++++++++++++####++++++++++++####++++++++....    %%%%%%%%",
"%%%%    ++++++++++++####++++++++++++####++++++++....    %%%%%%%%",
"    ++++++++++++++++++++++++####++++++++++++++++++++    %%%%%%%%",
"    ++++++++++++++++++++++++####++++++++++++++++++++    %%%%%%%%",
"    ++++++++++++++++++++++++####++++++++++++++++++++    %%%%%%%%",
"    ++++++++++++++++++++++++####++++++++++++++++++++    %%%%%%%%",
"%%%%    ++++++++++++++++++++++++++++++++++++++++++++++++    %%%%",
"%%%%    ++++++++++++++++++++++++++++++++++++++++++++++++    %%%%",
"%%%%    ++++++++++++++++++++++++++++++++++++++++++++++++    %%%%",
"%%%%    ++++++++++++++++++++++++++++++++++++++++++++++++    %%%%",
"    ++++++++++++++++@@@@@@@@++++++++@@@@@@@@++++++++++++    %%%%",
"    ++++++++++++++++@@@@@@@@++++++++@@@@@@@@++++++++++++    %%%%",
"    ++++++++++++++++@@@@@@@@++++++++@@@@@@@@++++++++++++    %%%%",
"    ++++++++++++++++@@@@@@@@++++++++@@@@@@@@++++++++++++    %%%%",
"    ++++    ++++@@@@@@@@    @@@@++++    @@@@@@@@++++XXXX    %%%%",
"    ++++    ++++@@@@@@@@    @@@@++++    @@@@@@@@++++XXXX    %%%%",
"    ++++    ++++@@@@@@@@    @@@@++++    @@@@@@@@++++XXXX    %%%%",
"    ++++    ++++@@@@@@@@    @@@@++++    @@@@@@@@++++XXXX    %%%%",
"%%%%        ++++XXXXXXXX@@@@@@@@@@@@@@@@XXXXXXXX++++    %%%%%%%%",
"%%%%        ++++XXXXXXXX@@@@@@@@@@@@@@@@XXXXXXXX++++    %%%%%%%%",
"%%%%        ++++XXXXXXXX@@@@@@@@@@@@@@@@XXXXXXXX++++    %%%%%%%%",
"%%%%        ++++XXXXXXXX@@@@@@@@@@@@@@@@XXXXXXXX++++    %%%%%%%%",
"%%%%%%%%        @@@@@@@@@@@@XXXXXXXX@@@@@@@@@@@@    XXXX    %%%%",
"%%%%%%%%        @@@@@@@@@@@@XXXXXXXX@@@@@@@@@@@@    XXXX    %%%%",
"%%%%%%%%        @@@@@@@@@@@@XXXXXXXX@@@@@@@@@@@@    XXXX    %%%%",
"%%%%%%%%        @@@@@@@@@@@@XXXXXXXX@@@@@@@@@@@@    XXXX    %%%%",
"%%%%%%%%%%%%        @@@@@@@@@@@@@@@@@@@@@@@@        XXXX    %%%%",
"%%%%%%%%%%%%        @@@@@@@@@@@@@@@@@@@@@@@@        XXXX    %%%%",
"%%%%%%%%%%%%        @@@@@@@@@@@@@@@@@@@@@@@@        XXXX    %%%%",
"%%%%%%%%%%%%        @@@@@@@@@@@@@@@@@@@@@@@@        XXXX    %%%%",
"%%%%%%%%%%%%    XXXXXXXX........XXXXXXXXooooooooXXXX    %%%%%%%%",
"%%%%%%%%%%%%    XXXXXXXX........XXXXXXXXooooooooXXXX    %%%%%%%%",
"%%%%%%%%%%%%    XXXXXXXX........XXXXXXXXooooooooXXXX    %%%%%%%%",
"%%%%%%%%%%%%    XXXXXXXX........XXXXXXXXooooooooXXXX    %%%%%%%%",
"%%%%%%%%%%%%    XXXXXXXXXXXXOOOOOOOOOOOOOOOOOOOO    %%%%%%%%%%%%",
"%%%%%%%%%%%%    XXXXXXXXXXXXOOOOOOOOOOOOOOOOOOOO    %%%%%%%%%%%%",
"%%%%%%%%%%%%    XXXXXXXXXXXXOOOOOOOOOOOOOOOOOOOO    %%%%%%%%%%%%",
"%%%%%%%%%%%%    XXXXXXXXXXXXOOOOOOOOOOOOOOOOOOOO    %%%%%%%%%%%%",
"%%%%%%%%%%%%%%%%    @@@@@@@@....        ooooXXXX    %%%%%%%%%%%%",
"%%%%%%%%%%%%%%%%    @@@@@@@@....        ooooXXXX    %%%%%%%%%%%%",
"%%%%%%%%%%%%%%%%    @@@@@@@@....        ooooXXXX    %%%%%%%%%%%%",
"%%%%%%%%%%%%%%%%    @@@@@@@@....        ooooXXXX    %%%%%%%%%%%%",
"%%%%%%%%%%%%%%%%    @@@@@@@@    XXXXXXXXXXXX    %%%%%%%%%%%%%%%%",
"%%%%%%%%%%%%%%%%    @@@@@@@@    XXXXXXXXXXXX    %%%%%%%%%%%%%%%%",
"%%%%%%%%%%%%%%%%    @@@@@@@@    XXXXXXXXXXXX    %%%%%%%%%%%%%%%%",
"%%%%%%%%%%%%%%%%    @@@@@@@@    XXXXXXXXXXXX    %%%%%%%%%%%%%%%%"
};
