/* XPM */
static char *cg_walk_up0[] = {
/* columns rows colors chars-per-pixel */
"64 64 10 1 ",
"  c #141B1B",
". c #345A52",
"X c #4E484A",
"o c #D14B34",
"O c #965340",
"+ c #A3754E",
"@ c #56864C",
"# c #F1C471",
"$ c #FCE2CA",
"% c None",
/* pixels */
"%%%%%%%%%%%%%%%%%%%%    %%%%%%%%%%%%%%%%%%%%%%%%%%%%%%%%%%%%%%%%",
"%%%%%%%%%%%%%%%%%%%%    %%%%%%%%%%%%%%%%%%%%%%%%%%%%%%%%%%%%%%%%",
"%%%%%%%%%%%%%%%%%%%%    %%%%%%%%%%%%%%%%%%%%%%%%%%%%%%%%%%%%%%%%",
"%%%%%%%%%%%%%%%%%%%%    %%%%%%%%%%%%%%%%%%%%%%%%%%%%%%%%%%%%%%%%",
"%%%%%%%%%%%%%%%%    $$$$                %%%%        %%%%%%%%%%%%",
"%%%%%%%%%%%%%%%%    $$$$                %%%%        %%%%%%%%%%%%",
"%%%%%%%%%%%%%%%%    $$$$                %%%%        %%%%%%%%%%%%",
"%%%%%%%%%%%%%%%%    $$$$                %%%%        %%%%%%%%%%%%",
"%%%%%%%%%%%%    $$$$$$$$    @@@@@@@@@@@@    @@@@@@@@    %%%%%%%%",
"%%%%%%%%%%%%    $$$$$$$$    @@@@@@@@@@@@    @@@@@@@@    %%%%%%%%",
"%%%%%%%%%%%%    $$$$$$$$    @@@@@@@@@@@@    @@@@@@@@    %%%%%%%%",
"%%%%%%%%%%%%    $$$$$$$$    @@@@@@@@@@@@    @@@@@@@@    %%%%%%%%",
"%%%%%%%%%%%%        @@@@@@@@@@@@@@@@@@@@@@@@@@@@        %%%%%%%%",
"%%%%%%%%%%%%        @@@@@@@@@@@@@@@@@@@@@@@@@@@@        %%%%%%%%",
"%%%%%%%%%%%%        @@@@@@@@@@@@@@@@@@@@@@@@@@@@        %%%%%%%%",
"%%%%%%%%%%%%        @@@@@@@@@@@@@@@@@@@@@@@@@@@@        %%%%%%%%",
"%%%%%%%%    XXXX@@@@@@@@####@@@@@@@@@@@@####@@@@@@@@@@@@    %%%%",
"%%%%%%%%    XXXX@@@@@@@@####@@@@@@@@@@@@####@@@@@@@@@@@@    %%%%",
"%%%%%%%%    XXXX@@@@@@@@####@@@@@@@@@@@@####@@@@@@@@@@@@    %%%%",
"%%%%%%%%    XXXX@@@@@@@@####@@@@@@@@@@@@####@@@@@@@@@@@@    %%%%",
"%%%%%%%%    @@@@@@@@@@@@@@@@@@@@####@@@@@@@@@@@@@@@@@@@@@@@@    ",
"%%%%%%%%    @@@@@@@@@@@@@@@@@@@@####@@@@@@@@@@@@@@@@@@@@@@@@    ",
"%%%%%%%%    @@@@@@@@@@@@@@@@@@@@####@@@@@@@@@@@@@@@@@@@@@@@@    ",
"%%%%%%%%    @@@@@@@@@@@@@@@@@@@@####@@@@@@@@@@@@@@@@@@@@@@@@    ",
"%%%%    ....@@@@@@@@@@@@@@@@@@@@@@@@@@@@@@@@@@@@@@@@@@@@    %%%%",
"%%%%    ....@@@@@@@@@@@@@@@@@@@@@@@@@@@@@@@@@@@@@@@@@@@@    %%%%",
"%%%%    ....@@@@@@@@@@@@@@@@@@@@@@@@@@@@@@@@@@@@@@@@@@@@    %%%%",
"%%%%    ....@@@@@@@@@@@@@@@@@@@@@@@@@@@@@@@@@@@@@@@@@@@@    %%%%",
"%%%%    ........        @@@@        @@@@@@@@@@@@....@@@@@@@@    ",
"%%%%    ........        @@@@        @@@@@@@@@@@@....@@@@@@@@    ",
"%%%%    ........        @@@@        @@@@@@@@@@@@....@@@@@@@@    ",
"%%%%    ........        @@@@        @@@@@@@@@@@@....@@@@@@@@    ",
"%%%%    ....    @@@@@@@@@@@@@@@@@@@@    ............    @@@@    ",
"%%%%    ....    @@@@@@@@@@@@@@@@@@@@    ............    @@@@    ",
"%%%%    ....    @@@@@@@@@@@@@@@@@@@@    ............    @@@@    ",
"%%%%    ....    @@@@@@@@@@@@@@@@@@@@    ............    @@@@    ",
"%%%%%%%%    ........@@@@@@@@@@@@........    ........        %%%%",
"%%%%%%%%    ........@@@@@@@@@@@@........    ........        %%%%",
"%%%%%%%%    ........@@@@@@@@@@@@........    ........        %%%%",
"%%%%%%%%    ........@@@@@@@@@@@@........    ........        %%%%",
"%%%%%%%%    ............................    ....    %%%%%%%%%%%%",
"%%%%%%%%    ............................    ....    %%%%%%%%%%%%",
"%%%%%%%%    ............................    ....    %%%%%%%%%%%%",
"%%%%%%%%    ............................    ....    %%%%%%%%%%%%",
"%%%%%%%%    ............................            %%%%%%%%%%%%",
"%%%%%%%%    ............................            %%%%%%%%%%%%",
"%%%%%%%%    ............................            %%%%%%%%%%%%",
"%%%%%%%%    ............................            %%%%%%%%%%%%",
"%%%%%%%%        ....................    ooooooooXXXX    %%%%%%%%",
"%%%%%%%%        ....................    ooooooooXXXX    %%%%%%%%",
"%%%%%%%%        ....................    ooooooooXXXX    %%%%%%%%",
"%%%%%%%%        ....................    ooooooooXXXX    %%%%%%%%",
"%%%%    oooooooo++++++++++++XXXXXXXX++++++++++++oooooooo    %%%%",
"%%%%    oooooooo++++++++++++XXXXXXXX++++++++++++oooooooo    %%%%",
"%%%%    oooooooo++++++++++++XXXXXXXX++++++++++++oooooooo    %%%%",
"%%%%    oooooooo++++++++++++XXXXXXXX++++++++++++oooooooo    %%%%",
"%%%%    oooo    ooooOOOOOOOOOOOOOOOOOOOOOOOOoooo    oooo    %%%%",
"%%%%    oooo    ooooOOOOOOOOOOOOOOOOOOOOOOOOoooo    oooo    %%%%",
"%%%%    oooo    ooooOOOOOOOOOOOOOOOOOOOOOOOOoooo    oooo    %%%%",
"%%%%    oooo    ooooOOOOOOOOOOOOOOOOOOOOOOOOoooo    oooo    %%%%",
"%%%%%%%%        oooo    oooo        oooooooooooo        %%%%%%%%",
"%%%%%%%%        oooo    oooo        oooooooooooo        %%%%%%%%",
"%%%%%%%%        oooo    oooo        oooooooooooo        %%%%%%%%",
"%%%%%%%%        oooo    oooo        oooooooooooo        %%%%%%%%"
};
