/* XPM */
static char *cg_walk_left0[] = {
/* columns rows colors chars-per-pixel */
"64 64 11 1 ",
"  c #141B1B",
". c #345A52",
"X c #4E484A",
"o c #D14B34",
"O c #965340",
"+ c #A3754E",
"@ c #56864C",
"# c #EF914F",
"$ c #F1C471",
"% c #FCE2CA",
"& c None",
/* pixels */
"&&&&&&&&&&&&&&&&&&&&&&&&&&&&&&&&&&&&&&&&&&&&&&&&&&&&&&&&&&&&&&&&",
"&&&&&&&&&&&&&&&&&&&&&&&&&&&&&&&&&&&&&&&&&&&&&&&&&&&&&&&&&&&&&&&&",
"&&&&&&&&&&&&&&&&&&&&&&&&&&&&&&&&&&&&&&&&&&&&&&&&&&&&&&&&&&&&&&&&",
"&&&&&&&&&&&&&&&&&&&&&&&&&&&&&&&&&&&&&&&&&&&&&&&&&&&&&&&&&&&&&&&&",
"&&&&&&&&        &&&&&&&&                &&&&    &&&&&&&&&&&&&&&&",
"&&&&&&&&        &&&&&&&&                &&&&    &&&&&&&&&&&&&&&&",
"&&&&&&&&        &&&&&&&&                &&&&    &&&&&&&&&&&&&&&&",
"&&&&&&&&        &&&&&&&&                &&&&    &&&&&&&&&&&&&&&&",
"&&&&    @@@@@@@@        @@@@@@@@@@@@@@@@    %%%%    &&&&&&&&&&&&",
"&&&&    @@@@@@@@        @@@@@@@@@@@@@@@@    %%%%    &&&&&&&&&&&&",
"&&&&    @@@@@@@@        @@@@@@@@@@@@@@@@    %%%%    &&&&&&&&&&&&",
"&&&&    @@@@@@@@        @@@@@@@@@@@@@@@@    %%%%    &&&&&&&&&&&&",
"&&&&        @@@@@@@@@@@@@@@@@@@@@@@@$$$$@@@@%%%%%%%%    &&&&&&&&",
"&&&&        @@@@@@@@@@@@@@@@@@@@@@@@$$$$@@@@%%%%%%%%    &&&&&&&&",
"&&&&        @@@@@@@@@@@@@@@@@@@@@@@@$$$$@@@@%%%%%%%%    &&&&&&&&",
"&&&&        @@@@@@@@@@@@@@@@@@@@@@@@$$$$@@@@%%%%%%%%    &&&&&&&&",
"    @@@@@@@@@@@@@@@@$$$$@@@@$$$$@@@@@@@@@@@@@@@@    &&&&&&&&&&&&",
"    @@@@@@@@@@@@@@@@$$$$@@@@$$$$@@@@@@@@@@@@@@@@    &&&&&&&&&&&&",
"    @@@@@@@@@@@@@@@@$$$$@@@@$$$$@@@@@@@@@@@@@@@@    &&&&&&&&&&&&",
"    @@@@@@@@@@@@@@@@$$$$@@@@$$$$@@@@@@@@@@@@@@@@    &&&&&&&&&&&&",
"&&&&    @@@@@@@@@@@@@@@@@@@@@@@@@@@@@@@@@@@@@@@@XXXX    &&&&&&&&",
"&&&&    @@@@@@@@@@@@@@@@@@@@@@@@@@@@@@@@@@@@@@@@XXXX    &&&&&&&&",
"&&&&    @@@@@@@@@@@@@@@@@@@@@@@@@@@@@@@@@@@@@@@@XXXX    &&&&&&&&",
"&&&&    @@@@@@@@@@@@@@@@@@@@@@@@@@@@@@@@@@@@@@@@XXXX    &&&&&&&&",
"    @@@@@@@@@@@@############@@@@@@@@@@@@@@@@@@@@@@@@        &&&&",
"    @@@@@@@@@@@@############@@@@@@@@@@@@@@@@@@@@@@@@        &&&&",
"    @@@@@@@@@@@@############@@@@@@@@@@@@@@@@@@@@@@@@        &&&&",
"    @@@@@@@@@@@@############@@@@@@@@@@@@@@@@@@@@@@@@        &&&&",
"    @@@@    @@@@    ############@@@@@@@@@@@@    @@@@@@@@@@@@    ",
"    @@@@    @@@@    ############@@@@@@@@@@@@    @@@@@@@@@@@@    ",
"    @@@@    @@@@    ############@@@@@@@@@@@@    @@@@@@@@@@@@    ",
"    @@@@    @@@@    ############@@@@@@@@@@@@    @@@@@@@@@@@@    ",
"&&&&        ########oooooooo########@@@@    ........@@@@@@@@    ",
"&&&&        ########oooooooo########@@@@    ........@@@@@@@@    ",
"&&&&        ########oooooooo########@@@@    ........@@@@@@@@    ",
"&&&&        ########oooooooo########@@@@    ........@@@@@@@@    ",
"&&&&&&&&    oooo####################@@@@    ................    ",
"&&&&&&&&    oooo####################@@@@    ................    ",
"&&&&&&&&    oooo####################@@@@    ................    ",
"&&&&&&&&    oooo####################@@@@    ................    ",
"&&&&&&&&    ########################oooo    ................    ",
"&&&&&&&&    ########################oooo    ................    ",
"&&&&&&&&    ########################oooo    ................    ",
"&&&&&&&&    ########################oooo    ................    ",
"&&&&&&&&&&&&    ################++++++++oooo    ........    &&&&",
"&&&&&&&&&&&&    ################++++++++oooo    ........    &&&&",
"&&&&&&&&&&&&    ################++++++++oooo    ........    &&&&",
"&&&&&&&&&&&&    ################++++++++oooo    ........    &&&&",
"&&&&&&&&&&&&&&&&        ++++++++oooooooo++++XXXX        &&&&&&&&",
"&&&&&&&&&&&&&&&&        ++++++++oooooooo++++XXXX        &&&&&&&&",
"&&&&&&&&&&&&&&&&        ++++++++oooooooo++++XXXX        &&&&&&&&",
"&&&&&&&&&&&&&&&&        ++++++++oooooooo++++XXXX        &&&&&&&&",
"&&&&&&&&&&&&&&&&    XXXXXXXX    ########    ++++    &&&&&&&&&&&&",
"&&&&&&&&&&&&&&&&    XXXXXXXX    ########    ++++    &&&&&&&&&&&&",
"&&&&&&&&&&&&&&&&    XXXXXXXX    ########    ++++    &&&&&&&&&&&&",
"&&&&&&&&&&&&&&&&    XXXXXXXX    ########    ++++    &&&&&&&&&&&&",
"&&&&&&&&&&&&&&&&    OOOOOOOO    ########    OOOO    &&&&&&&&&&&&",
"&&&&&&&&&&&&&&&&    OOOOOOOO    ########    OOOO    &&&&&&&&&&&&",
"&&&&&&&&&&&&&&&&    OOOOOOOO    ########    OOOO    &&&&&&&&&&&&",
"&&&&&&&&&&&&&&&&    OOOOOOOO    ########    OOOO    &&&&&&&&&&&&",
"&&&&&&&&&&&&&&&&&&&&    oooo            oooo    &&&&&&&&&&&&&&&&",
"&&&&&&&&&&&&&&&&&&&&    oooo            oooo    &&&&&&&&&&&&&&&&",
"&&&&&&&&&&&&&&&&&&&&    oooo            oooo    &&&&&&&&&&&&&&&&",
"&&&&&&&&&&&&&&&&&&&&    oooo            oooo    &&&&&&&&&&&&&&&&"
};
