/* XPM */
static char *fire2[] = {
/* columns rows colors chars-per-pixel */
"32 48 4 1 ",
"  c #E46D3A",
". c #FF9554",
"X c #FFE18D",
"o c None",
/* pixels */
"oooooooooooooooooooooooooooooooo",
"oooooooooooooooooooooooooooooooo",
"oooooooooooooooooooooooooooooooo",
"oooooooooooooooooooooooooooooooo",
"oooooooooooooooooooooooooooooooo",
"oooooooooooooooooooooooooooooooo",
"oooooooooooooooooooooooooooooooo",
"oooooooooooooooooooooooooooooooo",
"oooooooooooo    oooooooooooooooo",
"oooooooooooo    oooooooooooooooo",
"oooooooooooo    oooooooooooooooo",
"oooooooooooo    oooooooooooooooo",
"oooooooo            oooooooooooo",
"oooooooo            oooooooooooo",
"oooooooo            oooooooooooo",
"oooooooo            oooooooooooo",
"oooooooo            oooooooooooo",
"oooooooo            oooooooooooo",
"oooooooo            oooooooooooo",
"oooooooo            oooooooooooo",
"oooooooo    ........    oooooooo",
"oooooooo    ........    oooooooo",
"oooooooo    ........    oooooooo",
"oooooooo    ........    oooooooo",
"oooo    ................    oooo",
"oooo    ................    oooo",
"oooo    ................    oooo",
"oooo    ................    oooo",
"    ....................    oooo",
"    ....................    oooo",
"    ....................    oooo",
"    ....................    oooo",
"........XXXXXXXX............oooo",
"........XXXXXXXX............oooo",
"........XXXXXXXX............oooo",
"........XXXXXXXX............oooo",
"....XXXXXXXXXXXXXXXX........oooo",
"....XXXXXXXXXXXXXXXX........oooo",
"....XXXXXXXXXXXXXXXX........oooo",
"....XXXXXXXXXXXXXXXX........oooo",
"oooo....XXXXXXXX........oooooooo",
"oooo....XXXXXXXX........oooooooo",
"oooo....XXXXXXXX........oooooooo",
"oooo....XXXXXXXX........oooooooo",
"oooooooo............oooooooooooo",
"oooooooo............oooooooooooo",
"oooooooo............oooooooooooo",
"oooooooo............oooooooooooo"
};
