/* XPM */
static char *fire6[] = {
/* columns rows colors chars-per-pixel */
"32 48 4 1 ",
"  c #E46D3A",
". c #FF9554",
"X c #FFE18D",
"o c None",
/* pixels */
"oooooooooooooooooooooooooooooooo",
"oooooooooooooooooooooooooooooooo",
"oooooooooooooooooooooooooooooooo",
"oooooooooooooooooooooooooooooooo",
"oooooooooooooooooooooooooooooooo",
"oooooooooooooooooooooooooooooooo",
"oooooooooooooooooooooooooooooooo",
"oooooooooooooooooooooooooooooooo",
"oooo            oooooooooooooooo",
"oooo            oooooooooooooooo",
"oooo            oooooooooooooooo",
"oooo            oooooooooooooooo",
"oooooooo            oooooooooooo",
"oooooooo            oooooooooooo",
"oooooooo            oooooooooooo",
"oooooooo            oooooooooooo",
"oooooooo                oooooooo",
"oooooooo                oooooooo",
"oooooooo                oooooooo",
"oooooooo                oooooooo",
"oooo        ....        oooooooo",
"oooo        ....        oooooooo",
"oooo        ....        oooooooo",
"oooo        ....        oooooooo",
"        ............    oooooooo",
"        ............    oooooooo",
"        ............    oooooooo",
"        ............    oooooooo",
"    ........XXXX....    oooooooo",
"    ........XXXX....    oooooooo",
"    ........XXXX....    oooooooo",
"    ........XXXX....    oooooooo",
"........XXXXXXXXXXXX....oooooooo",
"........XXXXXXXXXXXX....oooooooo",
"........XXXXXXXXXXXX....oooooooo",
"........XXXXXXXXXXXX....oooooooo",
"....XXXXXXXXXXXXXXXX....oooooooo",
"....XXXXXXXXXXXXXXXX....oooooooo",
"....XXXXXXXXXXXXXXXX....oooooooo",
"....XXXXXXXXXXXXXXXX....oooooooo",
"oooo....XXXXXXXX........oooooooo",
"oooo....XXXXXXXX........oooooooo",
"oooo....XXXXXXXX........oooooooo",
"oooo....XXXXXXXX........oooooooo",
"oooooooo............oooooooooooo",
"oooooooo............oooooooooooo",
"oooooooo............oooooooooooo",
"oooooooo............oooooooooooo"
};
