/* XPM */
static char *fire11[] = {
/* columns rows colors chars-per-pixel */
"32 48 2 1 ",
"  c #E46D3A",
". c None",
/* pixels */
"................................",
"................................",
"................................",
"................................",
"................................",
"................................",
"................................",
"................................",
"................................",
"................................",
"................................",
"................................",
"................................",
"................................",
"................................",
"................................",
"................................",
"................................",
"................................",
"................................",
"................................",
"................................",
"................................",
"................................",
"................................",
"................................",
"................................",
"................................",
"................    ............",
"................    ............",
"................    ............",
"................    ............",
"............            ........",
"............            ........",
"............            ........",
"............            ........",
"............            ........",
"............            ........",
"............            ........",
"............            ........",
"................    ............",
"................    ............",
"................    ............",
"................    ............",
"................................",
"................................",
"................................",
"................................"
};
