/* XPM */
static char *fire4[] = {
/* columns rows colors chars-per-pixel */
"32 48 4 1 ",
"  c #E46D3A",
". c #FF9554",
"X c #FFE18D",
"o c None",
/* pixels */
"oooooooooooooooooooooooooooooooo",
"oooooooooooooooooooooooooooooooo",
"oooooooooooooooooooooooooooooooo",
"oooooooooooooooooooooooooooooooo",
"oooooooooooooooooooooooooooooooo",
"oooooooooooooooooooooooooooooooo",
"oooooooooooooooooooooooooooooooo",
"oooooooooooooooooooooooooooooooo",
"oooooooo    oooooooooooooooooooo",
"oooooooo    oooooooooooooooooooo",
"oooooooo    oooooooooooooooooooo",
"oooooooo    oooooooooooooooooooo",
"oooo        oooooooooooooooooooo",
"oooo        oooooooooooooooooooo",
"oooo        oooooooooooooooooooo",
"oooo        oooooooooooooooooooo",
"                oooooooooooooooo",
"                oooooooooooooooo",
"                oooooooooooooooo",
"                oooooooooooooooo",
"    ........        oooooooooooo",
"    ........        oooooooooooo",
"    ........        oooooooooooo",
"    ........        oooooooooooo",
"    ............        oooooooo",
"    ............        oooooooo",
"    ............        oooooooo",
"    ............        oooooooo",
"........XXXX........    oooooooo",
"........XXXX........    oooooooo",
"........XXXX........    oooooooo",
"........XXXX........    oooooooo",
"....XXXXXXXXXXXX........oooooooo",
"....XXXXXXXXXXXX........oooooooo",
"....XXXXXXXXXXXX........oooooooo",
"....XXXXXXXXXXXX........oooooooo",
"....XXXXXXXXXXXX........oooooooo",
"....XXXXXXXXXXXX........oooooooo",
"....XXXXXXXXXXXX........oooooooo",
"....XXXXXXXXXXXX........oooooooo",
"oooo....XXXX............oooooooo",
"oooo....XXXX............oooooooo",
"oooo....XXXX............oooooooo",
"oooo....XXXX............oooooooo",
"oooooooo............oooooooooooo",
"oooooooo............oooooooooooo",
"oooooooo............oooooooooooo",
"oooooooo............oooooooooooo"
};
