/* XPM */
static char *food1[] = {
/* columns rows colors chars-per-pixel */
"64 64 2 1 ",
"  c #AF6E55",
". c None",
/* pixels */
"................................................................",
"................................................................",
"................................................................",
"................................................................",
"....            ....                ............................",
"....            ....                ............................",
"....            ....                ............................",
"....            ....                ............................",
"....                                    ........................",
"....                                    ........................",
"....                                    ........................",
"....                                    ........................",
"....                                        ....................",
"....                                        ....................",
"....                                        ....................",
"....                                        ....................",
"........                                    ....................",
"........                                    ....................",
"........                                    ....................",
"........                                    ....................",
"....                                            ................",
"....                                            ................",
"....                                            ................",
"....                                            ................",
"....                                                    ........",
"....                                                    ........",
"....                                                    ........",
"....                                                    ........",
"....                                                        ....",
"....                                                        ....",
"....                                                        ....",
"....                                                        ....",
"........                                                    ....",
"........                                                    ....",
"........                                                    ....",
"........                                                    ....",
"............                                                ....",
"............                                                ....",
"............                                                ....",
"............                                                ....",
"....................                                    ........",
"....................                                    ........",
"....................                                    ........",
"....................                                    ........",
"........................                                    ....",
"........................                                    ....",
"........................                                    ....",
"........................                                    ....",
"........................                                    ....",
"........................                                    ....",
"........................                                    ....",
"........................                                    ....",
"............................                                ....",
"............................                                ....",
"............................                                ....",
"............................                                ....",
"................................................            ....",
"................................................            ....",
"................................................            ....",
"................................................            ....",
"................................................................",
"................................................................",
"................................................................",
"................................................................"
};
