/* XPM */
static char *cow_side1[] = {
/* columns rows colors chars-per-pixel */
"96 64 7 1 ",
"  c #141B1B",
". c #4E484A",
"X c #5F7160",
"o c #F2AD7D",
"O c #D3A2C0",
"+ c #F2EAF1",
"@ c None",
/* pixels */
"@@@@@@@@@@@@@@@@@@@@@@@@@@@@@@@@@@@@@@@@@@@@@@@@@@@@@@@@@@@@@@@@@@@@@@@@@@@@@@@@@@@@@@@@@@@@@@@@",
"@@@@@@@@@@@@@@@@@@@@@@@@@@@@@@@@@@@@@@@@@@@@@@@@@@@@@@@@@@@@@@@@@@@@@@@@@@@@@@@@@@@@@@@@@@@@@@@@",
"@@@@@@@@@@@@@@@@@@@@@@@@@@@@@@@@@@@@@@@@@@@@@@@@@@@@@@@@@@@@@@@@@@@@@@@@@@@@@@@@@@@@@@@@@@@@@@@@",
"@@@@@@@@@@@@@@@@@@@@@@@@@@@@@@@@@@@@@@@@@@@@@@@@@@@@@@@@@@@@@@@@@@@@@@@@@@@@@@@@@@@@@@@@@@@@@@@@",
"@@@@@@@@@@@@@@@@    @@@@@@@@@@@@    @@@@@@@@@@@@@@@@@@@@@@@@@@@@@@@@@@@@@@@@@@@@@@@@@@@@@@@@@@@@",
"@@@@@@@@@@@@@@@@    @@@@@@@@@@@@    @@@@@@@@@@@@@@@@@@@@@@@@@@@@@@@@@@@@@@@@@@@@@@@@@@@@@@@@@@@@",
"@@@@@@@@@@@@@@@@    @@@@@@@@@@@@    @@@@@@@@@@@@@@@@@@@@@@@@@@@@@@@@@@@@@@@@@@@@@@@@@@@@@@@@@@@@",
"@@@@@@@@@@@@@@@@    @@@@@@@@@@@@    @@@@@@@@@@@@@@@@@@@@@@@@@@@@@@@@@@@@@@@@@@@@@@@@@@@@@@@@@@@@",
"@@@@@@@@        oooo    @@@@    oooo        @@@@@@@@@@@@@@@@@@@@@@@@@@@@@@@@@@@@@@@@@@@@@@@@@@@@",
"@@@@@@@@        oooo    @@@@    oooo        @@@@@@@@@@@@@@@@@@@@@@@@@@@@@@@@@@@@@@@@@@@@@@@@@@@@",
"@@@@@@@@        oooo    @@@@    oooo        @@@@@@@@@@@@@@@@@@@@@@@@@@@@@@@@@@@@@@@@@@@@@@@@@@@@",
"@@@@@@@@        oooo    @@@@    oooo        @@@@@@@@@@@@@@@@@@@@@@@@@@@@@@@@@@@@@@@@@@@@@@@@@@@@",
"@@@@    ++++++++oooo            ooooXXXXXXXX                        @@@@@@@@@@@@@@@@@@@@@@@@@@@@",
"@@@@    ++++++++oooo            ooooXXXXXXXX                        @@@@@@@@@@@@@@@@@@@@@@@@@@@@",
"@@@@    ++++++++oooo            ooooXXXXXXXX                        @@@@@@@@@@@@@@@@@@@@@@@@@@@@",
"@@@@    ++++++++oooo            ooooXXXXXXXX                        @@@@@@@@@@@@@@@@@@@@@@@@@@@@",
"@@@@    ++++OOOO++++++++++++++++++++....XXXX    ++++++++++++++++++++    @@@@@@@@@@@@@@@@@@@@@@@@",
"@@@@    ++++OOOO++++++++++++++++++++....XXXX    ++++++++++++++++++++    @@@@@@@@@@@@@@@@@@@@@@@@",
"@@@@    ++++OOOO++++++++++++++++++++....XXXX    ++++++++++++++++++++    @@@@@@@@@@@@@@@@@@@@@@@@",
"@@@@    ++++OOOO++++++++++++++++++++....XXXX    ++++++++++++++++++++    @@@@@@@@@@@@@@@@@@@@@@@@",
"@@@@@@@@    ++++++++++++++++++++++++++++    ++++++++++++++++++++++++++++    @@@@@@@@@@@@@@@@@@@@",
"@@@@@@@@    ++++++++++++++++++++++++++++    ++++++++++++++++++++++++++++    @@@@@@@@@@@@@@@@@@@@",
"@@@@@@@@    ++++++++++++++++++++++++++++    ++++++++++++++++++++++++++++    @@@@@@@@@@@@@@@@@@@@",
"@@@@@@@@    ++++++++++++++++++++++++++++    ++++++++++++++++++++++++++++    @@@@@@@@@@@@@@@@@@@@",
"@@@@    ++++    ++++++++    ++++++++++++++++    ++++++++++++++++++++++++++++    @@@@@@@@@@@@@@@@",
"@@@@    ++++    ++++++++    ++++++++++++++++    ++++++++++++++++++++++++++++    @@@@@@@@@@@@@@@@",
"@@@@    ++++    ++++++++    ++++++++++++++++    ++++++++++++++++++++++++++++    @@@@@@@@@@@@@@@@",
"@@@@    ++++    ++++++++    ++++++++++++++++    ++++++++++++++++++++++++++++    @@@@@@@@@@@@@@@@",
"@@@@    ++++    ++++++++    ++++++++++++++++    ++++++++++++++++++++XXXXXXXX            @@@@@@@@",
"@@@@    ++++    ++++++++    ++++++++++++++++    ++++++++++++++++++++XXXXXXXX            @@@@@@@@",
"@@@@    ++++    ++++++++    ++++++++++++++++    ++++++++++++++++++++XXXXXXXX            @@@@@@@@",
"@@@@    ++++    ++++++++    ++++++++++++++++    ++++++++++++++++++++XXXXXXXX            @@@@@@@@",
"@@@@    ++++++++++++++++++++++++++++++++++++++++++++++++++++++++XXXXXXXXXXXXXXXXOOOO++++    @@@@",
"@@@@    ++++++++++++++++++++++++++++++++++++++++++++++++++++++++XXXXXXXXXXXXXXXXOOOO++++    @@@@",
"@@@@    ++++++++++++++++++++++++++++++++++++++++++++++++++++++++XXXXXXXXXXXXXXXXOOOO++++    @@@@",
"@@@@    ++++++++++++++++++++++++++++++++++++++++++++++++++++++++XXXXXXXXXXXXXXXXOOOO++++    @@@@",
"@@@@    oooooooooooooooooooooooo++++++++++++++++++++++++++++++++XXXXXXXXXXXXXXXX    ++++    @@@@",
"@@@@    oooooooooooooooooooooooo++++++++++++++++++++++++++++++++XXXXXXXXXXXXXXXX    ++++    @@@@",
"@@@@    oooooooooooooooooooooooo++++++++++++++++++++++++++++++++XXXXXXXXXXXXXXXX    ++++    @@@@",
"@@@@    oooooooooooooooooooooooo++++++++++++++++++++++++++++++++XXXXXXXXXXXXXXXX    ++++    @@@@",
"    oooo    oooooooo    oooooooooooo    OOOO++++++++++++++++++++++++XXXXXXXXXXXX    XXXXXXXX    ",
"    oooo    oooooooo    oooooooooooo    OOOO++++++++++++++++++++++++XXXXXXXXXXXX    XXXXXXXX    ",
"    oooo    oooooooo    oooooooooooo    OOOO++++++++++++++++++++++++XXXXXXXXXXXX    XXXXXXXX    ",
"    oooo    oooooooo    oooooooooooo    OOOO++++++++++++++++++++++++XXXXXXXXXXXX    XXXXXXXX    ",
"    oooooooooooooooooooooooooooooooo    OOOOOOOO++++XXXXXXXX++++++++++++++++++++    XXXXXXXX    ",
"    oooooooooooooooooooooooooooooooo    OOOOOOOO++++XXXXXXXX++++++++++++++++++++    XXXXXXXX    ",
"    oooooooooooooooooooooooooooooooo    OOOOOOOO++++XXXXXXXX++++++++++++++++++++    XXXXXXXX    ",
"    oooooooooooooooooooooooooooooooo    OOOOOOOO++++XXXXXXXX++++++++++++++++++++    XXXXXXXX    ",
"@@@@    oooooooooooooooooooooooo    OOOOOOOOOOOOOOOO........OOOO++++++++++++++++            @@@@",
"@@@@    oooooooooooooooooooooooo    OOOOOOOOOOOOOOOO........OOOO++++++++++++++++            @@@@",
"@@@@    oooooooooooooooooooooooo    OOOOOOOOOOOOOOOO........OOOO++++++++++++++++            @@@@",
"@@@@    oooooooooooooooooooooooo    OOOOOOOOOOOOOOOO........OOOO++++++++++++++++            @@@@",
"@@@@@@@@                        OOOOOOOOOOOOOOOOOOOOOOOOOOOOOOOOOOOOOOOOOOOO    @@@@@@@@@@@@@@@@",
"@@@@@@@@                        OOOOOOOOOOOOOOOOOOOOOOOOOOOOOOOOOOOOOOOOOOOO    @@@@@@@@@@@@@@@@",
"@@@@@@@@                        OOOOOOOOOOOOOOOOOOOOOOOOOOOOOOOOOOOOOOOOOOOO    @@@@@@@@@@@@@@@@",
"@@@@@@@@                        OOOOOOOOOOOOOOOOOOOOOOOOOOOOOOOOOOOOOOOOOOOO    @@@@@@@@@@@@@@@@",
"@@@@@@@@    XXXXXXXX    OOOOOOOOOOOO    OOOOOOOOOOOOOOOOOOOOOOOOOOOOOOOOXXXX    @@@@@@@@@@@@@@@@",
"@@@@@@@@    XXXXXXXX    OOOOOOOOOOOO    OOOOOOOOOOOOOOOOOOOOOOOOOOOOOOOOXXXX    @@@@@@@@@@@@@@@@",
"@@@@@@@@    XXXXXXXX    OOOOOOOOOOOO    OOOOOOOOOOOOOOOOOOOOOOOOOOOOOOOOXXXX    @@@@@@@@@@@@@@@@",
"@@@@@@@@    XXXXXXXX    OOOOOOOOOOOO    OOOOOOOOOOOOOOOOOOOOOOOOOOOOOOOOXXXX    @@@@@@@@@@@@@@@@",
"@@@@@@@@@@@@@@@@    XXXXXXXX                                            XXXXXXXX    @@@@@@@@@@@@",
"@@@@@@@@@@@@@@@@    XXXXXXXX                                            XXXXXXXX    @@@@@@@@@@@@",
"@@@@@@@@@@@@@@@@    XXXXXXXX                                            XXXXXXXX    @@@@@@@@@@@@",
"@@@@@@@@@@@@@@@@    XXXXXXXX                                            XXXXXXXX    @@@@@@@@@@@@"
};
