/* XPM */
static char *fire3[] = {
/* columns rows colors chars-per-pixel */
"32 48 4 1 ",
"  c #E46D3A",
". c #FF9554",
"X c #FFE18D",
"o c None",
/* pixels */
"oooooooooooooooooooooooooooooooo",
"oooooooooooooooooooooooooooooooo",
"oooooooooooooooooooooooooooooooo",
"oooooooooooooooooooooooooooooooo",
"oooooooooooooooooooooooooooooooo",
"oooooooooooooooooooooooooooooooo",
"oooooooooooooooooooooooooooooooo",
"oooooooooooooooooooooooooooooooo",
"oooooooooooooooooooooooooooooooo",
"oooooooooooooooooooooooooooooooo",
"oooooooooooooooooooooooooooooooo",
"oooooooooooooooooooooooooooooooo",
"oooooooo            oooooooooooo",
"oooooooo            oooooooooooo",
"oooooooo            oooooooooooo",
"oooooooo            oooooooooooo",
"oooo            oooooooooooooooo",
"oooo            oooooooooooooooo",
"oooo            oooooooooooooooo",
"oooo            oooooooooooooooo",
"    ........        oooooooooooo",
"    ........        oooooooooooo",
"    ........        oooooooooooo",
"    ........        oooooooooooo",
"    ................    oooooooo",
"    ................    oooooooo",
"    ................    oooooooo",
"    ................    oooooooo",
"........XXXXXXXX........oooooooo",
"........XXXXXXXX........oooooooo",
"........XXXXXXXX........oooooooo",
"........XXXXXXXX........oooooooo",
"....XXXXXXXXXXXXXXXX........oooo",
"....XXXXXXXXXXXXXXXX........oooo",
"....XXXXXXXXXXXXXXXX........oooo",
"....XXXXXXXXXXXXXXXX........oooo",
"....XXXXXXXXXXXXXXXX........oooo",
"....XXXXXXXXXXXXXXXX........oooo",
"....XXXXXXXXXXXXXXXX........oooo",
"....XXXXXXXXXXXXXXXX........oooo",
"oooo....XXXXXXXX........oooooooo",
"oooo....XXXXXXXX........oooooooo",
"oooo....XXXXXXXX........oooooooo",
"oooo....XXXXXXXX........oooooooo",
"oooooooo............oooooooooooo",
"oooooooo............oooooooooooo",
"oooooooo............oooooooooooo",
"oooooooo............oooooooooooo"
};
