/* XPM */
static char *snake_right3[] = {
/* columns rows colors chars-per-pixel */
"64 64 7 1 ",
"  c #141B1B",
". c #E46D3A",
"X c #E0394C",
"o c #8D977F",
"O c #FFAD5D",
"+ c #FCE2CA",
"@ c None",
/* pixels */
"@@@@@@@@@@@@@@@@@@@@@@@@                        @@@@@@@@@@@@@@@@",
"@@@@@@@@@@@@@@@@@@@@@@@@                        @@@@@@@@@@@@@@@@",
"@@@@@@@@@@@@@@@@@@@@@@@@                        @@@@@@@@@@@@@@@@",
"@@@@@@@@@@@@@@@@@@@@@@@@                        @@@@@@@@@@@@@@@@",
"@@@@@@@@@@@@@@@@@@@@    ++++++++++++++++++++++++    @@@@@@@@@@@@",
"@@@@@@@@@@@@@@@@@@@@    ++++++++++++++++++++++++    @@@@@@@@@@@@",
"@@@@@@@@@@@@@@@@@@@@    ++++++++++++++++++++++++    @@@@@@@@@@@@",
"@@@@@@@@@@@@@@@@@@@@    ++++++++++++++++++++++++    @@@@@@@@@@@@",
"@@@@@@@@@@@@@@@@    oooo++++oooooooooooooooooooooooo    @@@@@@@@",
"@@@@@@@@@@@@@@@@    oooo++++oooooooooooooooooooooooo    @@@@@@@@",
"@@@@@@@@@@@@@@@@    oooo++++oooooooooooooooooooooooo    @@@@@@@@",
"@@@@@@@@@@@@@@@@    oooo++++oooooooooooooooooooooooo    @@@@@@@@",
"@@@@@@@@@@@@@@@@    oooo                        oooo    @@@@@@@@",
"@@@@@@@@@@@@@@@@    oooo                        oooo    @@@@@@@@",
"@@@@@@@@@@@@@@@@    oooo                        oooo    @@@@@@@@",
"@@@@@@@@@@@@@@@@    oooo                        oooo    @@@@@@@@",
"@@@@@@@@@@@@    XXXX            XXXXXXXXXXXXXXXXXXXX        @@@@",
"@@@@@@@@@@@@    XXXX            XXXXXXXXXXXXXXXXXXXX        @@@@",
"@@@@@@@@@@@@    XXXX            XXXXXXXXXXXXXXXXXXXX        @@@@",
"@@@@@@@@@@@@    XXXX            XXXXXXXXXXXXXXXXXXXX        @@@@",
"@@@@@@@@@@@@    XXXX    ++++++++    XXXXXXXXXXXXXXXXXXXXXXXX    ",
"@@@@@@@@@@@@    XXXX    ++++++++    XXXXXXXXXXXXXXXXXXXXXXXX    ",
"@@@@@@@@@@@@    XXXX    ++++++++    XXXXXXXXXXXXXXXXXXXXXXXX    ",
"@@@@@@@@@@@@    XXXX    ++++++++    XXXXXXXXXXXXXXXXXXXXXXXX    ",
"@@@@@@@@@@@@    XXXX    ++++++++++++    XXXXXXXXXXXXXXXXXXXX    ",
"@@@@@@@@@@@@    XXXX    ++++++++++++    XXXXXXXXXXXXXXXXXXXX    ",
"@@@@@@@@@@@@    XXXX    ++++++++++++    XXXXXXXXXXXXXXXXXXXX    ",
"@@@@@@@@@@@@    XXXX    ++++++++++++    XXXXXXXXXXXXXXXXXXXX    ",
"@@@@@@@@@@@@    XXXX    ++++++++++++    XXXXXXXXXXXXXXXXXXXX    ",
"@@@@@@@@@@@@    XXXX    ++++++++++++    XXXXXXXXXXXXXXXXXXXX    ",
"@@@@@@@@@@@@    XXXX    ++++++++++++    XXXXXXXXXXXXXXXXXXXX    ",
"@@@@@@@@@@@@    XXXX    ++++++++++++    XXXXXXXXXXXXXXXXXXXX    ",
"@@@@@@@@@@@@    XXXXXXXX            XXXXXXXXXXXXXXXXXXXXXXXX    ",
"@@@@@@@@@@@@    XXXXXXXX            XXXXXXXXXXXXXXXXXXXXXXXX    ",
"@@@@@@@@@@@@    XXXXXXXX            XXXXXXXXXXXXXXXXXXXXXXXX    ",
"@@@@@@@@@@@@    XXXXXXXX            XXXXXXXXXXXXXXXXXXXXXXXX    ",
"@@@@@@@@@@@@    XXXXXXXXXXXXXXXXXXXXXXXXXXXX                    ",
"@@@@@@@@@@@@    XXXXXXXXXXXXXXXXXXXXXXXXXXXX                    ",
"@@@@@@@@@@@@    XXXXXXXXXXXXXXXXXXXXXXXXXXXX                    ",
"@@@@@@@@@@@@    XXXXXXXXXXXXXXXXXXXXXXXXXXXX                    ",
"@@@@@@@@@@@@@@@@    XXXXXXXXXXXXXXXXXXXXOOOOOOOOOOOOOOOO    @@@@",
"@@@@@@@@@@@@@@@@    XXXXXXXXXXXXXXXXXXXXOOOOOOOOOOOOOOOO    @@@@",
"@@@@@@@@@@@@@@@@    XXXXXXXXXXXXXXXXXXXXOOOOOOOOOOOOOOOO    @@@@",
"@@@@@@@@@@@@@@@@    XXXXXXXXXXXXXXXXXXXXOOOOOOOOOOOOOOOO    @@@@",
"@@@@@@@@    @@@@@@@@    XXXXXXXXXXXX............        @@@@@@@@",
"@@@@@@@@    @@@@@@@@    XXXXXXXXXXXX............        @@@@@@@@",
"@@@@@@@@    @@@@@@@@    XXXXXXXXXXXX............        @@@@@@@@",
"@@@@@@@@    @@@@@@@@    XXXXXXXXXXXX............        @@@@@@@@",
"@@@@    XXXX            XXXXXXXX............        @@@@@@@@@@@@",
"@@@@    XXXX            XXXXXXXX............        @@@@@@@@@@@@",
"@@@@    XXXX            XXXXXXXX............        @@@@@@@@@@@@",
"@@@@    XXXX            XXXXXXXX............        @@@@@@@@@@@@",
"@@@@    XXXXXXXXXXXXXXXXXXXXOOOO....................    @@@@@@@@",
"@@@@    XXXXXXXXXXXXXXXXXXXXOOOO....................    @@@@@@@@",
"@@@@    XXXXXXXXXXXXXXXXXXXXOOOO....................    @@@@@@@@",
"@@@@    XXXXXXXXXXXXXXXXXXXXOOOO....................    @@@@@@@@",
"@@@@    XXXXXXXXOOOOOOOOOOOO........................    @@@@@@@@",
"@@@@    XXXXXXXXOOOOOOOOOOOO........................    @@@@@@@@",
"@@@@    XXXXXXXXOOOOOOOOOOOO........................    @@@@@@@@",
"@@@@    XXXXXXXXOOOOOOOOOOOO........................    @@@@@@@@",
"@@@@@@@@        ................................    @@@@@@@@@@@@",
"@@@@@@@@        ................................    @@@@@@@@@@@@",
"@@@@@@@@        ................................    @@@@@@@@@@@@",
"@@@@@@@@        ................................    @@@@@@@@@@@@"
};
