/* XPM */
static char *floor_tile177[] = {
/* columns rows colors chars-per-pixel */
"16 16 3 1 ",
"  c #D3865F",
". c #BD7959",
"X c white",
/* pixels */
"    ........... ",
"......     .....",
"....    ..      ",
"                ",
"          ..    ",
"                ",
" ......         ",
"..........    ..",
"       .........",
"                ",
"           ...  ",
"   ...          ",
" ....... .   .. ",
"...             ",
"                ",
"       .....    "
};
