/* XPM */
static char *floor_tile279[] = {
/* columns rows colors chars-per-pixel */
"16 16 3 1 ",
"  c #74A334",
". c #56864C",
"X c white",
/* pixels */
"                ",
"                ",
"                ",
"          .     ",
"          . .   ",
"            .   ",
"                ",
"                ",
"                ",
"     .          ",
"   . . .        ",
"   .   .        ",
"                ",
"                ",
"                ",
"                "
};
