/* XPM */
static char *interior_tile328[] = {
/* columns rows colors chars-per-pixel */
"16 16 5 1 ",
"  c #3B3643",
". c #4E484A",
"X c #695953",
"o c #816855",
"O c white",
/* pixels */
"   ..........   ",
"  .XXX...XXXX.  ",
"...XXXX.XXXXX.. ",
"XXXXXXX.XXXXXXX.",
".XXXXX...XXXXX..",
"................",
"XXX...oXooo...XX",
"XXXX.ooooooo.XXX",
"XXXX.XXXXXXX.XXX",
"XXX...XXXXX...XX",
"................",
"..XXXXX...XXXXX.",
".XXXXXXX.XXXXXXX",
" ..XXXXX.XXXXXXX",
"  .XXXX...XXXXX.",
"   ............."
};
