/* XPM */
static char *interior_tile325[] = {
/* columns rows colors chars-per-pixel */
"16 16 5 1 ",
"  c #3B3643",
". c #4E484A",
"X c #695953",
"o c #816855",
"O c white",
/* pixels */
"   .............",
"  .XXX...ooooo..",
"...XXXX.ooooooo.",
"XXXXXXX.ooooooo.",
".XXXXX...ooooo..",
"................",
"XXX...oXXXX...XX",
"XXXX.oooXXXX.XXX",
"XXXX.ooooXXX.XXX",
"XXX...ooooX...XX",
"................",
"..XXXXX...XXXXX.",
".XXXXXXX.XXXXXXX",
".XXXXXXX.XXXXXXX",
"..XXXXX...XXXXX.",
"................"
};
