/* XPM */
static char * coll_xpm[] = {
"64 64 7 1",
" 	c #ADBC3A",
".	c #141B1B",
"+	c #5F7160",
"@	c #F2EAF1",
"#	c #F2AD7D",
"$	c #D3A2C0",
"%	c #4E484A",
"                    ........................                    ",
"                    ........................                    ",
"                    ........................                    ",
"                    ........................                    ",
"            ........++++@@@@@@@@@@@@@@@@@@@@........            ",
"            ........++++@@@@@@@@@@@@@@@@@@@@........            ",
"            ........++++@@@@@@@@@@@@@@@@@@@@........            ",
"            ........++++@@@@@@@@@@@@@@@@@@@@........            ",
"    ........++++++++....@@@@@@@@@@@@@@@@....@@@@@@@@........    ",
"    ........++++++++....@@@@@@@@@@@@@@@@....@@@@@@@@........    ",
"    ........++++++++....@@@@@@@@@@@@@@@@....@@@@@@@@........    ",
"    ........++++++++....@@@@@@@@@@@@@@@@....@@@@@@@@........    ",
"....@@@@@@@@........####................####........++++++++....",
"....@@@@@@@@........####................####........++++++++....",
"....@@@@@@@@........####................####........++++++++....",
"....@@@@@@@@........####................####........++++++++....",
"....@@@@@@@@@@@@@@@@####@@@@@@@@@@@@@@@@####@@@@++++++++++++....",
"....@@@@@@@@@@@@@@@@####@@@@@@@@@@@@@@@@####@@@@++++++++++++....",
"....@@@@@@@@@@@@@@@@####@@@@@@@@@@@@@@@@####@@@@++++++++++++....",
"....@@@@@@@@@@@@@@@@####@@@@@@@@@@@@@@@@####@@@@++++++++++++....",
"........@@@@$$$$@@@@@@@@@@@@@@@@@@@@@@@@@@@@@@@@%%%%++++........",
"........@@@@$$$$@@@@@@@@@@@@@@@@@@@@@@@@@@@@@@@@%%%%++++........",
"........@@@@$$$$@@@@@@@@@@@@@@@@@@@@@@@@@@@@@@@@%%%%++++........",
"........@@@@$$$$@@@@@@@@@@@@@@@@@@@@@@@@@@@@@@@@%%%%++++........",
"....++++....@@@@@@@@@@@@....@@@@@@@@....@@@@@@@@@@@@....@@@@....",
"....++++....@@@@@@@@@@@@....@@@@@@@@....@@@@@@@@@@@@....@@@@....",
"....++++....@@@@@@@@@@@@....@@@@@@@@....@@@@@@@@@@@@....@@@@....",
"....++++....@@@@@@@@@@@@....@@@@@@@@....@@@@@@@@@@@@....@@@@....",
"....++++....@@@@@@@@@@@@....@@@@@@@@....@@@@@@@@@@@@....@@@@....",
"....++++....@@@@@@@@@@@@....@@@@@@@@....@@@@@@@@@@@@....@@@@....",
"....++++....@@@@@@@@@@@@....@@@@@@@@....@@@@@@@@@@@@....@@@@....",
"....++++....@@@@@@@@@@@@....@@@@@@@@....@@@@@@@@@@@@....@@@@....",
"....@@@@....@@@@@@@@@@@@@@@@@@@@@@@@@@@@@@@@@@@@@@@@....@@@@....",
"....@@@@....@@@@@@@@@@@@@@@@@@@@@@@@@@@@@@@@@@@@@@@@....@@@@....",
"....@@@@....@@@@@@@@@@@@@@@@@@@@@@@@@@@@@@@@@@@@@@@@....@@@@....",
"....@@@@....@@@@@@@@@@@@@@@@@@@@@@@@@@@@@@@@@@@@@@@@....@@@@....",
"....@@@@$$$$@@@@@@@@########################@@@@@@@@$$$$@@@@....",
"....@@@@$$$$@@@@@@@@########################@@@@@@@@$$$$@@@@....",
"....@@@@$$$$@@@@@@@@########################@@@@@@@@$$$$@@@@....",
"....@@@@$$$$@@@@@@@@########################@@@@@@@@$$$$@@@@....",
"    ....$$$$....########....########....########....$$$$....    ",
"    ....$$$$....########....########....########....$$$$....    ",
"    ....$$$$....########....########....########....$$$$....    ",
"    ....$$$$....########....########....########....$$$$....    ",
"    ....$$$$....################################....$$$$....    ",
"    ....$$$$....################################....$$$$....    ",
"    ....$$$$....################################....$$$$....    ",
"    ....$$$$....################################....$$$$....    ",
"        ....$$$$................................$$$$....        ",
"        ....$$$$................................$$$$....        ",
"        ....$$$$................................$$$$....        ",
"        ....$$$$................................$$$$....        ",
"            ....$$$$$$$$$$$$$$$$$$$$$$$$$$$$$$$$....            ",
"            ....$$$$$$$$$$$$$$$$$$$$$$$$$$$$$$$$....            ",
"            ....$$$$$$$$$$$$$$$$$$$$$$$$$$$$$$$$....            ",
"            ....$$$$$$$$$$$$$$$$$$$$$$$$$$$$$$$$....            ",
"            ....$$$$$$$$................$$$$$$$$....            ",
"            ....$$$$$$$$................$$$$$$$$....            ",
"            ....$$$$$$$$................$$$$$$$$....            ",
"            ....$$$$$$$$................$$$$$$$$....            ",
"            ....++++....                ....++++....            ",
"            ....++++....                ....++++....            ",
"            ....++++....                ....++++....            ",
"            ....++++....                ....++++....            "};
