/* XPM */
static char * wall_xpm[] = {
"64 64 4 1",
" 	c #ADBC3A",
".	c #141B1B",
"+	c #74A334",
"@	c #4A7F4B",
"    ................                ................            ",
"    ................                ................            ",
"    ................                ................            ",
"    ................                ................            ",
"....++++++++++++++++....        ....++++++++++++++++....        ",
"....++++++++++++++++....        ....++++++++++++++++....        ",
"....++++++++++++++++....        ....++++++++++++++++....        ",
"....++++++++++++++++....        ....++++++++++++++++....        ",
"    ....++++++++++++....    ....++++++++++++++++++++++++....    ",
"    ....++++++++++++....    ....++++++++++++++++++++++++....    ",
"    ....++++++++++++....    ....++++++++++++++++++++++++....    ",
"    ....++++++++++++....    ....++++++++++++++++++++++++....    ",
"        ....++++++++++++....++++++++++++++++@@@@........        ",
"        ....++++++++++++....++++++++++++++++@@@@........        ",
"        ....++++++++++++....++++++++++++++++@@@@........        ",
"        ....++++++++++++....++++++++++++++++@@@@........        ",
"            ....++++++++@@@@++++@@@@++++@@@@@@@@@@@@....        ",
"            ....++++++++@@@@++++@@@@++++@@@@@@@@@@@@....        ",
"            ....++++++++@@@@++++@@@@++++@@@@@@@@@@@@....        ",
"            ....++++++++@@@@++++@@@@++++@@@@@@@@@@@@....        ",
"        ....    @@@@++++@@@@@@@@++++@@@@@@@@        ++++....    ",
"        ....    @@@@++++@@@@@@@@++++@@@@@@@@        ++++....    ",
"        ....    @@@@++++@@@@@@@@++++@@@@@@@@        ++++....    ",
"        ....    @@@@++++@@@@@@@@++++@@@@@@@@        ++++....    ",
"    ....            @@@@@@@@++++++++@@@@            ++++++++....",
"    ....            @@@@@@@@++++++++@@@@            ++++++++....",
"    ....            @@@@@@@@++++++++@@@@            ++++++++....",
"    ....            @@@@@@@@++++++++@@@@            ++++++++....",
"....                    @@@@++++@@@@                ++++++++....",
"....                    @@@@++++@@@@                ++++++++....",
"....                    @@@@++++@@@@                ++++++++....",
"....                    @@@@++++@@@@                ++++++++....",
"....                ++++    @@@@                ++++++++++++....",
"....                ++++    @@@@                ++++++++++++....",
"....                ++++    @@@@                ++++++++++++....",
"....                ++++    @@@@                ++++++++++++....",
"....                    ++++++++    ++++        ++++++++++++....",
"....                    ++++++++    ++++        ++++++++++++....",
"....                    ++++++++    ++++        ++++++++++++....",
"....                    ++++++++    ++++        ++++++++++++....",
"....            ++++        ++++++++        ++++++++++++++++....",
"....            ++++        ++++++++        ++++++++++++++++....",
"....            ++++        ++++++++        ++++++++++++++++....",
"....            ++++        ++++++++        ++++++++++++++++....",
"....        ....++++++++    ++++        ++++++++@@@@....++++....",
"....        ....++++++++    ++++        ++++++++@@@@....++++....",
"....        ....++++++++    ++++        ++++++++@@@@....++++....",
"....        ....++++++++    ++++        ++++++++@@@@....++++....",
"....    ........@@@@++++++++@@@@    ++++++++@@@@....    ....    ",
"....    ........@@@@++++++++@@@@    ++++++++@@@@....    ....    ",
"....    ........@@@@++++++++@@@@    ++++++++@@@@....    ....    ",
"....    ........@@@@++++++++@@@@    ++++++++@@@@....    ....    ",
"    ....    ........@@@@++++@@@@++++@@@@@@@@........            ",
"    ....    ........@@@@++++@@@@++++@@@@@@@@........            ",
"    ....    ........@@@@++++@@@@++++@@@@@@@@........            ",
"    ....    ........@@@@++++@@@@++++@@@@@@@@........            ",
"            ....++++@@@@@@@@@@@@@@@@++++++++@@@@....            ",
"            ....++++@@@@@@@@@@@@@@@@++++++++@@@@....            ",
"            ....++++@@@@@@@@@@@@@@@@++++++++@@@@....            ",
"            ....++++@@@@@@@@@@@@@@@@++++++++@@@@....            ",
"            ....++++++++    ++++    ++++++++++++....            ",
"            ....++++++++    ++++    ++++++++++++....            ",
"            ....++++++++    ++++    ++++++++++++....            ",
"            ....++++++++    ++++    ++++++++++++....            "};
