/* XPM */
static char * snake_right0__xpm[] = {
"64 64 8 1",
" 	c #ADBC3A",
".	c #141B1B",
"+	c #FCE2CA",
"@	c #8D977F",
"#	c #E0394C",
"$	c #FFAD5D",
"%	c #A8A129",
"&	c #E46D3A",
"                    ........................                    ",
"                    ........................                    ",
"                    ........................                    ",
"                    ........................                    ",
"                ....++++++++++++++++++++++++....                ",
"                ....++++++++++++++++++++++++....                ",
"                ....++++++++++++++++++++++++....                ",
"                ....++++++++++++++++++++++++....                ",
"            ....@@@@++++@@@@@@@@@@@@@@@@@@@@@@@@....            ",
"            ....@@@@++++@@@@@@@@@@@@@@@@@@@@@@@@....            ",
"            ....@@@@++++@@@@@@@@@@@@@@@@@@@@@@@@....            ",
"            ....@@@@++++@@@@@@@@@@@@@@@@@@@@@@@@....            ",
"            ....@@@@........................@@@@....            ",
"            ....@@@@........................@@@@....            ",
"            ....@@@@........................@@@@....            ",
"            ....@@@@........................@@@@....            ",
"        ....####............####################........        ",
"        ....####............####################........        ",
"        ....####............####################........        ",
"        ....####............####################........        ",
"        ....####....++++++++....########################....    ",
"        ....####....++++++++....########################....    ",
"        ....####....++++++++....########################....    ",
"        ....####....++++++++....########################....    ",
"        ....####....++++++++++++....####################....    ",
"        ....####....++++++++++++....####################....    ",
"        ....####....++++++++++++....####################....    ",
"        ....####....++++++++++++....####################....    ",
"        ....####....++++++++++++....####################....    ",
"        ....####....++++++++++++....####################....    ",
"        ....####....++++++++++++....####################....    ",
"        ....####....++++++++++++....####################....    ",
"        ....########............########################....    ",
"        ....########............########################....    ",
"        ....########............########################....    ",
"        ....########............########################....    ",
"        ....############################....................    ",
"        ....############################....................    ",
"        ....############################....................    ",
"        ....############################....................    ",
"            ....####################$$$$$$$$$$$$$$$$....        ",
"            ....####################$$$$$$$$$$$$$$$$....        ",
"            ....####################$$$$$$$$$$$$$$$$....        ",
"            ....####################$$$$$$$$$$$$$$$$....        ",
"        ....%%%%....############&&&&&&&&&&&&........            ",
"        ....%%%%....############&&&&&&&&&&&&........            ",
"        ....%%%%....############&&&&&&&&&&&&........            ",
"        ....%%%%....############&&&&&&&&&&&&........            ",
"    ....####........########&&&&&&&&&&&&........                ",
"    ....####........########&&&&&&&&&&&&........                ",
"    ....####........########&&&&&&&&&&&&........                ",
"    ....####........########&&&&&&&&&&&&........                ",
"    ....################$$$$&&&&&&&&&&&&&&&&&&&&....            ",
"    ....################$$$$&&&&&&&&&&&&&&&&&&&&....            ",
"    ....################$$$$&&&&&&&&&&&&&&&&&&&&....            ",
"    ....################$$$$&&&&&&&&&&&&&&&&&&&&....            ",
"    ....####$$$$$$$$$$$$&&&&&&&&&&&&&&&&&&&&&&&&....            ",
"    ....####$$$$$$$$$$$$&&&&&&&&&&&&&&&&&&&&&&&&....            ",
"    ....####$$$$$$$$$$$$&&&&&&&&&&&&&&&&&&&&&&&&....            ",
"    ....####$$$$$$$$$$$$&&&&&&&&&&&&&&&&&&&&&&&&....            ",
"        ....&&&&&&&&&&&&&&&&&&&&&&&&&&&&&&&&....                ",
"        ....&&&&&&&&&&&&&&&&&&&&&&&&&&&&&&&&....                ",
"        ....&&&&&&&&&&&&&&&&&&&&&&&&&&&&&&&&....                ",
"        ....&&&&&&&&&&&&&&&&&&&&&&&&&&&&&&&&....                "};
