/* XPM */
static char *cg_face[] = {
/* columns rows colors chars-per-pixel */
"38 38 12 1 ",
"  c #141B1B",
". c #3B3643",
"X c #345A52",
"o c #4E484A",
"O c #D14B34",
"+ c #965340",
"@ c #A3754E",
"# c #56864C",
"$ c #EF914F",
"% c #F1C471",
"& c #9BA7AA",
"* c #FCE2CA",
/* pixels */
"                                      ",
"                                      ",
"                                      ",
"                            **        ",
"        ###                ***&&**    ",
"      #######     XXXXX    ***&****   ",
"     #########  #######XXX ********   ",
"    ##########XX##########X &&****    ",
"      #####################X&&&*      ",
"       ################%####X&& XX    ",
"     ################%##%####XXXXXX   ",
"    ###############%##%#######XXXXo   ",
"   #################%##########XXooo  ",
"  ### X#########X##############XXooo  ",
"  ## XX###X#####XX########X#####XXoX  ",
"    XX###XXX###XXXXX#####X######XXXX  ",
"   XXX##XXXXXXXXXOXXXXXXX#####X#XXXX  ",
"  XXXXXXXXOXXXXXXOOXXXXXX####XXXXXXX  ",
"  XXXXXXXO$OXXXXXO$$$XXXXX####XXXXXX  ",
"  XXXX XO$$$$XXXXO$$$$$$XXX##XXXXXXX  ",
"  XXXX XO$$$$$$XX$$$$$$$$XXXXXXXXXX   ",
"  XXX $$$$  $$$$$$  $$$$$OXXXXOOXXX   ",
"   XX $$$$  $$$$$$  $$$$$OXXXXOOOXX   ",
"   X $$$$$$$$$$$$$$$$$$$$OXXXOOOOXX   ",
"     $$OOO$$$$$$$$$$OOO$$XXXOO OOXXX  ",
"     $$OOO$$$$$$$$$$OOO$$XXXO  OOXXX  ",
"     $$$$$$$O$$$O$$$$$$$XXXOO OOXXXXX ",
"     $$$$$$$$OOO$$$$$$$$XXOOOOO XXXXX ",
"      $$$$$$$$$$$$$$$$$$$OOOO  XXXXXX ",
"      $$$$$$$$$$$$$$$$$$OOO  XXXXXXX  ",
"       $$$$$$$$$$$$$$$$OO   XXXXXXXX  ",
"         $$$$$$$$$$$$OOOO  XXXXXXXX   ",
"                   OOOOOOO  XXXXXX    ",
"                    OOOOOOO+          ",
"                 +++OOOOO++++OOOO     ",
"               oo..+++++++++OO$$$$$   ",
"             @oooooo++++++@OO$$$$$$$  ",
"           @@@@oooo@@@@@@@@OO$$$$$$$$ "
};
