/* XPM */
static char * food0__xpm[] = {
"64 64 10 1",
" 	c #ADBC3A",
".	c #A9967D",
"+	c #7D7263",
"@	c #664137",
"#	c #FFEF96",
"$	c #D26649",
"%	c #FCA76F",
"&	c #D48C79",
"*	c #8D4D3C",
"=	c #A8A129",
"                                                                ",
"                                                                ",
"                                                                ",
"                                                                ",
"    ........++++    @@@@@@@@@@@@@@@@                            ",
"    ........++++    @@@@@@@@@@@@@@@@                            ",
"    ........++++    @@@@@@@@@@@@@@@@                            ",
"    ........++++    @@@@@@@@@@@@@@@@                            ",
"    ....####@@@@@@@@$$$$$$$$$$$$$$$$@@@@                        ",
"    ....####@@@@@@@@$$$$$$$$$$$$$$$$@@@@                        ",
"    ....####@@@@@@@@$$$$$$$$$$$$$$$$@@@@                        ",
"    ....####@@@@@@@@$$$$$$$$$$$$$$$$@@@@                        ",
"    ++++@@@@%%%%%%%%&&&&&&&&&&&&$$$$****@@@@                    ",
"    ++++@@@@%%%%%%%%&&&&&&&&&&&&$$$$****@@@@                    ",
"    ++++@@@@%%%%%%%%&&&&&&&&&&&&$$$$****@@@@                    ",
"    ++++@@@@%%%%%%%%&&&&&&&&&&&&$$$$****@@@@                    ",
"        @@@@&&&&%%%%&&&&&&&&$$$$$$$$****@@@@    ====            ",
"        @@@@&&&&%%%%&&&&&&&&$$$$$$$$****@@@@    ====            ",
"        @@@@&&&&%%%%&&&&&&&&$$$$$$$$****@@@@    ====            ",
"        @@@@&&&&%%%%&&&&&&&&$$$$$$$$****@@@@    ====            ",
"    @@@@$$$$&&&&%%%%%%%%&&&&$$$$$$$$$$$$****@@@@====            ",
"    @@@@$$$$&&&&%%%%%%%%&&&&$$$$$$$$$$$$****@@@@====            ",
"    @@@@$$$$&&&&%%%%%%%%&&&&$$$$$$$$$$$$****@@@@====            ",
"    @@@@$$$$&&&&%%%%%%%%&&&&$$$$$$$$$$$$****@@@@====            ",
"    @@@@$$$$$$$$&&&&%%%%&&&&&&&&$$$$$$$$$$$$****@@@@@@@@        ",
"    @@@@$$$$$$$$&&&&%%%%&&&&&&&&$$$$$$$$$$$$****@@@@@@@@        ",
"    @@@@$$$$$$$$&&&&%%%%&&&&&&&&$$$$$$$$$$$$****@@@@@@@@        ",
"    @@@@$$$$$$$$&&&&%%%%&&&&&&&&$$$$$$$$$$$$****@@@@@@@@        ",
"    @@@@****$$$$&&&&&&&&&&&&&&&&$$$$$$$$&&&&$$$$$$$$$$$$@@@@    ",
"    @@@@****$$$$&&&&&&&&&&&&&&&&$$$$$$$$&&&&$$$$$$$$$$$$@@@@    ",
"    @@@@****$$$$&&&&&&&&&&&&&&&&$$$$$$$$&&&&$$$$$$$$$$$$@@@@    ",
"    @@@@****$$$$&&&&&&&&&&&&&&&&$$$$$$$$&&&&$$$$$$$$$$$$@@@@    ",
"        @@@@********$$$$&&&&&&&&%%%%%%%%%%%%&&&&$$$$$$$$@@@@    ",
"        @@@@********$$$$&&&&&&&&%%%%%%%%%%%%&&&&$$$$$$$$@@@@    ",
"        @@@@********$$$$&&&&&&&&%%%%%%%%%%%%&&&&$$$$$$$$@@@@    ",
"        @@@@********$$$$&&&&&&&&%%%%%%%%%%%%&&&&$$$$$$$$@@@@    ",
"            @@@@@@@@$$$$$$$$&&&&&&&&%%%%%%%%&&&&&&&&$$$$@@@@    ",
"            @@@@@@@@$$$$$$$$&&&&&&&&%%%%%%%%&&&&&&&&$$$$@@@@    ",
"            @@@@@@@@$$$$$$$$&&&&&&&&%%%%%%%%&&&&&&&&$$$$@@@@    ",
"            @@@@@@@@$$$$$$$$&&&&&&&&%%%%%%%%&&&&&&&&$$$$@@@@    ",
"            ====    @@@@****$$$$$$$$&&&&$$$$$$$$@@@@@@@@        ",
"            ====    @@@@****$$$$$$$$&&&&$$$$$$$$@@@@@@@@        ",
"            ====    @@@@****$$$$$$$$&&&&$$$$$$$$@@@@@@@@        ",
"            ====    @@@@****$$$$$$$$&&&&$$$$$$$$@@@@@@@@        ",
"            ====        @@@@****$$$$$$$$$$$$@@@@####....++++    ",
"            ====        @@@@****$$$$$$$$$$$$@@@@####....++++    ",
"            ====        @@@@****$$$$$$$$$$$$@@@@####....++++    ",
"            ====        @@@@****$$$$$$$$$$$$@@@@####....++++    ",
"                        @@@@****************@@@@########....    ",
"                        @@@@****************@@@@########....    ",
"                        @@@@****************@@@@########....    ",
"                        @@@@****************@@@@########....    ",
"                            @@@@@@@@@@@@@@@@++++....####....    ",
"                            @@@@@@@@@@@@@@@@++++....####....    ",
"                            @@@@@@@@@@@@@@@@++++....####....    ",
"                            @@@@@@@@@@@@@@@@++++....####....    ",
"                                                ++++....++++    ",
"                                                ++++....++++    ",
"                                                ++++....++++    ",
"                                                ++++....++++    ",
"                                                                ",
"                                                                ",
"                                                                ",
"                                                                "};
