/* XPM */
static char *thunder1[] = {
/* columns rows colors chars-per-pixel */
"20 28 3 1 ",
"  c #FFAD5D",
". c #FFE18D",
"X c None",
/* pixels */
"XXXXXXXXXXXXXXXXXXXX",
"XXXXXXXXXXXXXXXXXXXX",
"XXXXXXXXXXXXXXXXXXXX",
"XXXX XXXXXXXXXXXXXXX",
"XXX . XXXXXXXXXXXXXX",
"XX . XXXXXXXXXXXXXXX",
"X .. XXXXXXXXXXXXXXX",
" ...  XXXXXXXXXXXXXX",
"X ....  XXXXXXXXXXXX",
"XX  ....  XXXXXXXXXX",
"XXXX  .... XXXXXXXXX",
"XXXXXX  ... XXXXXXXX",
"XXXXXXXX  .. XXXXXXX",
"XXXXXXXXXX .. XXXXXX",
"XXXXXXXXXXX  XXXXXXX",
"XXXXXXXXXXXXXXXXXXXX",
"XXXXXXXXXXXXXXXXXXXX",
"XXXXXXXXXXXXXXXXXXXX",
"XXXXXXXXXXXXXXXXXXXX",
"XXXXXXXXXXXXXXXXXXXX",
"XXXXXXXXXXXXXXXXXXXX",
"XXXXXXXXXXXXXXXXXXXX",
"XXXXXXXXXXXXXXXXXXXX",
"XXXXXXXXXXXXXXXXXXXX",
"XXXXXXXXXXXXXXXXXXXX",
"XXXXXXXXXXXXXXXXXXXX",
"XXXXXXXXXXXXXXXXXXXX",
"XXXXXXXXXXXXXXXXXXXX"
};
