/* XPM */
static char *thunder3[] = {
/* columns rows colors chars-per-pixel */
"20 28 2 1 ",
"  c #141B1B",
". c None",
/* pixels */
"....................",
"....................",
"........... ........",
".......... .........",
"......... ..........",
"....................",
"....................",
"..    ..............",
"....    ............",
"......     .........",
"........     .......",
"..........    ......",
"...........    .....",
"............    ....",
".............    ...",
"............      ..",
"...........        .",
"..........       ...",
".........     ......",
"........   .........",
".......  ...........",
"....................",
"....................",
"....................",
"....................",
"....................",
"....................",
"...................."
};
