/* XPM */
static char *thunder0[] = {
/* columns rows colors chars-per-pixel */
"20 28 3 1 ",
"  c #FFAD5D",
". c #FFE18D",
"X c None",
/* pixels */
"XXXXXXXXXXXXXXXXXXXX",
"XXXXXXXXXXXXXXXXXXXX",
"XXXXXXXXXXXXXXXXXXXX",
"XXXXXX XXXXXXXXXXXXX",
"XXXXX . XXXXXXXXXXXX",
"XXXX . XXXXXXXXXXXXX",
"XXX . XXXXXXXXXXXXXX",
"XX . XXXXXXXXXXXXXXX",
"X ...  XXXXXXXXXXXXX",
"XX   .. XXXXXXXXXXXX",
"XXXXX  XXXXXXXXXXXXX",
"XXXXXXXXXXXXXXXXXXXX",
"XXXXXXXXXXXXXXXXXXXX",
"XXXXXXXXXXXXXXXXXXXX",
"XXXXXXXXXXXXXXXXXXXX",
"XXXXXXXXXXXXXXXXXXXX",
"XXXXXXXXXXXXXXXXXXXX",
"XXXXXXXXXXXXXXXXXXXX",
"XXXXXXXXXXXXXXXXXXXX",
"XXXXXXXXXXXXXXXXXXXX",
"XXXXXXXXXXXXXXXXXXXX",
"XXXXXXXXXXXXXXXXXXXX",
"XXXXXXXXXXXXXXXXXXXX",
"XXXXXXXXXXXXXXXXXXXX",
"XXXXXXXXXXXXXXXXXXXX",
"XXXXXXXXXXXXXXXXXXXX",
"XXXXXXXXXXXXXXXXXXXX",
"XXXXXXXXXXXXXXXXXXXX"
};
