/* XPM */
static char *thunder4[] = {
/* columns rows colors chars-per-pixel */
"20 28 4 1 ",
"  c #FFAD5D",
". c #FFE18D",
"X c white",
"o c None",
/* pixels */
"oooooooooooooooooooo",
"oooooooooooooooooooo",
"oooooooooooooooooooo",
"ooooooooo oooooooooo",
"oooooooo . ooooooooo",
"ooooooo . oooooooooo",
"oooooo . ooooooooooo",
"ooooo .. ooooooooooo",
"oooo .. o..ooooooooo",
"ooo ... .XX..ooooooo",
"oooo ... .XXX.oooooo",
"ooooo ... .XXX..oooo",
"oooooo ... .XXXX.ooo",
"ooooooo  .. XXXXX.oo",
"ooooooooo  XXXXXXX.o",
"ooooooooo.XXXXXXX.oo",
"oooooooo.XXXXXX..ooo",
"ooooooo.XXXXX..ooooo",
"oooooo.XXXX..ooooooo",
"ooooo.XXX..ooooooooo",
"oooo.XXXX.oooooooooo",
"ooooo.XXXX.ooooooooo",
"oooooo..XXX.oooooooo",
"oooooooo.XX.oooooooo",
"ooooooooo.X.oooooooo",
"oooooooooo.ooooooooo",
"oooooooooooooooooooo",
"oooooooooooooooooooo"
};
