/* XPM */
static char *thunder[] = {
/* columns rows colors chars-per-pixel */
"160 28 5 1 ",
"  c #141B1B",
". c #FFAD5D",
"X c #FFE18D",
"o c white",
"O c None",
/* pixels */
"OOOOOOOOOOOOOOOOOOOOOOOOOOOOOOOOOOOOOOOOOOOOOOOOOOOOOOOOOOOOOOOOOOOOOOOOOOOOOOOOOOOOOOOOOOOOOOOOOOOOOOOOOOOOOOOOOOOOOOOOOOOOOOOOOOOOOOOOOOOOOOOOOOOOOOOOOOOOOOOO",
"OOOOOOOOOOOOOOOOOOOOOOOOOOOOOOOOOOOOOOOOOOOOOOOOOOO.OOOOOOOOOOOOOOOOOOOOOOOOOOOOOOOOOOOOOOOOOOOOOOOOOOOOOOOOOOOOOOOOOOOOOOOOOOOOOOOOOOOOOOOOOOOOOOOOOOOOOOOOOOOO",
"OOOOOOOOOOOOOOOOOOOOOOOOOOOOOOOOOOOOOOOOOOOOOOOOOO.X.OOOOOOOOOOOOOOOOOO OOOOOOOOOOOOOOOOOOOOOOOOOOOOOOOOOOOOOOOOOOOOOOOOOOOOOOOOOOOOOOOOOOOOOOOOOOOOOOOOOOOOOOOO",
"OOOOOO.OOOOOOOOOOOOOOOOO.OOOOOOOOOOOOOOOOOOOOOOOO.X.OOOOOOOOOOOOOOOOOO OOOOOOOOOOOOOOOOOO.OOOOOOOOOOOOOOOOOOOOOOOOOOOOOOOOOOOOOOOOOOOOOOOOOOOOOOOOOOOOOOOOOOOOOO",
"OOOOO.X.OOOOOOOOOOOOOOO.X.OOOOOOOOOOOOOOOOOOOOOO.X.OOOOOOOOOOOOOOOOOO OOOOOOOOOOOOOOOOOO.X.OOOOOOOOOOOOOOOOOOOOOOOOOOOOOOOOOOOOOOOOOOOOOOOOOOOOOOOOOOOOOOOOOOOOO",
"OOOO.X.OOOOOOOOOOOOOOO.X.OOOOOOOOOOOOOOOOOOOOOOOO.OOOOOOOOOOOOOOOOOOOOOOOOOOOOOOOOOOOOO.X.OOOOOOOOOOOOOOOOOOOOOOOOOOOOOOOOOOOOOOOOOOOOOOOOOOOOOOOOOOOOOOOOOOOOOO",
"OOO.X.OOOOOOOOOOOOOOO.XX.OOOOOOOOOOOOOOOOOXXXXOOOOOOOOOOOOOOOOOOOOOOOOOOOOOOOOOOOOOOOO.X.OOOOOOOOOOOOOOOOOOOOOOOOOOOOOOOOOOOOOOOOOOOOOOOOOOOOOOOOOOOOOOOOOOOOOOO",
"OO.X.OOOOOOOOOOOOOOO.XXX..OOOOOOOOOOOOOOOXooooXXOOOOOOOOOOOOOO    OOOOOOOOOOOOOOOOOOO.XX.OOOOOOOOOOOOOOOOOOOOOOOOOOOOOOOOOOOOOOOOOOOOOOOOOOOOOOOOOOOOOOOOOOOOOOO",
"O.XXX..OOOOOOOOOOOOOO.XXXX..OOOOOOOOOOOOOOXXooooXXXOOOOOOOOOOOOO    OOOOOOOOOOOOOOOO.XX.OXXOOOOOOOOOOOOOOOOXXOOOOOOOOOOOOOOOOOOOOOOOOOOOOOOOOOOOOOOOOOOOOOOOOOOO",
"OO...XX.OOOOOOOOOOOOOO..XXXX..OOOOOOOOOOOOOOXXoooooXXOOOOOOOOOOOOO     OOOOOOOOOOOO.XXX.XooXXOOOOOOOOOOOOOXooXXOOOOOOOOOOOOOOOOOOOOOOOOOOOOOOOOOOOOOOOOOOOOOOOOO",
"OOOOO..OOOOOOOOOOOOOOOOO..XXXX.OOOOOOOOOOOOOOOXXoooooXOOOOOOOOOOOOOO     OOOOOOOOOOO.XXX.XoooXOOOOOOOOOOOOOXoooXOOOOOOOOOOOOOOOOOOOOOOOOOOOOOOOOOOOOOOOOOOOOOOOO",
"OOOOOOOOOOOOOOOOOOOOOOOOOO..XXX.OOOOOOOOOOOOOOOOXXooooXOOOOOOOOOOOOOOO    OOOOOOOOOOO.XXX.XoooXXOOOOOOOOOOOOXoooXXOOOOOOOOOOOOOOOOOOOOOOOOOOOOOOOOOOOOOOOOOOOOOO",
"OOOOOOOOOOOOOOOOOOOOOOOOOOOO..XX.OOOOOOOOOOOOOOOOOXooooXOOOOOOOOOOOOOOO    OOOOOOOOOOO.XXX.XooooXOOOOOOOOOOOOXooooXOOOOOOOOOOOOOOOOOOOOOOOOOOOOOOOOOOOOOOOOOOOOO",
"OOOOOOOOOOOOOOOOOOOOOOOOOOOOOO.XX.OOOOOOOOOOOOOOOOOXooooXOOOOOOOOOOOOOOO    OOOOOOOOOOO..XX.oooooXOOOOOOOOOOOOXooooXOOOOOOOOOOOOOOOOOOOOOOOOOOOOOOOOOOOOOOOOOOOO",
"OOOOOOOOOOOOOOOOOOOOOOOOOOOOOOO..OOOOOOOOOOOOOOOOOOOXooooXOOOOOOOOOOOOOOO    OOOOOOOOOOOO..oooooooXOOOOOOOOOOOOXoooXOOOOOOOOOOOOXXXXOOOOOOOOOOOOOOOOOOOOOOOOOOOO",
"OOOOOOOOOOOOOOOOOOOOOOOOOOOOOOOOOOOOOOOOOOOOOOOOOOOXooooooXOOOOOOOOOOOOO      OOOOOOOOOOOXoooooooXOOOOOOOOOOOOXoooXOOOOOOOOOOOOXooooXOOOOOOOOOOOOOOOOOOOOOOOOOOO",
"OOOOOOOOOOOOOOOOOOOOOOOOOOOOOOOOOOOOOOOOOOOOOOOOOOXooooooooXOOOOOOOOOOO        OOOOOOOOOXooooooXXOOOOOOOOOOOOXXXXXOOOOOOOOOOOOXoooXXOOOOOOOOOOOOOOOOOOOOOOOOOOOO",
"OOOOOOOOOOOOOOOOOOOOOOOOOOOOOOOOOOOOOOOOOOOOOOOOOXoooooooXXOOOOOOOOOOO       OOOOOOOOOOXoooooXXOOOOOOOOOOOOOXooXOOOOOOOOOOOOOOXooXOOOOOOOOOOOOOOOOOO..OOOOOOOOOO",
"OOOOOOOOOOOOOOOOOOOOOOOOOOOOOOOOOOOOOOOOOOOOOOOOXoooooXXXOOOOOOOOOOOO     OOOOOOOOOOOOXooooXXOOOOOOOOOOOOOOXooXOOOOOOOOOOOOOOOOXooXOOOOOOOOOOOOOOOO.XX.OOOOOOOOO",
"OOOOOOOOOOOOOOOOOOOOOOOOOOOOOOOOOOOOOOOOOOOOOOOXoooXXXOOOOOOOOOOOOOO   OOOOOOOOOOOOOOXoooXXOOOOOOOOOOOOOOOXoXXOOOOOOOOOOOOOOOOOOXooXOOOOOOOOOOOOOOOO.XX.OOOOOOOO",
"OOOOOOOOOOOOOOOOOOOOOOOOOOOOOOOOOOOOOOOOOOOOOOXooXXOOOOOOOOOOOOOOOO  OOOOOOOOOOOOOOOXooooXOOOOOOOOOOOOOOOXoXOOOOOOOOOOOOOOOOOOOOOXXOOOOOOOOOOOOOOOOOO.XX.OOOOOOO",
"OOOOOOOOOOOOOOOOOOOOOOOOOOOOOOOOOOOOOOOOOOOOOOOXXOOOOOOOOOOOOOOOOOOOOOOOOOOOOOOOOOOOOXooooXOOOOOOOOOOOOOOO.X..OOOOOOOOOOOOOOOOOOO.OOOOOOOOOOOOOOOOOOOO..OOOOOOOO",
"OOOOOOOOOOOOOOOOOOOOOOOOOOOOOOOOOOOOOOOOOOOOOOOOOOOOOOOOOOOOOOOOOOOOOOOOOOOOOOOOOOOOOOXXoooXOOOOOOOOOOOOOOO.XX.OOOOOOOOOOOOOOOOO.X.OOOOOOOOOOOOOOOOOOOOOOOOOOOOO",
"OOOOOOOOOOOOOOOOOOOOOOOOOOOOOOOOOOOOOOOOOOOOOOOOOOOOOOOOOOOOOOOOOOOOOOOOOOOOOOOOOOOOOOOOXooXOOOOOOOOOOOOOOOO..X.OOOOOOOOOOOOOOOOO.X.OOOOOOOOOOOOOOOOOOOOOOOOOOOO",
"OOOOOOOOOOOOOOOOOOOOOOOOOOOOOOOOOOOOOOOOOOOOOOOOOOOOOOOOOOOOOOOOOOOOOOOOOOOOOOOOOOOOOOOOOXoXOOOOOOOOOOOOOOOOOO.X.OOOOOOOOOOOOOOOOO.X.OOOOOOOOOOOOOOOOOOOOOOOOOOO",
"OOOOOOOOOOOOOOOOOOOOOOOOOOOOOOOOOOOOOOOOOOOOOOOOOOOOOOOOOOOOOOOOOOOOOOOOOOOOOOOOOOOOOOOOOOXOOOOOOOOOOOOOOOOOOOO.X.OOOOOOOOOOOOOOOOO.X.OOOOOOOOOOOOOOOOOOOOOOOOOO",
"OOOOOOOOOOOOOOOOOOOOOOOOOOOOOOOOOOOOOOOOOOOOOOOOOOOOOOOOOOOOOOOOOOOOOOOOOOOOOOOOOOOOOOOOOOOOOOOOOOOOOOOOOOOOOOOO.OOOOOOOOOOOOOOOOOOO.X.OOOOOOOOOOOOOOOOOOOOOOOOO",
"OOOOOOOOOOOOOOOOOOOOOOOOOOOOOOOOOOOOOOOOOOOOOOOOOOOOOOOOOOOOOOOOOOOOOOOOOOOOOOOOOOOOOOOOOOOOOOOOOOOOOOOOOOOOOOOOOOOOOOOOOOOOOOOOOOOOO.OOOOOOOOOOOOOOOOOOOOOOOOOO"
};
